<svg preserveAspectRatio="none" width="100%" height="100%" overflow="visible" style="display: block;" viewBox="0 0 135.729 16.7098" fill="none" xmlns="http://www.w3.org/2000/svg">
<g id="BEOMJAKA.">
<path id="Vector" d="M133.22 16.7098C132.475 16.7098 131.862 16.4945 131.381 16.0638C130.917 15.6165 130.686 15.0699 130.686 14.4239C130.686 13.7613 130.917 13.2063 131.381 12.7591C131.862 12.3118 132.475 12.0882 133.22 12.0882C133.949 12.0882 134.545 12.3118 135.009 12.7591C135.489 13.2063 135.729 13.7613 135.729 14.4239C135.729 15.0699 135.489 15.6165 135.009 16.0638C134.545 16.4945 133.949 16.7098 133.22 16.7098Z" fill="var(--fill-0, white)"/>
<path id="Vector_2" d="M124.167 13.6359H118.091L117.117 16.5115H112.966L118.856 0.231585H123.448L129.338 16.5115H125.141L124.167 13.6359ZM123.146 10.5747L121.129 4.61465L119.134 10.5747H123.146Z" fill="var(--fill-0, white)"/>
<path id="Vector_3" d="M107.299 16.5115L101.826 9.32238V16.5115H97.8602V0.231585H101.826V7.37436L107.252 0.231585H111.914L105.606 8.20922L112.146 16.5115H107.299Z" fill="var(--fill-0, white)"/>
<path id="Vector_4" d="M90.8972 13.6359H84.8212L83.8472 16.5115H79.696L85.5865 0.231585H90.1783L96.0688 16.5115H91.8712L90.8972 13.6359ZM89.8768 10.5747L87.8592 4.61465L85.8648 10.5747H89.8768Z" fill="var(--fill-0, white)"/>
<path id="Vector_5" d="M77.5576 0.231585V11.3168C77.5576 13.0329 77.0706 14.3548 76.0966 15.2824C75.1381 16.2101 73.8394 16.6739 72.2006 16.6739C70.4844 16.6739 69.1085 16.1869 68.0726 15.2129C67.0367 14.2388 66.5188 12.8551 66.5188 11.0617H70.4612C70.4612 11.742 70.6004 12.2599 70.8787 12.6155C71.157 12.9556 71.5589 13.1257 72.0846 13.1257C72.5639 13.1257 72.9349 12.9711 73.1978 12.6619C73.4606 12.3527 73.592 11.9043 73.592 11.3168V0.231585H77.5576Z" fill="var(--fill-0, white)"/>
<path id="Vector_6" d="M64.5056 0.231585V16.5115H60.5399V6.7482L56.899 16.5115H53.6987L50.0345 6.72501V16.5115H46.0689V0.231585H50.7534L55.322 11.5023L59.8442 0.231585H64.5056Z" fill="var(--fill-0, white)"/>
<path id="Vector_7" d="M35.5346 16.6743C34.0041 16.6743 32.5971 16.3187 31.3139 15.6075C30.0462 14.8963 29.0335 13.9069 28.2759 12.6391C27.5338 11.3559 27.1628 9.91805 27.1628 8.32562C27.1628 6.73318 27.5338 5.30308 28.2759 4.03532C29.0335 2.76755 30.0462 1.77808 31.3139 1.06689C32.5971 0.355708 34.0041 0.000115484 35.5346 0.000115484C37.0652 0.000115484 38.4644 0.355708 39.7322 1.06689C41.0154 1.77808 42.0203 2.76755 42.747 4.03532C43.4891 5.30308 43.8601 6.73318 43.8601 8.32562C43.8601 9.91805 43.4891 11.3559 42.747 12.6391C42.0049 13.9069 40.9999 14.8963 39.7322 15.6075C38.4644 16.3187 37.0652 16.6743 35.5346 16.6743ZM35.5346 13.0565C36.8333 13.0565 37.8692 12.6236 38.6422 11.7579C39.4307 10.8921 39.8249 9.74799 39.8249 8.32562C39.8249 6.88779 39.4307 5.74371 38.6422 4.89338C37.8692 4.02759 36.8333 3.59469 35.5346 3.59469C34.2205 3.59469 33.1692 4.01986 32.3807 4.87019C31.6077 5.72052 31.2212 6.87233 31.2212 8.32562C31.2212 9.76345 31.6077 10.9153 32.3807 11.781C33.1692 12.6314 34.2205 13.0565 35.5346 13.0565Z" fill="var(--fill-0, white)"/>
<path id="Vector_8" d="M19.2532 3.40873V6.70182H24.5639V9.76301H19.2532V13.3344H25.2596V16.5115H15.2875V0.231585H25.2596V3.40873H19.2532Z" fill="var(--fill-0, white)"/>
<path id="Vector_9" d="M9.85631 8.16284C10.7994 8.36383 11.557 8.83538 12.129 9.57748C12.7011 10.3041 12.9871 11.139 12.9871 12.0821C12.9871 13.4426 12.5078 14.5249 11.5492 15.3288C10.6061 16.1173 9.28427 16.5115 7.58361 16.5115H0.000213623V0.231585H7.32851C8.98279 0.231585 10.2737 0.610369 11.2014 1.36793C12.1445 2.1255 12.616 3.15363 12.616 4.45231C12.616 5.41087 12.3609 6.20708 11.8507 6.84097C11.356 7.47485 10.6912 7.91547 9.85631 8.16284ZM3.96584 6.81778H6.56322C7.21256 6.81778 7.70729 6.67863 8.04743 6.40034C8.40302 6.10659 8.58082 5.68143 8.58082 5.12485C8.58082 4.56827 8.40302 4.1431 8.04743 3.84935C7.70729 3.5556 7.21256 3.40873 6.56322 3.40873H3.96584V6.81778ZM6.88789 13.3112C7.55269 13.3112 8.06289 13.1643 8.41848 12.8706C8.78953 12.5614 8.97506 12.1207 8.97506 11.5487C8.97506 10.9767 8.7818 10.5283 8.39529 10.2036C8.02424 9.87896 7.50631 9.71663 6.84151 9.71663H3.96584V13.3112H6.88789Z" fill="var(--fill-0, white)"/>
</g>
</svg>
