<svg preserveAspectRatio="none" width="100%" height="100%" overflow="visible" style="display: block;" viewBox="0 0 121.723 20.8411" fill="none" xmlns="http://www.w3.org/2000/svg">
<g id="Group">
<g id="Group_2">
<path id="Vector" d="M9.33364 3.65064V5.14295C9.33364 5.43021 9.09993 5.66636 8.81023 5.66636H2.99436V17.3492H9.01959C9.30686 17.3492 9.543 17.5829 9.543 17.8726V19.3649C9.543 19.6522 9.30929 19.8883 9.01959 19.8883H0.523404C0.236141 19.8883 0 19.6546 0 19.3649V3.65064C0 3.36338 0.233706 3.12724 0.523404 3.12724H8.81267C9.09993 3.12724 9.33607 3.36094 9.33607 3.65064H9.33364ZM10.5801 19.567V3.23435C10.5801 2.94709 10.8138 2.71095 11.1035 2.71095H13.051C13.3383 2.71095 13.5744 2.94465 13.5744 3.23435V10.0703L15.4027 9.42513V3.23435C15.4027 2.94709 15.6364 2.71095 15.9261 2.71095H17.8956C18.1828 2.71095 18.419 2.94465 18.419 3.23435V19.567C18.419 19.8543 18.1853 20.0904 17.8956 20.0904H15.9261C15.6388 20.0904 15.4027 19.8567 15.4027 19.567V12.232L13.5744 12.8772V19.567C13.5744 19.8543 13.3407 20.0904 13.051 20.0904H11.1035C10.8162 20.0904 10.5801 19.8567 10.5801 19.567Z" fill="var(--fill-0, white)"/>
<path id="Vector_2" d="M26.2117 4.16778V2.7558C26.2117 2.46854 26.4454 2.2324 26.7351 2.2324H28.9553C29.2425 2.2324 29.4787 2.46611 29.4787 2.7558V4.16778H33.4054C33.6927 4.16778 33.9288 4.40148 33.9288 4.69118V6.18349C33.9288 6.47076 33.6951 6.7069 33.4054 6.7069H29.4787V10.49C29.4787 11.5441 29.3667 12.5057 29.1452 13.3797L34.0676 17.0338C34.2916 17.1993 34.3451 17.5109 34.1918 17.7422L33.1717 19.2783C33.0062 19.5291 32.6629 19.5875 32.4219 19.4074L28.001 16.0819C27.4751 16.9145 26.7813 17.6351 25.922 18.2437C25.1576 18.7866 24.2471 19.2443 23.1905 19.6216C22.9568 19.7044 22.6939 19.607 22.5673 19.3928L21.6714 17.8858C21.5083 17.6107 21.6276 17.2529 21.9246 17.136C22.5186 16.9023 23.0469 16.6467 23.5143 16.3716C24.1229 16.0113 24.6293 15.5634 25.031 15.0302C25.4326 14.4971 25.7296 13.8617 25.9244 13.1289C26.1192 12.3962 26.2165 11.5076 26.2165 10.4681V6.7069H22.4991C22.2119 6.7069 21.9757 6.47319 21.9757 6.18349V4.69118C21.9757 4.40392 22.2094 4.16778 22.4991 4.16778H26.2165H26.2117ZM38.3912 20.0914H36.1734C35.8861 20.0914 35.65 19.8577 35.65 19.568V3.23539C35.65 2.94812 35.8837 2.71198 36.1734 2.71198H38.3912C38.6784 2.71198 38.9146 2.94569 38.9146 3.23539V19.568C38.9146 19.8553 38.6809 20.0914 38.3912 20.0914Z" fill="var(--fill-0, white)"/>
</g>
<path id="Vector_3" d="M83.6182 17.4473H100.657C100.944 17.4473 101.18 17.6811 101.18 17.9708V19.5677C101.18 19.855 100.947 20.0911 100.657 20.0911H83.6182C83.3309 20.0911 83.0948 19.8574 83.0948 19.5677V17.9708C83.0948 17.6835 83.3285 17.4473 83.6182 17.4473ZM93.6408 2.50476C93.928 2.50476 94.1642 2.73847 94.1642 3.02817V5.21186C94.1642 6.25136 94.0206 7.22514 93.7309 8.13562L100.63 11.9699C100.9 12.1208 100.983 12.4714 100.805 12.727L99.7391 14.2509C99.5857 14.47 99.2911 14.5382 99.0574 14.4092L92.3432 10.6942C90.829 12.542 88.38 13.8931 84.9961 14.7524C84.76 14.8133 84.5116 14.6989 84.3997 14.4822L83.6206 12.9631C83.4673 12.6637 83.6304 12.2961 83.9566 12.2182C86.2255 11.6802 87.8979 10.8719 88.974 9.79347C90.1498 8.61764 90.7389 7.08394 90.7389 5.18995V3.02573C90.7389 2.73847 90.9726 2.50233 91.2623 2.50233H93.6408V2.50476Z" fill="var(--fill-0, white)"/>
<path id="Vector_4" d="M110.311 10.3233V5.06004H103.643C103.355 5.06004 103.119 4.82633 103.119 4.53663V2.93964C103.119 2.65238 103.353 2.41624 103.643 2.41624H113.188C113.475 2.41624 113.712 2.64995 113.712 2.93964V19.3502C113.712 19.6375 113.478 19.8736 113.188 19.8736H110.832C110.544 19.8736 110.308 19.6399 110.308 19.3502V12.9647H103.64C103.353 12.9647 103.117 12.731 103.117 12.4413V10.8443C103.117 10.557 103.351 10.3209 103.64 10.3209H110.308L110.311 10.3233ZM119.839 8.76525H121.2C121.487 8.76525 121.723 8.99896 121.723 9.28866V10.8856C121.723 11.1729 121.49 11.4091 121.2 11.4091H119.839V19.5717C119.839 19.859 119.605 20.0951 119.316 20.0951H116.959C116.672 20.0951 116.436 19.8614 116.436 19.5717V2.50875C116.436 2.22148 116.669 1.98534 116.959 1.98534H119.316C119.603 1.98534 119.839 2.21905 119.839 2.50875V8.76525Z" fill="var(--fill-0, white)"/>
<path id="Vector_5" d="M54.2092 2.41969V5.80356C56.2298 6.8528 57.6199 8.96833 57.6199 11.4028C57.6199 14.8767 54.7886 17.708 51.3147 17.708C47.8407 17.708 45.0095 14.8767 45.0095 11.4028C45.0095 8.96833 46.3947 6.8528 48.4201 5.80356V2.41969C44.6224 3.64178 41.8763 7.20336 41.8763 11.4028C41.8763 16.6052 46.1074 20.8411 51.3147 20.8411C56.5219 20.8411 60.753 16.6052 60.753 11.4028C60.753 7.20336 57.9996 3.64178 54.2092 2.41969Z" fill="var(--fill-0, white)"/>
<path id="Vector_6" d="M78.7848 20.5612C78.3905 20.5612 78.0034 20.403 77.7161 20.1011L65.6389 7.58813V17.5352C65.6389 19.2053 64.2853 20.5588 62.6153 20.5588V3.80744C62.6153 3.17449 62.9829 2.6024 63.5501 2.35895C64.1149 2.11551 64.7649 2.2494 65.1982 2.69977L77.2755 15.2128V5.26567C77.2755 3.59565 78.629 2.2421 80.2991 2.2421V18.9983C80.2991 19.6313 79.9315 20.2034 79.3642 20.4468C79.1768 20.5272 78.9796 20.5661 78.7848 20.5661V20.5612Z" fill="var(--fill-0, white)"/>
<path id="Vector_7" d="M52.8795 1.56783C52.8795 0.701965 52.1782 4.67529e-05 51.313 4.67529e-05C50.4478 4.67529e-05 49.7464 0.701965 49.7464 1.56783V6.27603C49.7464 7.14189 50.4478 7.84381 51.313 7.84381C52.1782 7.84381 52.8795 7.14189 52.8795 6.27603V1.56783Z" fill="var(--fill-0, white)"/>
</g>
</svg>
