<svg preserveAspectRatio="none" width="100%" height="100%" overflow="visible" style="display: block;" viewBox="0 0 34.6587 3.56207" fill="none" xmlns="http://www.w3.org/2000/svg">
<g id="Group">
<path id="Vector" d="M0.00016276 0.0638021H0.820928C0.927985 0.0638021 1.04297 0.0677675 1.16589 0.0796627C1.2888 0.0915578 1.39586 0.103453 1.47913 0.123278C1.6298 0.158964 1.77254 0.222404 1.90339 0.317565C2.03423 0.412726 2.14922 0.523748 2.25628 0.65063C2.3554 0.785441 2.43867 0.944044 2.50211 1.13437C2.56555 1.32469 2.59727 1.54277 2.59727 1.7886C2.59727 2.03443 2.56555 2.24062 2.50211 2.43094C2.43867 2.62126 2.3554 2.78383 2.25628 2.91864C2.14922 3.04948 2.03423 3.16051 1.90339 3.25567C1.77254 3.35083 1.63376 3.41427 1.47913 3.44599C1.38793 3.46582 1.28484 3.47771 1.16192 3.48961C1.039 3.49754 0.927985 3.50547 0.820928 3.50547H0.00016276V0.0638021ZM0.511652 0.503923V3.06535H0.844718C0.912124 3.06535 0.995389 3.06535 1.09451 3.05742C1.19364 3.04949 1.27294 3.03759 1.32845 3.02173C1.40776 3.00191 1.49102 2.96622 1.57429 2.91071C1.65755 2.8552 1.73686 2.77986 1.81219 2.67677C1.88356 2.57765 1.94304 2.45473 1.99458 2.31199C2.04613 2.16925 2.06992 1.99478 2.06992 1.79256C2.06992 1.59035 2.04613 1.40399 1.99458 1.26125C1.94304 1.11851 1.8796 0.999555 1.81219 0.900428C1.73686 0.797337 1.65755 0.718036 1.57429 0.66649C1.49102 0.614944 1.40776 0.575294 1.32845 0.555469C1.27294 0.535644 1.19364 0.523748 1.09451 0.515818C0.991424 0.507888 0.908159 0.503923 0.844718 0.503923H0.511652Z" fill="var(--fill-0, white)"/>
<path id="Vector_2" d="M3.20826 3.50547H2.66108L3.87836 0.0638021H4.40571L5.63487 3.50547H5.08373L4.73481 2.47059H3.56115L3.2043 3.50547H3.20826ZM4.58413 2.0265L4.15591 0.753722L3.71579 2.0265H4.58413Z" fill="var(--fill-0, white)"/>
<path id="Vector_3" d="M7.1859 2.7206C7.1859 2.80783 7.17004 2.90299 7.13436 3.00608C7.09867 3.10917 7.04713 3.20037 6.97576 3.2757C6.89646 3.36294 6.79337 3.43034 6.66252 3.48189C6.53167 3.53343 6.36117 3.55722 6.15499 3.55722C6.05983 3.55722 5.98053 3.55722 5.90916 3.54533C5.83779 3.53343 5.75848 3.51757 5.66729 3.48189V3.00212C5.77435 3.0497 5.86554 3.08142 5.94881 3.09728C6.03208 3.11314 6.11138 3.12107 6.18275 3.12107H6.24222C6.26205 3.12107 6.28584 3.12107 6.31359 3.1171C6.34531 3.10917 6.381 3.10124 6.42065 3.08538C6.4603 3.06952 6.49598 3.04573 6.5277 3.01401C6.56339 2.97833 6.59511 2.93471 6.62287 2.8792C6.65062 2.82369 6.66252 2.74835 6.66252 2.65319V0.060049H7.18194V2.71663L7.1859 2.7206Z" fill="var(--fill-0, white)"/>
<path id="Vector_4" d="M9.84311 3.50547H7.79715V0.0638021H9.79554V0.503923H8.31657V1.48726H9.73606V1.92738H8.31657V3.06535H9.84311V3.50547Z" fill="var(--fill-0, white)"/>
<path id="Vector_5" d="M13.3432 1.78427C13.3432 2.02218 13.3075 2.25612 13.2322 2.47816C13.1568 2.7002 13.0498 2.89449 12.907 3.06102C12.7683 3.22359 12.5938 3.3465 12.3916 3.42977C12.1894 3.51303 11.9832 3.55665 11.7691 3.55665C11.5549 3.55665 11.3488 3.51303 11.1466 3.42977C10.9443 3.3465 10.7738 3.22359 10.6311 3.06102C10.4844 2.89449 10.3773 2.70417 10.306 2.47816C10.2346 2.25215 10.2029 2.02614 10.2029 1.78427C10.2029 1.54241 10.2385 1.3045 10.306 1.08246C10.3773 0.860416 10.4844 0.666128 10.6311 0.499596C10.7699 0.337029 10.9443 0.214113 11.1466 0.126882C11.3488 0.0396504 11.5549 0 11.7691 0C11.9832 0 12.1894 0.0436155 12.3916 0.126882C12.5938 0.214113 12.7643 0.337029 12.907 0.499596C13.0498 0.666128 13.1608 0.860416 13.2322 1.08246C13.3075 1.3045 13.3432 1.53844 13.3432 1.78427ZM12.8238 1.78427C12.8238 1.59395 12.796 1.41156 12.7405 1.2371C12.685 1.06263 12.6136 0.915926 12.5185 0.796975C12.4233 0.674058 12.3123 0.582863 12.1814 0.519422C12.0506 0.455981 11.9118 0.42426 11.7691 0.42426C11.6263 0.42426 11.4915 0.455981 11.3607 0.519422C11.2298 0.582863 11.1148 0.674058 11.0157 0.796975C10.9205 0.915926 10.8492 1.06263 10.8016 1.2371C10.754 1.41156 10.7263 1.59792 10.7263 1.78427C10.7263 1.97063 10.75 2.14906 10.8016 2.32352C10.8531 2.49798 10.9245 2.64469 11.0157 2.76761C11.1109 2.88656 11.2259 2.97775 11.3567 3.03723C11.4875 3.10067 11.6263 3.13239 11.7691 3.13239C11.9118 3.13239 12.0506 3.10067 12.1814 3.03723C12.3123 2.97379 12.4273 2.88656 12.5185 2.76761C12.6136 2.64469 12.685 2.49402 12.7405 2.32352C12.796 2.14906 12.8238 1.97063 12.8238 1.78427Z" fill="var(--fill-0, white)"/>
<path id="Vector_6" d="M16.2852 3.50547H15.7142L14.3185 0.876637V3.50547H13.8189V0.0638021H14.378L15.7816 2.70056V0.0638021H16.2812V3.50547H16.2852Z" fill="var(--fill-0, white)"/>
<path id="Vector_7" d="M19.5139 1.09184H18.9707C18.9707 0.9491 18.9509 0.842044 18.9113 0.766708C18.8716 0.695337 18.8201 0.635861 18.7566 0.58828C18.6971 0.540699 18.6258 0.501049 18.5465 0.477259C18.4672 0.453469 18.3839 0.437608 18.3046 0.433643C18.1658 0.433643 18.035 0.457433 17.9081 0.508979C17.7852 0.560524 17.6742 0.643791 17.579 0.758777C17.4799 0.869799 17.4045 1.01254 17.349 1.19097C17.2975 1.3694 17.2697 1.54782 17.2697 1.73022C17.2697 1.84124 17.2856 1.98001 17.3173 2.14258C17.349 2.30515 17.4045 2.46375 17.4838 2.61839C17.5631 2.75716 17.6821 2.88008 17.8328 2.97921C17.9834 3.07833 18.1777 3.12988 18.4156 3.12988C18.5465 3.12988 18.6694 3.11798 18.7883 3.09023C18.9073 3.06247 18.9668 3.05058 18.9668 3.04661V2.06724H18.15V1.62316H19.4822V3.30434C19.2879 3.3995 19.1055 3.46691 18.935 3.50656C18.7606 3.54224 18.5544 3.56207 18.3165 3.56207C18.0429 3.56207 17.805 3.51052 17.6107 3.3995C17.4125 3.29245 17.2459 3.14971 17.1151 2.97524C16.9803 2.79285 16.8811 2.59856 16.8296 2.38445C16.7741 2.17034 16.7463 1.95226 16.7463 1.73418C16.7463 1.5161 16.7741 1.29009 16.8336 1.08788C16.893 0.88566 16.9882 0.703267 17.123 0.5407C17.2539 0.386063 17.4164 0.259181 17.6147 0.160055C17.8129 0.0609288 18.0429 0.00938266 18.3046 0.00938266C18.4711 0.00938266 18.6218 0.0331724 18.7685 0.0847181C18.9113 0.132299 19.0381 0.20367 19.1531 0.290901C19.2602 0.382097 19.3514 0.489153 19.4188 0.616035C19.4862 0.742917 19.5219 0.901519 19.5219 1.09977L19.5139 1.09184Z" fill="var(--fill-0, white)"/>
<path id="Vector_8" d="M22.4236 2.51045C22.4236 2.78007 22.3483 2.99022 22.1937 3.14486C22.039 3.29949 21.8606 3.40655 21.6465 3.46603C21.5672 3.48585 21.4839 3.49775 21.3888 3.49775C21.2936 3.49775 21.2143 3.50171 21.1548 3.50171H20.0922V0.060049H21.1072C21.4681 0.060049 21.7535 0.139349 21.9677 0.297952C22.1818 0.456554 22.2888 0.690492 22.2888 0.999766C22.2888 1.30904 22.1064 1.54694 21.7456 1.68176C22.2016 1.8245 22.4276 2.10205 22.4276 2.50649L22.4236 2.51045ZM21.7654 0.9958C21.7654 0.841163 21.7179 0.722213 21.6187 0.646877C21.5196 0.571541 21.3927 0.523959 21.2302 0.508099C21.1945 0.508099 21.1509 0.500169 21.1072 0.500169C21.0636 0.500169 21.024 0.496204 20.9883 0.496204H20.5997V1.49143H21.1152C21.1628 1.49143 21.2024 1.49143 21.2302 1.48747C21.3927 1.46764 21.5196 1.42006 21.6187 1.33679C21.7139 1.25353 21.7654 1.14251 21.7654 1.00373V0.9958ZM20.6037 3.07349H21.0993C21.1469 3.07349 21.2103 3.07349 21.2896 3.06556C21.3689 3.05763 21.4284 3.05366 21.4641 3.04177C21.6148 3.00212 21.7298 2.93471 21.8011 2.83955C21.8725 2.74439 21.9082 2.63733 21.9082 2.50649C21.9082 2.37564 21.8725 2.26065 21.8011 2.16946C21.7298 2.07826 21.6187 2.01085 21.4641 1.96724C21.4244 1.95534 21.3689 1.94345 21.2976 1.93155C21.2262 1.91966 21.1628 1.91173 21.0993 1.91173H20.6037V3.06952V3.07349Z" fill="var(--fill-0, white)"/>
<path id="Vector_9" d="M25.8897 1.78427C25.8897 2.02218 25.854 2.25612 25.7787 2.47816C25.7033 2.7002 25.5963 2.89449 25.4535 3.06102C25.3148 3.22359 25.1403 3.3465 24.9381 3.42977C24.7359 3.51303 24.5297 3.55665 24.3156 3.55665C24.1014 3.55665 23.8953 3.51303 23.693 3.42977C23.4908 3.3465 23.3203 3.22359 23.1776 3.06102C23.0309 2.89449 22.9238 2.70417 22.8524 2.47816C22.7811 2.25215 22.7494 2.02614 22.7494 1.78427C22.7494 1.54241 22.785 1.3045 22.8524 1.08246C22.9238 0.860416 23.0309 0.666128 23.1776 0.499596C23.3164 0.337029 23.4908 0.214113 23.693 0.126882C23.8953 0.0396504 24.1014 0 24.3156 0C24.5297 0 24.7359 0.0436155 24.9381 0.126882C25.1403 0.214113 25.3108 0.337029 25.4535 0.499596C25.5963 0.666128 25.7073 0.860416 25.7787 1.08246C25.854 1.3045 25.8897 1.53844 25.8897 1.78427ZM25.3703 1.78427C25.3703 1.59395 25.3425 1.41156 25.287 1.2371C25.2315 1.06263 25.1601 0.915926 25.0649 0.796975C24.9698 0.674058 24.8588 0.582863 24.7279 0.519422C24.5971 0.455981 24.4583 0.42426 24.3156 0.42426C24.1728 0.42426 24.038 0.455981 23.9072 0.519422C23.7763 0.582863 23.6613 0.674058 23.5622 0.796975C23.467 0.915926 23.3957 1.06263 23.3481 1.2371C23.3005 1.41156 23.2727 1.59792 23.2727 1.78427C23.2727 1.97063 23.2965 2.14906 23.3481 2.32352C23.3996 2.49798 23.471 2.64469 23.5622 2.76761C23.6574 2.88656 23.7723 2.97775 23.9032 3.03723C24.034 3.10067 24.1728 3.13239 24.3156 3.13239C24.4583 3.13239 24.5971 3.10067 24.7279 3.03723C24.8588 2.97379 24.9738 2.88656 25.0649 2.76761C25.1601 2.64469 25.2315 2.49402 25.287 2.32352C25.3425 2.14906 25.3703 1.97063 25.3703 1.78427Z" fill="var(--fill-0, white)"/>
<path id="Vector_10" d="M29.3575 1.78427C29.3575 2.02218 29.3218 2.25612 29.2465 2.47816C29.1712 2.7002 29.0641 2.89449 28.9214 3.06102C28.7826 3.22359 28.6081 3.3465 28.4059 3.42977C28.2037 3.51303 27.9975 3.55665 27.7834 3.55665C27.5693 3.55665 27.3631 3.51303 27.1609 3.42977C26.9587 3.3465 26.7882 3.22359 26.6454 3.06102C26.4987 2.89449 26.3916 2.70417 26.3203 2.47816C26.2489 2.25215 26.2172 2.02614 26.2172 1.78427C26.2172 1.54241 26.2529 1.3045 26.3203 1.08246C26.3916 0.860416 26.4987 0.666128 26.6454 0.499596C26.7842 0.337029 26.9587 0.214113 27.1609 0.126882C27.3631 0.0396504 27.5693 0 27.7834 0C27.9975 0 28.2037 0.0436155 28.4059 0.126882C28.6081 0.214113 28.7786 0.337029 28.9214 0.499596C29.0641 0.666128 29.1751 0.860416 29.2465 1.08246C29.3218 1.3045 29.3575 1.53844 29.3575 1.78427ZM28.8381 1.78427C28.8381 1.59395 28.8103 1.41156 28.7548 1.2371C28.6993 1.06263 28.6279 0.915926 28.5328 0.796975C28.4376 0.674058 28.3266 0.582863 28.1958 0.519422C28.0649 0.455981 27.9261 0.42426 27.7834 0.42426C27.6406 0.42426 27.5058 0.455981 27.375 0.519422C27.2441 0.582863 27.1292 0.674058 27.03 0.796975C26.9349 0.915926 26.8635 1.06263 26.8159 1.2371C26.7683 1.41156 26.7406 1.59792 26.7406 1.78427C26.7406 1.97063 26.7644 2.14906 26.8159 2.32352C26.8675 2.49798 26.9388 2.64469 27.03 2.76761C27.1252 2.88656 27.2402 2.97775 27.371 3.03723C27.5019 3.10067 27.6406 3.13239 27.7834 3.13239C27.9261 3.13239 28.0649 3.10067 28.1958 3.03723C28.3266 2.97379 28.4416 2.88656 28.5328 2.76761C28.6279 2.64469 28.6993 2.49402 28.7548 2.32352C28.8103 2.14906 28.8381 1.97063 28.8381 1.78427Z" fill="var(--fill-0, white)"/>
<path id="Vector_11" d="M32.3667 3.50547H31.7085L30.3445 2.03047V3.50547H29.837V0.0638021H30.3445V1.40795L31.6134 0.0638021H32.2398L30.7252 1.68551L32.3628 3.50547H32.3667Z" fill="var(--fill-0, white)"/>
<path id="Vector_12" d="M34.6587 2.55682C34.6587 2.89782 34.5398 3.14762 34.2979 3.31018C34.0561 3.47275 33.7389 3.55602 33.3463 3.55602C33.1956 3.55602 33.045 3.54016 32.8903 3.5124C32.7357 3.48068 32.5969 3.44896 32.4661 3.41327V2.88196C32.5969 2.9454 32.7317 2.99298 32.8665 3.03263C32.9419 3.05245 33.0251 3.07625 33.1203 3.09607C33.2155 3.1159 33.3027 3.12779 33.386 3.12779C33.4811 3.12779 33.5723 3.11986 33.6596 3.10004C33.7468 3.08021 33.8221 3.05246 33.8856 3.01281C33.945 2.97712 34.0005 2.92557 34.0521 2.85817C34.1036 2.79076 34.1314 2.71146 34.1314 2.62026C34.1314 2.52907 34.1076 2.44184 34.06 2.3784C34.0124 2.31496 33.9609 2.25944 33.9014 2.21979C33.7706 2.12067 33.6358 2.03344 33.5009 1.96207C33.3979 1.91449 33.2829 1.85897 33.16 1.79553C33.037 1.73606 32.9181 1.66469 32.811 1.58142C32.696 1.49419 32.6049 1.39506 32.5335 1.28801C32.4661 1.18095 32.4304 1.05803 32.4304 0.923222C32.4304 0.606018 32.5374 0.37208 32.7516 0.229338C32.9657 0.0826313 33.2353 0.0112592 33.5604 0.0112592C33.6437 0.0112592 33.7309 0.0191905 33.8221 0.0310857C33.9133 0.0429808 33.9926 0.0588398 34.06 0.0747C34.1988 0.102455 34.3257 0.138141 34.4367 0.181757V0.677388C34.3296 0.609982 34.1948 0.554471 34.0243 0.506891C33.8538 0.45931 33.6873 0.43552 33.5208 0.43552C33.3542 0.43552 33.2194 0.475171 33.1084 0.554472C33.0014 0.633774 32.9458 0.74876 32.9458 0.899432C32.9458 0.962872 32.9617 1.01442 32.9934 1.062C33.0251 1.10561 33.0648 1.15319 33.1084 1.19681C33.16 1.24043 33.2234 1.28404 33.2868 1.32369C33.3542 1.36731 33.4177 1.40299 33.4811 1.43471C33.723 1.5497 33.9093 1.6409 34.0402 1.71227C34.171 1.78364 34.2741 1.85501 34.3495 1.93034C34.4288 1.99775 34.4962 2.08498 34.5517 2.18807C34.6112 2.29116 34.6429 2.41805 34.6468 2.57665L34.6587 2.55682Z" fill="var(--fill-0, white)"/>
</g>
</svg>
