<svg viewBox="0 0 93.88 29.068" fill="none" xmlns="http://www.w3.org/2000/svg">
  <!-- 아이콘 -->
  <svg x="0" y="0" width="29.068" height="29.068" viewBox="0 0 29.068 29.0678">
    <path d="M14.6826 3.78478e-05V9.15534H20.9791V10.5629H14.6826V13.6795H13.275V0.0555486C8.89758 0.396543 5.0713 2.68834 2.66451 6.07053H12.0974V7.47813H3.31082V12.2362H12.1013V13.6438H1.90323V7.26401C0.697849 9.36549 0 11.8 0 14.4011V29.0678H4.59946L17.47 16.1973H12.0974V14.7897H20.8641L17.1528 18.501L19.401 20.7492C19.401 20.7492 19.3772 20.7492 19.3613 20.7492C18.7825 20.7492 18.2313 20.8602 17.7198 21.0584L16.1576 19.4962L6.58595 29.0678H14.6667C15.6739 29.0678 16.6572 28.9608 17.6048 28.7665C16.4748 28.1004 15.7175 26.8791 15.7175 25.4755C15.7175 23.3701 17.4304 21.6572 19.5358 21.6572C20.4557 21.6572 21.3042 21.9863 21.9624 22.5295V19.2028H19.401V17.7952H21.9624V6.77235H20.9791V6.09432C20.9791 6.09432 22.462 5.94762 22.462 4.81361H23.37V26.1178C26.8275 23.489 29.0678 19.3416 29.0678 14.6668V3.78478e-05H14.6826Z" fill="white"/>
    <path d="M19.5362 23.0645C18.2039 23.0645 17.1215 24.147 17.1215 25.4752C17.1215 26.8035 18.2039 27.886 19.5362 27.886C20.8685 27.886 21.9469 26.8035 21.9469 25.4752C21.9469 24.147 20.8645 23.0645 19.5362 23.0645Z" fill="white"/>
  </svg>
  <!-- 텍스트 -->
  <svg x="35.07" y="3.8" width="58.8134" height="16.221" viewBox="0 0 58.8134 16.221">
    <path d="M7.83098 10.5034H0V2.04598H6.69697V3.36634H1.53844V9.18307H7.83098V10.5034ZM13.8856 6.86748H11.0942V15.4082H9.55578V1.15189e-05H11.0942V5.46385H13.8856V6.86748Z" fill="white"/>
    <path d="M20.4987 4.90478L23.6787 7.71204L22.628 8.75881L19.6185 5.98327C18.6035 7.07763 17.2831 8.12044 15.6614 9.1117L14.6463 8.08079C17.5567 6.31237 19.4163 4.44087 20.2291 2.46627H15.5623V1.16574H22.0729C21.8825 2.4742 21.3552 3.71923 20.4987 4.90478ZM26.8944 12.9063C26.8944 13.8103 26.5415 14.5874 25.8357 15.2417C25.1299 15.8959 24.1823 16.221 22.9848 16.221C21.7874 16.221 20.8715 15.8919 20.1697 15.2417C19.4639 14.5874 19.111 13.8103 19.111 12.9063C19.111 12.0022 19.4639 11.2251 20.1697 10.5708C20.8754 9.91661 21.8112 9.59147 22.9848 9.59147C24.1585 9.59147 25.118 9.92057 25.8278 10.5708C26.5375 11.2251 26.8944 12.0022 26.8944 12.9063ZM25.3401 12.9063C25.3401 12.3749 25.1379 11.911 24.7295 11.5106C24.325 11.1101 23.7422 10.9118 22.9888 10.9118C22.2354 10.9118 21.6724 11.1141 21.2719 11.5106C20.8715 11.911 20.6692 12.3749 20.6692 12.9063C20.6692 13.4376 20.8715 13.9015 21.2719 14.302C21.6724 14.7024 22.2434 14.9007 22.9888 14.9007C23.7342 14.9007 24.325 14.6985 24.7295 14.302C25.1339 13.9015 25.3401 13.4376 25.3401 12.9063ZM27.049 9.59147H25.5106V5.26164H22.3465V3.94127H25.5106V1.15189e-05H27.049V9.59147Z" fill="white"/>
    <path d="M35.5182 11.0932V9.24947H29.0393V7.91324H43.5871V9.24947H37.1082V11.0932H40.2525V16.1685H38.7141V12.4136H32.0488V11.0932H35.5182ZM40.3199 6.69597H32.2352V0.43912H33.7895V2.33441H38.7775V0.43912H40.3159V6.69597H40.3199ZM38.7815 5.37561V3.61513H33.7934V5.37561H38.7815Z" fill="white"/>
    <path d="M44.2655 12.0576H58.8133V13.3939H44.2655V12.0576ZM52.1322 4.07599L57.2074 8.52477L56.2082 9.59137L51.4898 5.43203C50.566 6.95461 49.0315 8.38203 46.8904 9.71033L45.911 8.64373C49.1267 6.63741 50.8039 4.39319 50.9506 1.91107V1.30045H52.5247V1.95865C52.5128 2.68029 52.382 3.38607 52.1361 4.07202L52.1322 4.07599Z" fill="white"/>
  </svg>
  <!-- 점(닷) -->
  <svg x="47.15" y="23.06" width="34.6587" height="3.562" viewBox="0 0 34.6587 3.56207">
    <path d="M0.00016276 0.0638021H0.820928C0.927985 0.0638021 1.04297 0.0677675 1.16589 0.0796627C1.2888 0.0915578 1.39586 0.103453 1.47913 0.123278C1.6298 0.158964 1.77254 0.222404 1.90339 0.317565C2.03423 0.412726 2.14922 0.523748 2.25628 0.65063C2.3554 0.785441 2.43867 0.944044 2.50211 1.13437C2.56555 1.32469 2.59727 1.54277 2.59727 1.7886C2.59727 2.03443 2.56555 2.24062 2.50211 2.43094C2.43867 2.62126 2.3554 2.78383 2.25628 2.91864C2.14922 3.04948 2.03423 3.16051 1.90339 3.25567C1.77254 3.35083 1.63376 3.41427 1.47913 3.44599C1.38793 3.46582 1.28484 3.47771 1.16192 3.48961C1.039 3.49754 0.927985 3.50547 0.820928 3.50547H0.00016276V0.0638021Z" fill="white"/>
    <path d="M3.20826 3.50547H2.66108L3.87836 0.0638021H4.40571L5.63487 3.50547H5.08373L4.73481 2.47059H3.56115L3.2043 3.50547H3.20826ZM4.58413 2.0265L4.15591 0.753722L3.71579 2.0265H4.58413Z" fill="white"/>
  </svg>
</svg>
