<svg preserveAspectRatio="none" width="100%" height="100%" overflow="visible" style="display: block;" viewBox="0 0 29.068 29.0678" fill="none" xmlns="http://www.w3.org/2000/svg">
<g id="Group">
<path id="Vector" d="M14.6826 3.78478e-05V9.15534H20.9791V10.5629H14.6826V13.6795H13.275V0.0555486C8.89758 0.396543 5.0713 2.68834 2.66451 6.07053H12.0974V7.47813H3.31082V12.2362H12.1013V13.6438H1.90323V7.26401C0.697849 9.36549 0 11.8 0 14.4011V29.0678H4.59946L17.47 16.1973H12.0974V14.7897H20.8641L17.1528 18.501L19.401 20.7492C19.401 20.7492 19.3772 20.7492 19.3613 20.7492C18.7825 20.7492 18.2313 20.8602 17.7198 21.0584L16.1576 19.4962L6.58595 29.0678H14.6667C15.6739 29.0678 16.6572 28.9608 17.6048 28.7665C16.4748 28.1004 15.7175 26.8791 15.7175 25.4755C15.7175 23.3701 17.4304 21.6572 19.5358 21.6572C20.4557 21.6572 21.3042 21.9863 21.9624 22.5295V19.2028H19.401V17.7952H21.9624V6.77235H20.9791V6.09432C20.9791 6.09432 22.462 5.94762 22.462 4.81361H23.37V26.1178C26.8275 23.489 29.0678 19.3416 29.0678 14.6668V3.78478e-05H14.6826Z" fill="var(--fill-0, white)"/>
<path id="Vector_2" d="M19.5362 23.0645C18.2039 23.0645 17.1215 24.147 17.1215 25.4752C17.1215 26.8035 18.2039 27.886 19.5362 27.886C20.8685 27.886 21.9469 26.8035 21.9469 25.4752C21.9469 24.147 20.8645 23.0645 19.5362 23.0645Z" fill="var(--fill-0, white)"/>
</g>
</svg>
