<svg preserveAspectRatio="none" width="100%" height="100%" overflow="visible" style="display: block;" viewBox="0 0 58.8134 16.221" fill="none" xmlns="http://www.w3.org/2000/svg">
<g id="Group">
<path id="Vector" d="M7.83098 10.5034H0V2.04598H6.69697V3.36634H1.53844V9.18307H7.83098V10.5034ZM13.8856 6.86748H11.0942V15.4082H9.55578V1.15189e-05H11.0942V5.46385H13.8856V6.86748Z" fill="var(--fill-0, white)"/>
<path id="Vector_2" d="M20.4987 4.90478L23.6787 7.71204L22.628 8.75881L19.6185 5.98327C18.6035 7.07763 17.2831 8.12044 15.6614 9.1117L14.6463 8.08079C17.5567 6.31237 19.4163 4.44087 20.2291 2.46627H15.5623V1.16574H22.0729C21.8825 2.4742 21.3552 3.71923 20.4987 4.90478ZM26.8944 12.9063C26.8944 13.8103 26.5415 14.5874 25.8357 15.2417C25.1299 15.8959 24.1823 16.221 22.9848 16.221C21.7874 16.221 20.8715 15.8919 20.1697 15.2417C19.4639 14.5874 19.111 13.8103 19.111 12.9063C19.111 12.0022 19.4639 11.2251 20.1697 10.5708C20.8754 9.91661 21.8112 9.59147 22.9848 9.59147C24.1585 9.59147 25.118 9.92057 25.8278 10.5708C26.5375 11.2251 26.8944 12.0022 26.8944 12.9063ZM25.3401 12.9063C25.3401 12.3749 25.1379 11.911 24.7295 11.5106C24.325 11.1101 23.7422 10.9118 22.9888 10.9118C22.2354 10.9118 21.6724 11.1141 21.2719 11.5106C20.8715 11.911 20.6692 12.3749 20.6692 12.9063C20.6692 13.4376 20.8715 13.9015 21.2719 14.302C21.6724 14.7024 22.2434 14.9007 22.9888 14.9007C23.7342 14.9007 24.325 14.6985 24.7295 14.302C25.1339 13.9015 25.3401 13.4376 25.3401 12.9063ZM27.049 9.59147H25.5106V5.26164H22.3465V3.94127H25.5106V1.15189e-05H27.049V9.59147Z" fill="var(--fill-0, white)"/>
<path id="Vector_3" d="M35.5182 11.0932V9.24947H29.0393V7.91324H43.5871V9.24947H37.1082V11.0932H40.2525V16.1685H38.7141V12.4136H32.0488V11.0932H35.5182ZM40.3199 6.69597H32.2352V0.43912H33.7895V2.33441H38.7775V0.43912H40.3159V6.69597H40.3199ZM38.7815 5.37561V3.61513H33.7934V5.37561H38.7815Z" fill="var(--fill-0, white)"/>
<path id="Vector_4" d="M44.2655 12.0576H58.8133V13.3939H44.2655V12.0576ZM52.1322 4.07599L57.2074 8.52477L56.2082 9.59137L51.4898 5.43203C50.566 6.95461 49.0315 8.38203 46.8904 9.71033L45.911 8.64373C49.1267 6.63741 50.8039 4.39319 50.9506 1.91107V1.30045H52.5247V1.95865C52.5128 2.68029 52.382 3.38607 52.1361 4.07202L52.1322 4.07599Z" fill="var(--fill-0, white)"/>
</g>
</svg>
