<svg viewBox="0 0 88.8 22.2087" fill="none" xmlns="http://www.w3.org/2000/svg">
  <!-- L1 아이콘 -->
  <svg x="0" y="0" width="22.7987" height="22.2087" viewBox="0 0 22.7987 22.2087">
    <path d="M4.95914 0V17.8234H16.0578V22.2087H0V0H4.95914Z" fill="white"/>
    <path d="M22.7987 22.2087H17.8618V4.30373H13.9346V0H22.7912V22.2087H22.7987Z" fill="white"/>
  </svg>
  <!-- 이하나영어 텍스트 (상단) -->
  <svg x="26.8" y="5.16" width="61.9893" height="11.8872" viewBox="0 0 61.9893 11.8872">
    <path d="M7.36446 5.7581C7.36446 9.60919 5.89454 11.3381 3.68965 11.3381C1.48477 11.3381 0 9.60919 0 5.7581C0 1.907 1.48477 0.178085 3.68965 0.178085C5.89454 0.178085 7.36446 1.907 7.36446 5.7581ZM2.28655 5.7581C2.28655 8.39228 2.90273 9.21592 3.68223 9.21592C4.46174 9.21592 5.07049 8.39228 5.07049 5.7581C5.07049 3.12392 4.45431 2.30027 3.68223 2.30027C2.91015 2.30027 2.28655 3.13876 2.28655 5.7581ZM10.9799 11.7536H8.66364V0.0445214H10.9799V11.7536Z" fill="white"/>
    <path d="M17.4089 1.45436H20.0147V3.56171H12.4201V1.45436H15.0407V0H17.4164V1.45436H17.4089ZM19.6138 7.69478C19.6138 9.77986 18.3221 11.3455 16.2137 11.3455C14.1053 11.3455 12.8136 9.77986 12.8136 7.69478C12.8136 5.60969 14.1053 4.05144 16.2137 4.05144C18.3221 4.05144 19.6138 5.62453 19.6138 7.69478ZM17.4089 7.69478C17.4089 6.69305 16.9709 6.03264 16.2137 6.03264C15.4565 6.03264 15.0185 6.69305 15.0185 7.69478C15.0185 8.69651 15.4565 9.35691 16.2137 9.35691C16.9709 9.35691 17.4089 8.69651 17.4089 7.69478ZM24.5358 6.5669H23.1624V11.7536H20.8462V0.0445214H23.1624V4.32599H24.5358V6.57432V6.5669Z" fill="white"/>
    <path d="M32.7986 11.2045H25.4638V0.252288H27.8395V9.08236H32.806M37.4385 6.5669H36.0651V11.7536H33.7488V0.0445214H36.0651V4.32599H37.4385V6.57432V6.5669Z" fill="white"/>
    <path d="M41.826 6.22557C39.5914 6.22557 38.0918 5.00865 38.0918 3.13876C38.0918 1.26886 39.5914 0.0519416 41.826 0.0519416C44.0606 0.0519416 45.5602 1.2837 45.5602 3.13876C45.5602 4.99381 44.068 6.22557 41.826 6.22557ZM49.6136 9.26786C49.6136 11.212 47.2825 11.8872 44.3353 11.8872C41.388 11.8872 39.0569 11.2194 39.0569 9.26786C39.0569 7.31634 41.388 6.64852 44.3353 6.64852C47.2825 6.64852 49.6136 7.31634 49.6136 9.26786ZM41.826 4.34825C42.7169 4.34825 43.2514 3.88078 43.2514 3.14618C43.2514 2.41157 42.7169 1.93668 41.826 1.93668C40.9351 1.93668 40.4006 2.40415 40.4006 3.14618C40.4006 3.8882 40.9351 4.34825 41.826 4.34825ZM47.1192 9.26786C47.1192 8.71877 45.872 8.49616 44.3353 8.49616C42.7985 8.49616 41.5513 8.71877 41.5513 9.26786C41.5513 9.81696 42.7985 10.0396 44.3353 10.0396C45.872 10.0396 47.1192 9.8318 47.1192 9.26786ZM47.2306 3.58397V2.64902H45.9388L45.7978 0.675241H47.2232V0.0445214H49.5023V6.48528H47.2232V5.55775H45.7978L45.9388 3.58397H47.2306Z" fill="white"/>
    <path d="M61.9892 0.0445214V11.7536H59.673V6.62626H58.1214C57.9135 9.87632 56.5401 11.3455 54.5282 11.3455C52.3456 11.3455 50.8905 9.61661 50.8905 5.76552C50.8905 1.91442 52.3456 0.185506 54.5282 0.185506C56.451 0.185506 57.7947 1.51373 58.0917 4.45956H59.673V0.0445214H61.9892ZM55.8645 5.7581C55.8645 3.13876 55.2929 2.30027 54.5357 2.30027C53.7784 2.30027 53.1919 3.13876 53.1919 5.7581C53.1919 8.37744 53.771 9.21592 54.5357 9.21592C55.3003 9.21592 55.8645 8.39228 55.8645 5.7581Z" fill="white"/>
  </svg>
  <!-- LEE HA NA ENGLISH 서브텍스트 -->
  <svg x="26.8" y="17.82" width="61.9892" height="4.38535" viewBox="0 0 61.9892 4.38535">
    <path d="M0 4.28147V0.118725H1.00964V3.40589H2.62062V4.28147H0Z" fill="white"/>
    <path d="M3.36301 4.28147V0.118725H6.1618V0.964632H4.33553V1.75118H6.06529V2.55256H4.33553V3.41331H6.26573V4.27405H3.36301V4.28147Z" fill="white"/>
    <path d="M7.26795 4.28147V0.118725H10.0667V0.964632H8.24048V1.75118H9.97024V2.55256H8.24048V3.41331H10.1707V4.27405H7.26795V4.28147Z" fill="white"/>
    <path d="M15.5233 4.28147V2.54514H13.8975V4.28147H12.8952V0.118725H13.8975V1.69181H15.5233V0.118725H16.5255V4.28147H15.5233Z" fill="white"/>
    <path d="M20.5418 4.28147L20.2226 3.46525H18.6116L18.3072 4.28147H17.2159L18.9605 0.118725H19.9331L21.6628 4.28147H20.5418ZM19.4282 1.23176L18.9011 2.65644H19.9479L19.4282 1.23176Z" fill="white"/>
    <path d="M26.711 4.28147L25.0332 1.55825H25.0184L25.0407 4.28147H24.0681V0.118725H25.2114L26.8818 2.83453H26.8966L26.8744 0.118725H27.8543V4.28147H26.711Z" fill="white"/>
    <path d="M31.8632 4.28147L31.5365 3.46525H29.9256L29.6212 4.28147H28.5299L30.2745 0.118725H31.247L32.9768 4.28147H31.8632ZM30.7496 1.23176L30.2225 2.65644H31.2693L30.7496 1.23176Z" fill="white"/>
    <path d="M35.3821 4.28147V0.118725H38.1809V0.964632H36.3546V1.75118H38.0844V2.55256H36.3546V3.41331H38.2923V4.27405H35.3895L35.3821 4.28147Z" fill="white"/>
    <path d="M41.9374 4.28147L40.2596 1.55825H40.2447L40.267 4.28147H39.2945V0.118725H40.4378L42.1081 2.83453H42.123L42.1007 0.118725H43.0732V4.28147H41.9299H41.9374Z" fill="white"/>
    <path d="M49.0569 4.28147V0.118725H50.0665V3.40589H51.6775V4.28147H49.0569Z" fill="white"/>
    <path d="M52.4199 4.28147V0.118725H53.4295V4.28147H52.4199Z" fill="white"/>
    <path d="M60.987 4.28147V2.54514H59.3612V4.28147H58.3589V0.118725H59.3612V1.69181H60.987V0.118725H61.9892V4.28147H60.987Z" fill="white"/>
  </svg>
</svg>
