<svg preserveAspectRatio="none" width="100%" height="100%" overflow="visible" style="display: block;" viewBox="0 0 61.9892 4.38535" fill="none" xmlns="http://www.w3.org/2000/svg">
<g id="Group">
<path id="Vector" d="M0 4.28147V0.118725H1.00964V3.40589H2.62062V4.28147H0Z" fill="var(--fill-0, white)"/>
<path id="Vector_2" d="M3.36301 4.28147V0.118725H6.1618V0.964632H4.33553V1.75118H6.06529V2.55256H4.33553V3.41331H6.26573V4.27405H3.36301V4.28147Z" fill="var(--fill-0, white)"/>
<path id="Vector_3" d="M7.26795 4.28147V0.118725H10.0667V0.964632H8.24048V1.75118H9.97024V2.55256H8.24048V3.41331H10.1707V4.27405H7.26795V4.28147Z" fill="var(--fill-0, white)"/>
<path id="Vector_4" d="M15.5233 4.28147V2.54514H13.8975V4.28147H12.8952V0.118725H13.8975V1.69181H15.5233V0.118725H16.5255V4.28147H15.5233Z" fill="var(--fill-0, white)"/>
<path id="Vector_5" d="M20.5418 4.28147L20.2226 3.46525H18.6116L18.3072 4.28147H17.2159L18.9605 0.118725H19.9331L21.6628 4.28147H20.5418ZM19.4282 1.23176L18.9011 2.65644H19.9479L19.4282 1.23176Z" fill="var(--fill-0, white)"/>
<path id="Vector_6" d="M26.711 4.28147L25.0332 1.55825H25.0184L25.0407 4.28147H24.0681V0.118725H25.2114L26.8818 2.83453H26.8966L26.8744 0.118725H27.8543V4.28147H26.711Z" fill="var(--fill-0, white)"/>
<path id="Vector_7" d="M31.8632 4.28147L31.5365 3.46525H29.9256L29.6212 4.28147H28.5299L30.2745 0.118725H31.247L32.9768 4.28147H31.8632ZM30.7496 1.23176L30.2225 2.65644H31.2693L30.7496 1.23176Z" fill="var(--fill-0, white)"/>
<path id="Vector_8" d="M35.3821 4.28147V0.118725H38.1809V0.964632H36.3546V1.75118H38.0844V2.55256H36.3546V3.41331H38.2923V4.27405H35.3895L35.3821 4.28147Z" fill="var(--fill-0, white)"/>
<path id="Vector_9" d="M41.9374 4.28147L40.2596 1.55825H40.2447L40.267 4.28147H39.2945V0.118725H40.4378L42.1081 2.83453H42.123L42.1007 0.118725H43.0732V4.28147H41.9299H41.9374Z" fill="var(--fill-0, white)"/>
<path id="Vector_10" d="M47.2157 4.28889C46.941 4.35567 46.6441 4.38535 46.3249 4.38535C46.0056 4.38535 45.6864 4.33341 45.4043 4.22953C45.1222 4.12565 44.8846 3.97724 44.6842 3.78432C44.4837 3.59139 44.3204 3.36136 44.2091 3.09424C44.0977 2.82711 44.0383 2.52288 44.0383 2.19639C44.0383 1.8699 44.0977 1.56567 44.2091 1.29112C44.3278 1.02399 44.4837 0.793965 44.6916 0.601039C44.8921 0.415534 45.137 0.267129 45.4117 0.163246C45.6864 0.0593629 45.9834 0.00742196 46.2952 0.00742196C46.607 0.00742196 46.9336 0.0593641 47.2157 0.155827C47.4978 0.25971 47.728 0.393274 47.8987 0.556518L47.2677 1.2837C47.1712 1.16498 47.0376 1.07593 46.8817 1.00173C46.7183 0.92753 46.5402 0.890429 46.3323 0.890429C46.1541 0.890429 45.9908 0.920109 45.8423 0.986891C45.6938 1.05367 45.5676 1.14272 45.4563 1.26144C45.3449 1.38016 45.2633 1.51373 45.2039 1.66955C45.1445 1.82538 45.1148 2.00346 45.1148 2.18897C45.1148 2.37447 45.1445 2.55998 45.1964 2.7158C45.2484 2.87905 45.3301 3.02003 45.4414 3.13134C45.5528 3.24264 45.679 3.3391 45.8423 3.39846C45.9982 3.46525 46.1838 3.49493 46.3843 3.49493C46.503 3.49493 46.6144 3.48751 46.7183 3.47267C46.8223 3.45041 46.9262 3.42815 47.0153 3.38362V2.62676H46.2209V1.81796H47.9358V4.02176C47.7354 4.12565 47.4978 4.21469 47.2232 4.28147L47.2157 4.28889Z" fill="var(--fill-0, white)"/>
<path id="Vector_11" d="M49.0569 4.28147V0.118725H50.0665V3.40589H51.6775V4.28147H49.0569Z" fill="var(--fill-0, white)"/>
<path id="Vector_12" d="M52.4199 4.28147V0.118725H53.4295V4.28147H52.4199Z" fill="var(--fill-0, white)"/>
<path id="Vector_13" d="M56.7925 1.20208C56.7034 1.09078 56.5921 1.00915 56.451 0.942371C56.31 0.875588 56.1763 0.845907 56.0501 0.845907C55.9833 0.845907 55.9165 0.845907 55.8497 0.860748C55.7829 0.875588 55.7235 0.897849 55.6641 0.92753C55.6047 0.964631 55.5601 1.00915 55.523 1.06109C55.4859 1.11304 55.4636 1.17982 55.4636 1.26144C55.4636 1.33564 55.4785 1.395 55.5082 1.43953C55.5379 1.48405 55.5824 1.52857 55.6418 1.56567C55.6938 1.60277 55.768 1.63245 55.8423 1.66213C55.9239 1.69181 56.0056 1.72149 56.1095 1.75118C56.2506 1.7957 56.399 1.84764 56.5475 1.907C56.7034 1.95894 56.837 2.04056 56.9633 2.12961C57.0895 2.22607 57.1934 2.33737 57.2751 2.47836C57.3567 2.61934 57.4013 2.79001 57.4013 2.99777C57.4013 3.23522 57.3567 3.44299 57.2676 3.61365C57.1785 3.79174 57.0598 3.93272 56.9113 4.04402C56.7628 4.15533 56.5921 4.24437 56.399 4.29631C56.206 4.34825 56.013 4.37793 55.8051 4.37793C55.5082 4.37793 55.2186 4.32599 54.9365 4.22211C54.6544 4.11823 54.4243 3.96982 54.2461 3.78432L54.9068 3.10908C55.0108 3.23522 55.1444 3.3391 55.3077 3.42073C55.4711 3.50977 55.6418 3.54687 55.8051 3.54687C55.8794 3.54687 55.9536 3.54687 56.0204 3.52461C56.0872 3.50977 56.1541 3.48751 56.206 3.45041C56.258 3.4133 56.3025 3.36878 56.3322 3.30942C56.3619 3.25006 56.3768 3.18328 56.3768 3.09424C56.3768 3.00519 56.3545 2.94583 56.3174 2.89389C56.2803 2.84195 56.2209 2.79001 56.1466 2.74549C56.0724 2.70096 55.9833 2.65644 55.8794 2.61934C55.7754 2.58224 55.6492 2.54514 55.5082 2.50062C55.3745 2.4561 55.2483 2.41157 55.1147 2.35221C54.9885 2.29285 54.8697 2.21865 54.7732 2.12219C54.6693 2.03314 54.595 1.92184 54.5282 1.78828C54.4688 1.65471 54.4391 1.49889 54.4391 1.30596C54.4391 1.07593 54.4837 0.875589 54.5802 0.712344C54.6767 0.549099 54.7955 0.415534 54.9514 0.304231C55.0999 0.200348 55.278 0.118725 55.4711 0.0742041C55.6641 0.0222625 55.8571 1.56811e-06 56.0501 1.56811e-06C56.2877 1.56811e-06 56.5252 0.044523 56.7702 0.126145C57.0152 0.215188 57.2305 0.341332 57.4161 0.504577L56.7777 1.17982L56.7925 1.20208Z" fill="var(--fill-0, white)"/>
<path id="Vector_14" d="M60.987 4.28147V2.54514H59.3612V4.28147H58.3589V0.118725H59.3612V1.69181H60.987V0.118725H61.9892V4.28147H60.987Z" fill="var(--fill-0, white)"/>
</g>
</svg>
