<svg preserveAspectRatio="none" width="100%" height="100%" overflow="visible" style="display: block;" viewBox="0 0 77.0001 23.7978" fill="none" xmlns="http://www.w3.org/2000/svg">
<g id="Group 4">
<path id="Vector" d="M7.40913 23.5742H2.90877V4.33789L0 3.18535V0.0296149C1.4864 0.098218 3.05283 -0.0607124 4.53009 0.0273282C7.44457 0.201123 7.26277 1.79157 7.41141 4.22583L7.40913 23.5742Z" fill="var(--fill-0, white)"/>
<path id="Vector_2" d="M24.6148 1.45664L27.5224 7.21929L30.2951 1.45664H32.2709V11.6099H30.3774C30.3717 11.6099 30.2951 11.5333 30.2951 11.5276V5.6277L28.4394 9.5072C28.0255 10.247 27.248 10.3956 26.7038 9.68557L24.6971 5.68258V11.5276C24.6971 11.5333 24.6205 11.6099 24.6148 11.6099H22.7488C22.7431 11.6099 22.6665 11.5333 22.6665 11.5276V1.45664H24.6148Z" fill="var(--fill-0, white)"/>
<path id="Vector_3" d="M19.8674 13.5306L23.9836 20.1165V13.5306H25.9593V22.9429C25.9593 23.015 25.7752 23.3317 25.7135 23.4106C25.0915 24.2109 24.0465 23.6267 23.5868 22.9555L19.9223 17.2626V23.6838H17.9465V13.5306H19.8674Z" fill="var(--fill-0, white)"/>
<path id="Vector_4" d="M75.0242 7.98765V1.45664H77V10.869C77 10.893 76.8582 11.196 76.8262 11.244C76.2065 12.2033 74.9396 11.5001 74.5291 10.7055L70.9629 5.13376V11.5276C70.9629 11.5333 70.8863 11.6099 70.8806 11.6099H68.9872V1.45664H70.8806C72.2824 3.61992 73.5801 5.85409 75.0242 7.98765Z" fill="var(--fill-0, white)"/>
<path id="Vector_5" d="M38.7743 1.45664C39.8628 1.5664 40.7741 2.22842 41.036 3.3112C41.3435 4.58493 41.0268 5.55338 39.9555 6.31373C41.77 7.16098 41.6945 10.2881 40.0264 11.2154C38.9984 11.7871 35.9845 11.7551 34.9429 11.2154C34.3186 10.893 33.9184 10.0194 33.9184 9.33112V1.45664H38.7755H38.7743ZM35.893 5.40817H38.3902C38.4142 5.40817 38.7172 5.26639 38.7652 5.23438C39.3209 4.87078 39.2957 3.66908 38.6954 3.34665C38.6451 3.31921 38.365 3.21287 38.3353 3.21287H35.893V5.40817ZM35.9753 7.16441C35.957 7.19185 35.893 7.23187 35.893 7.24673V8.94809C35.893 8.96638 35.9731 9.24651 35.9902 9.28996C36.0977 9.55637 36.3641 9.73931 36.6465 9.78619C37.0021 9.84564 38.0734 9.84107 38.445 9.79991C39.4535 9.68671 39.5244 8.02995 39.0213 7.46626C38.9093 7.34049 38.4885 7.16441 38.3353 7.16441H35.9753Z" fill="var(--fill-0, white)"/>
<path id="Vector_6" d="M51.5895 3.18532C51.6627 2.49472 52.0388 1.85442 52.7123 1.61889C53.436 1.3662 55.6496 1.38106 56.4214 1.53656C59.3565 2.12884 59.7544 6.37422 57.024 7.51989L59.2193 11.6098H56.9965L54.9659 7.82289H53.5664V11.6098H51.6729C51.6672 11.6098 51.5906 11.5332 51.5906 11.5275V3.18532H51.5895ZM53.5652 6.17642H55.7331C55.7548 6.17642 56.0807 6.04721 56.1287 6.0232C57.1783 5.48238 57.1235 3.63124 55.9378 3.28365C55.5364 3.16589 54.2055 3.13501 53.8671 3.37741C53.7425 3.4666 53.5652 3.75702 53.5652 3.8988V6.17642Z" fill="var(--fill-0, white)"/>
<path id="Vector_7" d="M57.3522 13.5306V17.8114H61.0293V13.5306H63.005V23.6838H61.0293V19.5677H57.3522V23.6838H55.4038C55.3981 23.6838 55.3215 23.6072 55.3215 23.6015V13.6129C55.3215 13.6072 55.3981 13.5306 55.4038 13.5306H57.3522Z" fill="var(--fill-0, white)"/>
<path id="Vector_8" d="M45.9253 1.36283C50.1078 1.13644 50.4817 4.39851 50.2747 7.74291C50.1398 9.9222 49.1519 11.4921 46.8411 11.6636C43.9598 11.8774 42.454 10.6231 42.2596 7.73948C42.0583 4.74725 42.2264 1.56292 45.9253 1.36283ZM45.7583 3.17166C45.1569 3.25284 44.7247 3.6153 44.5086 4.17212C44.1107 5.19088 44.0787 8.06535 44.5898 9.03265C45.2209 10.2286 47.4117 10.2046 47.9776 8.95833C48.4487 7.92242 48.4476 4.96106 47.9136 3.95259C47.4963 3.16366 46.5747 3.0619 45.7583 3.17281V3.17166Z" fill="var(--fill-0, white)"/>
<path id="Vector_9" d="M34.576 16.9334H32.7923C32.6791 16.9334 32.7168 16.5355 32.6962 16.4257C32.559 15.7226 32.0445 15.3315 31.3505 15.2469C30.3352 15.1234 29.5051 15.4642 29.2249 16.4932C28.9608 17.4616 28.9391 19.9428 29.2981 20.8666C29.5771 21.587 30.1133 21.9026 30.8794 21.9746C31.9336 22.0752 33.061 21.4704 32.8758 20.2801H31.6683V18.5787H34.5771V21.7345C34.5771 21.9471 33.8671 22.7532 33.6704 22.9133C32.3166 24.0121 29.5245 24.0807 28.2108 22.8881C26.8707 21.6716 26.849 18.9698 26.9462 17.2867C27.1017 14.602 28.9139 13.1465 31.5792 13.4815C33.4006 13.7102 34.7509 15.0205 34.5771 16.9323L34.576 16.9334Z" fill="var(--fill-0, white)"/>
<path id="Vector_10" d="M11.8546 1.45664V7.05464C12.3292 6.46809 12.7556 5.80607 13.1844 5.17378C14.0168 3.94464 14.8583 2.71779 15.6415 1.45664H17.6722L14.4901 6.20282L17.8917 11.6099H15.669L13.253 7.823L11.8546 9.66156V11.6099H9.9612C9.95549 11.6099 9.87888 11.5333 9.87888 11.5276V1.45664H11.8546Z" fill="var(--fill-0, white)"/>
<path id="Vector_11" d="M54.0591 16.3297L52.3372 16.4349C52.1508 16.1376 52.1131 15.8129 51.8364 15.5613C51.0715 14.8684 48.9013 15.1303 48.7904 16.3022C48.6475 17.8161 50.8451 17.5977 51.8204 17.7726C53.6715 18.1065 54.5165 19.2361 54.3335 21.1319C54.0054 24.5277 47.7328 24.6409 46.8558 21.3663C46.8169 21.2222 46.69 20.6254 46.7117 20.5327C46.7323 20.447 47.3498 20.3967 47.4984 20.3887C47.8323 20.3704 48.1753 20.399 48.508 20.399C48.6475 21.7619 50.2242 22.1758 51.3813 21.9128C52.7042 21.6132 52.7865 19.9851 51.5231 19.6066C50.4815 19.2945 49.361 19.5426 48.2942 18.9937C46.5174 18.0813 46.3699 15.5819 47.8563 14.3253C49.7783 12.7017 54.0466 13.2871 54.0591 16.3297Z" fill="var(--fill-0, white)"/>
<path id="Vector_12" d="M16.5745 13.5306V15.2868H11.937C11.9313 15.2868 11.8546 15.3634 11.8546 15.3692V17.6468H15.1476L15.0378 19.4579H11.8546C11.9164 20.0582 11.65 21.3662 12.2411 21.7332C12.2948 21.7664 12.5567 21.8727 12.5956 21.8727H16.4922C16.4979 21.8727 16.5745 21.9493 16.5745 21.9551V23.6838C14.9784 23.5089 12.0376 24.1023 10.6953 23.1693C10.2265 22.8435 9.87888 22.0179 9.87888 21.4611V13.5306H16.5745Z" fill="var(--fill-0, white)"/>
<path id="Vector_13" d="M68.1091 11.6097H66.0784L65.5353 9.88552C64.4159 9.82606 63.2565 9.84207 62.1235 9.87752L61.5781 11.6097H59.5474L59.5737 11.3342C60.7617 8.46772 61.4957 5.22394 62.7032 2.38949C62.9295 1.85896 63.1662 1.48279 63.7974 1.45306C64.353 1.42791 64.5863 1.5937 64.8253 2.07621L68.0702 11.2896L68.1079 11.6086L68.1091 11.6097ZM65.0357 8.15215L63.8557 4.20062L62.6757 8.15215H65.0357Z" fill="var(--fill-0, white)"/>
<path id="Vector_14" d="M38.1982 13.5306V21.1318C38.1982 21.2027 38.3548 21.5606 38.4166 21.6269C38.4738 21.6875 38.8282 21.8727 38.8842 21.8727H42.3967C42.4024 21.8727 42.479 21.9493 42.479 21.9551V23.6838C40.9492 23.5501 37.9718 24.1126 36.8261 22.8881C36.5883 22.6342 36.2224 21.8487 36.2224 21.516V13.5306H38.1982Z" fill="var(--fill-0, white)"/>
<path id="Vector_15" d="M45.6073 13.5306H43.5766V23.6838H45.6073V13.5306Z" fill="var(--fill-0, white)"/>
<path id="Vector_16" d="M20.9102 1.45664V11.5276C20.9102 11.5333 20.8336 11.6099 20.8279 11.6099H18.9344V1.45664H20.9102Z" fill="var(--fill-0, white)"/>
</g>
</svg>
