<svg preserveAspectRatio="none" width="100%" height="100%" overflow="visible" style="display: block;" viewBox="0 0 74.494 33" fill="none" xmlns="http://www.w3.org/2000/svg">
<g id="Group 8">
<path id="Vector" fill-rule="evenodd" clip-rule="evenodd" d="M11.8571 6.89323C10.684 4.52049 8.0925 4.67956 5.96499 4.9049C4.94431 5.01757 3.47958 4.97781 2.48541 5.43512C2.39262 5.48152 0.0530221 6.39615 0 7.81449C0.1193 8.33809 1.08695 9.77631 3.294 9.41178C3.6519 9.35213 3.95015 9.30574 4.21526 9.25934C4.57979 9.21295 4.95094 9.14004 5.31547 9.08039C5.71313 9.01412 5.81918 9.00086 5.82581 9.00086C6.00476 8.97435 6.17708 8.95447 6.3494 8.94121C6.59463 8.92133 6.99892 8.71587 7.52251 8.84842C5.43477 12.3744 1.00742 15.1448 0.417549 19.6915C0.404294 19.7842 0.397666 19.877 0.391038 19.9698C0.391038 19.9764 0.391038 19.9897 0.391038 19.9963C0.0994165 23.4892 2.25344 22.2166 2.25344 22.2166C2.78366 21.4346 3.30726 20.6922 3.8441 19.9963L3.89713 19.9234C3.89713 19.9234 3.93027 19.8837 3.94352 19.8638L7.54903 15.2774C7.68821 15.0653 7.84728 14.8664 8.0196 14.6742C8.55645 14.091 9.20597 13.6005 9.74282 13.0305C11.413 11.2808 13.0965 9.41841 11.8504 6.89323H11.8571Z" fill="var(--fill-0, white)"/>
<path id="Vector_2" fill-rule="evenodd" clip-rule="evenodd" d="M12.8054 17.1932C11.3009 15.3573 8.6564 14.0517 6.54877 15.649L6.76086 15.9207C7.22481 16.7028 9.82289 20.971 10.9562 21.435C11.4003 21.7001 11.9371 21.7399 12.5469 21.2826C13.8327 20.3215 14.1309 18.817 12.7988 17.1932H12.8054Z" fill="var(--fill-0, white)"/>
<path id="Vector_3" fill-rule="evenodd" clip-rule="evenodd" d="M29.095 11.2413C28.3726 10.963 27.6237 10.6846 26.8681 10.5984C26.656 10.5719 26.4506 10.5454 26.2517 10.5057C26.2517 10.5057 26.2517 10.5057 26.2451 10.5057C25.6221 10.4129 23.9917 10.6979 22.9047 10.2936C22.222 10.0417 22.2883 8.04013 22.4341 6.58865C22.4341 6.15122 22.507 5.66739 22.6197 5.1438C22.6263 5.09077 22.633 5.05764 22.633 5.05764C22.6529 4.96485 22.6727 4.86543 22.6992 4.76601C22.8384 3.99719 23.1234 3.22837 23.0903 2.46618C23.0439 1.28644 22.1094 0.689938 21.155 0.212739C20.3596 -0.191555 19.7101 -0.0126053 19.1004 0.689938C16.2769 3.95743 16.045 11.0823 18.9479 14.5221C20.0481 15.8278 20.0084 16.4309 18.9082 17.6173C16.6614 20.0364 15.2563 22.999 14.5338 26.2068C13.8446 29.2755 15.4816 32.6026 17.6489 32.9406C20.6844 33.4112 23.9917 31.0252 24.4954 27.8505C24.5948 27.2209 24.7605 26.4852 24.7539 25.8092C24.7539 25.8092 24.7539 25.8025 24.7539 25.7959C24.7539 25.7429 24.7539 25.6899 24.7472 25.6435C24.7472 25.5905 24.7472 25.5308 24.734 25.4778C24.734 25.4778 24.734 25.4778 24.734 25.4712C24.4225 22.5085 20.3663 22.2236 20.3596 22.2236C20.353 21.8922 20.4922 21.5475 20.7109 21.183C22.222 18.4855 23.6073 14.827 27.8755 15.1716C31.0105 15.4235 31.6136 14.595 31.713 14.1377C31.7925 12.4741 30.4471 11.7716 29.0884 11.248L29.095 11.2413ZM22.1425 27.1745C21.831 28.8712 20.5916 29.925 18.9082 30.0509C17.2777 30.1702 17.735 28.8049 17.7152 27.7511C17.735 27.1745 17.861 25.0006 18.9015 24.4969C19.1136 24.3312 19.3854 24.2185 19.7433 24.192C20.8501 24.1191 22.4673 25.3916 22.1425 27.1811V27.1745Z" fill="var(--fill-0, white)"/>
<path id="Vector_4" fill-rule="evenodd" clip-rule="evenodd" d="M42.5563 0.5907C40.8066 0.318962 39.1165 0.438262 37.4065 0.822672C36.704 0.981738 36.2401 1.27999 35.9219 1.96928C34.9344 4.11667 34.7687 6.39 34.7356 8.69646C34.7356 9.22668 34.7488 9.7569 34.7753 10.2805C34.7886 10.3932 34.7952 10.5125 34.8018 10.6516C34.8151 10.8571 34.835 11.0626 34.8549 11.268C35.279 13.7733 38.2549 13.4154 38.2549 13.4154C38.2549 13.4154 40.9259 13.6607 42.7618 13.2497C42.7618 13.2497 45.4527 13.3359 46.3673 9.64423C46.3673 9.6376 46.3673 9.63097 46.3673 9.61772C46.7848 8.31205 46.7915 6.87382 46.8776 5.5085C47.0566 2.59891 45.4725 1.04139 42.5563 0.5907ZM40.8132 10.1413C40.4288 10.1811 40.0179 10.1745 39.5738 10.1148C38.8713 10.0088 38.7785 9.45865 38.7188 8.83564C38.5929 7.60288 38.6592 6.37674 38.7056 5.08433C38.7056 5.03793 38.7056 4.99816 38.7056 4.95177C38.7321 4.64689 38.9111 3.93772 40.0113 4.18958C40.0113 4.18958 40.0179 4.18958 40.0245 4.18958C40.8464 4.47457 41.6417 4.59387 42.4768 4.52097C43.5173 4.42818 43.9084 4.96503 43.8355 6.12489C43.809 6.54243 43.7559 6.92684 43.6698 7.28474C43.6698 7.28474 43.6698 7.298 43.6565 7.31126C43.5505 7.7752 43.3914 8.17949 43.1926 8.53739C42.9672 9.12064 42.722 9.71713 42.6425 9.82981C42.4702 10.0552 40.7933 10.1413 40.7933 10.1413H40.8132Z" fill="var(--fill-0, white)"/>
<path id="Vector_5" fill-rule="evenodd" clip-rule="evenodd" d="M55.0032 15.3765C54.7978 15.012 54.3338 14.7668 53.4192 14.7867C53.2005 14.7867 52.9818 14.8066 52.7697 14.8264C50.7151 14.8463 50.6488 14.8662 48.793 14.8662C46.9306 14.7204 45.3068 14.959 43.683 15.1379C39.4611 15.5953 35.2459 16.0725 31.3023 17.8421C30.4606 18.2199 29.9238 18.7368 29.9436 19.6647C29.9635 20.3407 30.1027 21.0367 30.7522 21.3946C31.647 21.8916 32.0181 21.0101 32.5152 20.586C32.9063 20.248 34.7223 19.7641 36.3527 19.4526L34.5102 19.8635C34.5102 19.8635 36.5714 19.6515 39.3021 19.4062C39.6069 19.8171 39.3948 20.5793 39.3153 21.1626C39.1165 22.561 38.911 23.9529 39.0303 25.3778C39.1032 26.2792 39.3418 27.0679 40.4354 26.8956C41.3898 26.7432 42.3707 26.3322 42.543 25.2387C42.8678 23.1973 43.166 21.1294 43.2522 19.0682C46.7517 18.7832 48.3291 18.5115 49.8137 18.591C52.2792 18.7236 53.7174 18.9025 54.3405 18.6043C54.3471 18.6043 54.3603 18.5976 54.367 18.591C54.367 18.591 54.3802 18.591 54.3869 18.5844C56.3818 17.6764 55.0032 15.3765 55.0032 15.3765Z" fill="var(--fill-0, white)"/>
<path id="Vector_6" fill-rule="evenodd" clip-rule="evenodd" d="M50.3907 23.6681C49.7081 23.2108 49.3833 23.8669 49.032 24.2646C47.9053 25.5239 46.646 26.3987 45.2608 26.9289C45.2608 26.9289 45.2476 26.9356 45.2409 26.9422C44.9957 27.0416 42.7622 28.0358 40.4557 28.3407C38.8253 28.5594 37.957 26.6506 37.5859 25.5172C37.4798 25.2654 37.4069 24.9936 37.3672 24.702C37.281 24.0989 37.1219 23.509 36.9629 22.9191C36.6381 21.746 36.0615 22.0244 35.5048 22.7203C35.2529 23.0318 35.0872 23.4229 34.948 23.8073C34.325 25.5239 34.4775 27.1543 35.233 28.4732C35.233 28.4732 37.7317 33.4242 41.7017 32.715C45.1879 31.5949 49.1778 29.7855 50.4172 26.1469C50.5233 25.8818 50.6227 25.61 50.7089 25.3316C50.9011 24.6954 51.0071 24.0856 50.3974 23.6747L50.3907 23.6681Z" fill="var(--fill-0, white)"/>
<g id="Group">
<path id="Vector_7" d="M69.0391 19.5507H67.5611C67.6472 19.8689 67.74 20.187 67.8262 20.5051C68.7364 20.3151 69.1407 19.997 69.0391 19.5507Z" fill="var(--fill-0, white)"/>
<path id="Vector_8" d="M74.315 13.5794C74.4542 13.3342 74.3746 13.1486 74.4939 12.8238C74.4608 12.8371 74.4277 12.9365 74.4409 12.6515C74.4343 12.6382 74.421 12.6117 74.4078 12.5919C74.4078 12.5852 74.4078 12.5786 74.4078 12.572V12.5852C74.3945 12.6515 74.3746 12.7112 74.3547 12.731C74.2752 12.5919 74.2752 12.1345 74.2354 11.9821C74.2487 11.8098 74.2752 12.055 74.315 11.9622L74.2553 11.7302C74.3349 11.7104 74.3813 11.2796 74.4277 11.6772V11.3193C74.474 11.1072 74.4939 10.8156 74.4608 10.6367C74.4741 10.471 74.3746 10.2059 74.4343 10.3583L74.3879 9.79494H74.4078C74.4144 9.23158 74.2818 8.64833 74.421 8.01207C74.3945 7.80661 74.3746 7.59452 74.3349 7.24987L74.3879 7.17034C74.315 6.91186 74.2222 6.35513 74.0963 6.28222C74.1162 6.1099 73.9703 5.79839 73.745 5.5134C73.5263 5.22178 73.228 4.97655 73.0557 4.81086L72.9894 4.86388C72.7309 4.65842 72.4592 4.49272 72.0748 4.36017L72.0615 4.4397C71.7368 4.35354 71.2596 4.07517 70.7029 4.04866C70.7426 4.02215 70.8818 4.03541 70.9746 4.06855C70.8222 3.99564 70.6498 3.98239 70.4775 3.97576C70.3184 3.97576 70.1726 3.99564 70.0136 4.0089C69.7087 4.04866 69.4171 4.08843 69.1453 4.02878C69.0128 4.05529 68.9134 4.04866 68.8206 4.02878C68.8338 4.02878 68.8471 4.02878 68.8537 4.02878C68.8405 4.02878 68.8206 4.02878 68.8007 4.02878C68.741 4.01552 68.6814 4.00227 68.6151 3.98901C68.6681 4.0089 68.7278 4.02215 68.7742 4.02878C68.6681 4.02878 68.5157 4.04204 68.3633 4.06192L68.297 3.97576C68.297 3.97576 68.2771 3.97576 68.2638 3.97576C68.1114 3.94262 68.1445 4.01552 68.2241 4.07517C68.1445 4.08843 68.0783 4.10831 68.0252 4.1282C67.9059 3.99564 67.6276 4.17459 67.4619 4.02878C67.4354 4.04866 67.3757 4.05529 67.2962 4.06855C67.3227 4.08843 67.3492 4.10169 67.3823 4.11494C67.9391 4.42645 68.0981 4.97655 68.1777 5.54654C68.1976 5.67247 68.0385 5.87793 67.9059 5.96409C67.5149 6.21594 67.0841 6.4214 66.6864 6.66663C66.6069 6.71303 66.5605 6.87209 66.5605 6.97151C66.5605 7.11732 66.6334 7.26313 66.6931 7.46859C66.9449 7.42882 67.1901 7.38906 67.4354 7.35592C67.6938 7.32278 67.9523 7.28964 68.1777 7.46859C68.3434 7.60115 68.3831 7.74696 68.2837 7.94579C68.0716 8.38322 67.6938 8.56217 67.2697 8.72124C66.7726 8.90682 66.3683 9.21832 66.1297 9.70215C66.1429 9.73529 66.1562 9.76843 66.1695 9.80156C66.6003 9.68889 67.0311 9.60273 67.4552 9.46355C67.9722 9.29123 68.3367 9.39727 68.635 9.74854C68.8139 9.954 68.6615 10.1396 68.5753 10.3053C68.5356 10.3782 68.3765 10.4378 68.2771 10.4312C67.7137 10.3914 67.157 10.3053 66.5936 10.2854C66.0568 10.2655 65.8182 10.4643 65.6326 10.9681C65.5199 11.2729 65.4073 11.5778 65.2813 11.9291C65.5001 11.8827 65.679 11.8495 65.8513 11.8098C67.1172 11.5049 68.3831 11.1868 69.6557 10.8951C70.2986 10.7493 70.9547 10.6433 71.6109 10.5439C71.7103 10.5306 71.8428 10.6367 71.9422 10.7162C72.0881 10.8355 72.2206 10.9813 72.3465 11.1205C72.4526 11.2332 72.5454 11.3591 72.6448 11.4784C72.6315 11.5115 72.6183 11.5447 72.605 11.5712C72.4261 11.5911 72.2405 11.5977 72.0615 11.6242C71.7898 11.664 71.5114 11.6971 71.2463 11.7634C70.7294 11.8893 70.2124 12.0285 69.6954 12.1809C69.1188 12.3466 68.5488 12.5455 67.9722 12.7112C67.6276 12.8106 67.2763 12.9034 66.925 12.963C66.2159 13.0757 65.7387 13.5197 65.3476 14.0632C65.109 14.3946 64.9102 14.7591 64.6981 15.1104C64.5191 15.402 64.4993 15.7268 64.5722 16.0515C64.6186 16.2438 64.7047 16.3498 64.9102 16.204C65.4735 15.8063 66.0369 15.4153 66.6135 15.011C66.3815 14.7393 66.1893 14.5139 65.9971 14.2886C66.0767 14.2355 66.0966 14.2157 66.1032 14.2157C66.5472 14.335 66.9051 14.1825 67.2498 13.8909C67.6342 13.5595 68.0584 13.2679 68.4693 12.9763C68.5555 12.9166 68.6748 12.8702 68.7808 12.8702C68.9995 12.8702 69.2249 12.8967 69.4436 12.9034C69.6424 12.9034 69.7418 13.0492 69.6424 13.2215C69.5695 13.3408 69.4701 13.4468 69.3574 13.5396C68.867 13.9638 68.3699 14.3814 67.8861 14.7923C68.171 14.958 68.4494 15.1104 68.7211 15.2761C68.8736 15.3689 69.0128 15.4882 69.1586 15.6009C69.3044 15.7069 69.437 15.8328 69.3574 16.0317C69.2713 16.257 69.0724 16.3498 68.8537 16.3432C68.4892 16.3365 68.1578 16.2504 67.8595 15.9853C67.4818 15.6406 67.051 15.349 66.6069 15.011C66.2821 15.3623 65.9242 15.7202 65.6127 16.1046C65.4934 16.2504 65.5133 16.4956 65.4205 16.6679C65.2615 16.9728 65.0958 17.2909 64.8638 17.5494C64.6782 17.7549 64.1215 17.6356 63.9359 17.3837C63.5515 16.8601 63.3858 16.3233 63.6111 15.6406C63.7702 15.1568 63.9028 14.6796 64.1944 14.2621C64.3866 13.9903 64.6119 13.7451 64.8307 13.4733C64.6384 13.5529 64.4529 13.6589 64.254 13.7119C63.3063 13.9439 62.3519 14.0632 61.3908 13.7849C61.0197 13.6788 60.6419 13.5794 60.3503 13.2679C59.9791 12.8636 60.1183 12.2008 60.7546 12.1478C60.6949 12.4858 60.7347 12.5985 61.0727 12.6382C61.5433 12.6846 62.0404 12.7178 62.5043 12.6382C63.2002 12.5189 63.8763 12.2936 64.6451 12.0881C64.4595 12.002 64.3004 11.9821 64.2408 11.8959C64.1149 11.7236 64.0088 11.5182 63.9624 11.3127C63.8961 11.0144 63.8564 10.7029 63.8763 10.3981C63.8895 10.0998 63.9889 9.80156 64.0486 9.50994C64.1878 8.81403 64.3402 8.11811 64.4529 7.41557C64.5125 7.0179 64.3534 6.66 64.0353 6.40152C63.5714 6.01711 63.3195 5.54654 63.3792 4.93678C63.4057 4.68493 63.525 4.53912 63.8033 4.559C64.4131 4.6054 64.9632 4.38005 65.5199 4.18785C65.4404 4.14808 65.4404 4.11494 65.5928 4.06192C65.056 4.18785 65.1554 4.10831 64.6981 4.23424L64.718 4.16796C64.5523 4.16796 64.2938 4.26075 64.1944 4.20773C64.0088 4.14145 63.5581 4.14145 63.0279 4.13482C62.7628 4.13482 62.4844 4.1282 62.2127 4.12157C62.0669 4.12157 61.9211 4.12157 61.7819 4.12157C61.6427 4.1282 61.5035 4.14145 61.371 4.14808C61.6096 4.30052 60.8805 4.16796 60.8938 4.35354C60.8209 4.32703 60.675 4.35354 60.8209 4.26075C60.3437 4.49272 60.0454 4.53912 59.8267 4.86388C59.7472 4.86388 59.8797 4.73795 59.8134 4.75121C59.7869 4.78435 59.7008 4.88376 59.6411 4.89702C59.5815 4.91027 59.6809 4.81748 59.7339 4.75121C59.2965 5.10911 59.3826 5.26817 59.4555 5.38747C59.2236 5.53328 59.1507 5.65258 59.1175 5.85804C59.0314 5.90444 58.8988 6.01048 59.0778 5.73212C59.0181 5.79839 58.8458 6.03037 58.7265 6.26897C58.6006 6.50094 58.5475 6.73954 58.5939 6.76605C58.5409 6.80581 58.5144 7.01127 58.5144 7.05767C58.4216 7.45534 58.4083 7.4951 58.3951 7.89277L58.4216 7.7801C58.5409 7.94579 58.4415 8.10486 58.4614 8.40973H58.4481C58.3553 9.09902 58.4945 8.70136 58.3885 9.39064L58.468 9.35088C58.6469 9.41715 58.3619 9.96063 58.4282 10.3649L58.4746 10.2191C58.5343 10.4378 58.236 10.8289 58.2095 11.0476C58.1963 11.094 58.183 10.9747 58.1764 10.9084C58.0703 11.485 58.2824 10.9813 58.3089 11.4121C58.2493 11.4916 58.1631 11.3127 58.1499 11.5977C58.1035 11.7435 58.3421 12.4328 58.2294 12.8305C58.2758 12.7443 58.3156 12.6581 58.3553 12.857C58.3686 13.1618 58.1896 13.6854 58.3288 13.9572C58.3156 13.9969 58.3023 14.0102 58.2957 14.0102C58.3288 14.2422 58.3553 14.7658 58.4349 14.9116C58.1499 15.1303 58.574 16.3631 58.3089 16.3564L58.3222 17.0722L58.2957 17.0523C58.2758 17.5097 58.3421 17.6754 58.4017 17.8344C58.3818 17.9405 58.3553 17.8609 58.3487 17.8543C58.2957 18.5237 58.3089 18.59 58.4349 19.1533L58.3487 19.213C58.3951 19.3654 58.2161 20.1806 58.3156 20.8368C58.3089 20.8368 58.289 20.8169 58.2758 20.7639C58.3752 21.5062 58.0372 22.5335 58.3487 22.8052L58.4282 23.2957C58.4547 22.6661 58.5608 23.3885 58.6138 23.13C58.6337 23.3752 58.521 23.7729 58.5011 23.468L58.5144 23.4216C58.3553 23.309 58.4547 24.2037 58.3487 24.1904C58.3487 24.5019 58.3487 24.8068 58.3421 25.1183C58.3354 25.4232 58.3156 25.7215 58.3288 26.0595C58.3818 26.7156 58.5873 27.3585 58.9518 27.8887L58.9783 27.6965C58.9651 27.6965 59.2236 28.0544 59.2236 28.0544C59.2766 28.1539 59.2434 28.24 59.0579 27.9815C59.0976 28.1671 59.4489 28.3461 59.4688 28.3328C59.8797 28.7901 59.1904 28.2732 59.3296 28.3991L59.5218 28.5714L59.4887 28.5184C59.6809 28.6244 59.7206 28.5979 60.0255 28.8233C60.2111 28.9691 60.0852 28.9558 60.1647 29.0088C60.1647 29.0088 60.1846 29.0353 60.2906 29.0884C60.2906 29.0884 60.3171 29.1082 60.3702 29.1281C60.4166 29.1546 60.4828 29.1812 60.5425 29.2143C60.6684 29.2806 60.801 29.327 60.801 29.327L60.6286 29.1546C60.8739 29.2077 61.1058 29.3402 60.907 29.1546C61.0396 29.3071 61.5433 29.4661 62.0404 29.4728C62.5176 29.486 62.9484 29.4595 63.061 29.4927C63.3792 29.4198 63.6907 29.4198 64.0817 29.433C63.9823 29.4131 63.9293 29.3005 64.2607 29.3137C64.1414 29.5457 64.877 29.4131 65.1422 29.5788C64.8969 29.4728 66.0899 29.5523 65.7121 29.3932C65.9905 29.4131 65.732 29.4794 65.9375 29.5324C66.6003 29.4463 67.4022 29.5921 68.2241 29.5589C68.2373 29.5258 68.0981 29.4794 68.2771 29.4396L68.7145 29.5921C68.867 29.5788 68.867 29.4463 69.0989 29.5059C68.973 29.4264 68.8404 29.3601 68.7079 29.3203C67.8861 29.1082 67.3161 28.6244 67.0178 27.8225C67.5348 27.8887 68.0584 28.0213 68.5687 28.0014C68.7675 27.9948 69.1056 27.6435 69.1188 27.4314C69.1652 26.4571 69.1122 25.4696 69.1188 24.4953C69.1188 24.0181 68.9134 23.8591 68.4693 23.9253C68.3898 23.9386 68.3102 23.9386 68.2241 23.9518C67.0311 24.1573 66.7328 24.0513 66.4545 23.077L66.5406 22.0165C66.5605 21.2278 66.6268 20.4458 66.6135 19.6571C66.6003 18.9081 66.9515 18.3911 67.6938 18.2255C67.9855 18.1592 68.2771 18.1128 68.5687 18.0465C69.1917 17.9073 69.8346 17.5892 70.2654 18.411C70.9149 19.6372 70.8884 20.068 70.1925 20.9428C70.0003 21.1881 69.934 21.6056 69.9605 21.9304C70.1262 24.0181 70.3383 26.0992 70.5173 28.1804C70.5438 28.525 70.5703 28.8962 70.4974 29.2275C70.4775 29.327 70.451 29.4131 70.4245 29.4927C70.8487 29.4927 71.2795 29.4065 71.6838 29.2607C72.5255 28.9558 73.228 28.3792 73.8113 27.6767C73.6323 27.8556 73.7119 27.7098 73.8113 27.5507C73.7384 27.6501 73.7516 27.511 73.6986 27.511C73.6986 27.511 73.7317 27.4778 73.7715 27.4182C73.8113 27.3585 73.8643 27.2856 73.9173 27.2061C74.0167 27.047 74.1029 26.8813 74.1029 26.8813C74.0764 26.8018 74.1162 26.6096 74.1625 26.424C74.1891 26.2384 74.2222 26.0528 74.1625 26.0131C74.1692 26.0131 74.1493 26.2451 74.1493 26.2451C74.1095 26.086 74.0234 26.1854 73.9306 26.2981C73.9239 26.3113 73.9107 26.318 73.9041 26.3312C73.9438 26.1125 73.9703 25.8872 73.9703 25.6618V16.0118C73.9703 16.0118 73.9703 16.0383 73.9703 16.0515L74.0101 16.0383C74.0101 15.8991 73.9836 15.7931 73.9703 15.8792V15.4948C74.03 15.7334 74.2421 15.5677 74.368 15.3424C74.3415 15.3357 74.3084 15.3357 74.2686 15.064C74.2288 15.1568 74.1824 15.6671 74.1228 15.4352C74.0896 15.0773 74.1493 15.1369 74.1824 14.9646C74.1095 15.0971 74.0698 14.6398 73.9703 14.5868V12.3996C73.9703 12.3996 73.9902 12.4129 74.0035 12.3864L73.9902 12.1809C74.0631 11.9954 74.0963 12.5653 74.1294 12.3069C74.1824 12.5786 74.262 12.8835 74.2222 13.2679L74.1161 13.3408C74.1161 13.3408 74.1758 13.0889 74.1493 12.9829C74.1957 13.142 74.0035 13.5728 74.1493 13.7451L74.2222 13.4733C74.2752 13.7451 74.3879 14.0831 74.3547 14.4277C74.4608 14.2753 74.3415 14.3482 74.4608 14.1096C74.3084 14.3151 74.4608 13.2414 74.3084 13.5794H74.315ZM74.3879 11.0542C74.421 10.8488 74.4078 10.915 74.3879 11.0542ZM70.0931 4.42645H69.4436C69.6358 4.3204 69.8611 4.22099 70.0997 4.18122L70.1991 4.23424C70.1991 4.23424 70.2986 4.22099 70.398 4.2011C70.4974 4.18785 70.6034 4.17459 70.6034 4.17459C70.4908 4.22761 70.3052 4.3204 70.0931 4.41982V4.42645ZM59.4754 5.69235C59.4754 5.69235 59.482 5.65258 59.4887 5.6327C59.4754 5.65921 59.4555 5.69898 59.4423 5.73212C59.4158 5.76525 59.3959 5.79839 59.3694 5.83153C59.2965 5.8713 59.2302 5.91107 59.1904 5.9442C59.1904 5.9442 59.2501 5.83153 59.3164 5.72549C59.3495 5.66584 59.3826 5.61282 59.4091 5.57968C59.4356 5.53991 59.4555 5.5134 59.4555 5.5134C59.5086 5.48026 59.5019 5.54654 59.482 5.6327C59.4953 5.59956 59.5086 5.57305 59.5218 5.54654C59.5815 5.50677 59.6146 5.50014 59.6279 5.5134C59.5748 5.57305 59.5218 5.62607 59.4688 5.69235H59.4754ZM60.2376 29.0155L60.1713 28.9492C60.3503 29.0287 60.2906 29.0221 60.2376 29.0155ZM65.8778 20.5584C65.8646 21.2013 65.7188 21.8376 65.6127 22.5136C65.6127 22.5136 65.6127 22.5269 65.6127 22.5401C65.6127 22.56 65.6127 22.5733 65.6061 22.5932C65.5663 22.8583 65.4205 23.7398 65.0825 23.985C64.6384 24.2501 64.1149 24.4092 63.5581 24.6478C63.6377 25.41 63.7503 26.2848 63.7967 27.1663C63.8232 27.6236 63.9094 28.2798 63.2599 28.3328C62.5507 28.3858 62.4248 27.8092 62.4645 27.1928C62.5905 25.4298 62.7164 23.6735 62.8092 21.9105C62.8357 21.4797 62.7495 21.0423 62.6833 20.3861C62.6833 20.3861 62.6567 20.1674 62.6435 20.0282C62.5905 20.0083 62.5374 19.9884 62.4778 19.9752C62.491 19.8824 62.5109 19.7962 62.5242 19.7034C63.1273 19.4715 63.7172 19.1865 64.3336 19.034C64.7445 18.9346 65.447 18.8485 65.5796 19.0473C65.8447 19.445 65.8845 20.0481 65.8778 20.5584ZM72.5454 5.12236L72.6183 5.00969L72.499 5.08259C72.3863 5.00306 72.267 4.92353 72.1411 4.85062C72.1875 4.76446 72.2537 4.69818 72.32 4.69156C72.3664 4.71807 72.8304 5.17538 72.8701 5.33445C72.8768 5.36096 72.8834 5.38084 72.8701 5.3941C72.7641 5.29468 72.6514 5.20189 72.5387 5.11573L72.5454 5.12236ZM73.7583 6.73291C73.7185 6.62024 73.6721 6.51419 73.6191 6.40815C73.692 6.48105 73.7715 6.56721 73.8113 6.65338C73.7848 6.65338 73.7715 6.69977 73.7583 6.73291ZM73.9836 15.4617V15.0044C74.0167 15.117 74.0234 15.296 73.9836 15.4617ZM74.0234 11.1072C73.9902 10.7493 74.083 10.5505 74.0764 10.3119L74.03 10.6102C73.9969 10.4975 73.977 10.2523 74.0035 10.1263C73.9969 10.1528 73.9836 10.1992 73.977 10.2456V8.54229C74.0698 8.70798 74.1493 9.00623 74.1891 9.37076C74.2222 9.81482 74.0963 9.56296 74.1161 9.63587C74.0896 10.471 74.368 10.345 74.262 11.0343C74.1692 11.3061 74.0764 11.0476 74.0101 11.1072H74.0234Z" fill="var(--fill-0, white)"/>
<path id="Vector_9" d="M67.4818 22.7325H68.9531C68.9929 22.3215 69.0327 21.957 69.0724 21.4997C68.5091 21.6853 68.0584 21.8377 67.5215 22.01C67.5149 22.1625 67.495 22.4408 67.4751 22.7258L67.4818 22.7325Z" fill="var(--fill-0, white)"/>
<path id="Vector_10" d="M64.234 22.2546C63.9954 22.2877 63.717 22.3341 63.5248 22.3938C63.1272 22.5197 63.3856 23.6398 63.3856 23.6398C63.9358 23.262 64.9365 23.3813 64.6979 22.2016C64.5256 22.2016 64.3798 22.2214 64.234 22.2546Z" fill="var(--fill-0, white)"/>
<path id="Vector_11" d="M63.1804 20.214C63.2931 20.5587 63.4654 21.0624 63.598 21.2612C63.6245 21.2877 63.6444 21.3142 63.6709 21.3407C63.6775 21.3474 63.6908 21.3606 63.6974 21.3672C64.0089 21.2744 64.3403 21.175 64.7313 21.0557C64.7645 20.7442 64.8042 20.4062 64.8573 19.9754C64.3933 20.0947 63.989 20.2737 63.5847 20.2803C63.4522 20.2803 63.313 20.2538 63.1804 20.214Z" fill="var(--fill-0, white)"/>
</g>
</g>
</svg>
