<svg preserveAspectRatio="none" width="100%" height="100%" overflow="visible" style="display: block;" viewBox="0 0 64.3166 16.7374" fill="none" xmlns="http://www.w3.org/2000/svg">
<g id="Group">
<path id="Vector" d="M5.89426 12.1094H0V9.83961H14.4993V12.1094H8.56939V16.6146H5.89426V12.1094ZM0.790919 0.195419H3.48321V5.73845H13.777V8.02538H0.7896V0.195419H0.790919Z" fill="var(--fill-0, white)"/>
<path id="Vector_2" d="M20.3724 0.389523V3.32873H27.904V0.389523H30.5791V10.4021H25.4943V13.4113H31.3885V15.6811H16.8892V13.4113H22.8191V10.4021H17.6801V0.389523H20.3724ZM20.3724 8.13234H27.904V5.59717H20.3724V8.13234Z" fill="var(--fill-0, white)"/>
<path id="Vector_3" d="M33.9673 4.41805C33.9673 2.90488 34.4954 1.72576 35.3748 0.950687C36.1142 0.335381 37.0993 0 38.2969 0C39.4945 0 40.461 0.335381 41.2004 0.950687C41.3945 1.1263 41.5714 1.30323 41.7286 1.5145H44.7734V0.106952H47.4485V9.52139H44.7734V7.37443H41.6929C41.5516 7.5672 41.376 7.72697 41.2004 7.8841C40.4623 8.50073 39.476 8.83479 38.2969 8.83479C37.1177 8.83479 36.1156 8.50073 35.3748 7.8841C34.4954 7.12751 33.9673 5.93123 33.9673 4.41673V4.41805ZM34.918 13.1472C34.918 12.0209 35.4804 11.2115 36.3611 10.649C37.5931 9.83961 39.476 9.55705 41.376 9.55705C43.2761 9.55705 45.159 9.83961 46.3922 10.649C47.2544 11.2115 47.8169 12.0209 47.8169 13.1472C47.8169 14.2735 47.2544 15.0829 46.3922 15.6639C45.1603 16.4733 43.2589 16.7374 41.376 16.7374C39.4931 16.7374 37.5931 16.4733 36.3611 15.6639C35.4804 15.0829 34.918 14.2735 34.918 13.1472ZM36.5368 4.41805C36.5368 5.19313 36.748 5.79127 37.1349 6.16098C37.4161 6.46071 37.8043 6.61784 38.2969 6.61784C38.7894 6.61784 39.1591 6.45939 39.4403 6.16098C39.8285 5.79127 40.0213 5.19313 40.0213 4.41805C40.0213 3.64298 39.8285 3.06332 39.4403 2.67645C39.1591 2.37672 38.7722 2.23676 38.2969 2.23676C37.8215 2.23676 37.4161 2.37804 37.1349 2.67645C36.748 3.06332 36.5368 3.6443 36.5368 4.41805ZM37.5918 13.1472C37.5918 13.5169 37.7859 13.7453 38.1199 13.9566C38.8065 14.3791 40.0385 14.5019 41.3747 14.5019C42.7109 14.5019 43.9442 14.3778 44.6123 13.9566C44.9649 13.7453 45.1405 13.5169 45.1405 13.1472C45.1405 12.7775 44.9649 12.5491 44.6123 12.3378C43.9429 11.9324 42.6951 11.7925 41.3747 11.7925C40.0543 11.7925 38.8052 11.9338 38.1199 12.3378C37.7859 12.5491 37.5918 12.7947 37.5918 13.1472ZM42.5723 3.69712C42.5895 3.92555 42.608 4.17246 42.608 4.41805C42.608 4.68213 42.5895 4.94621 42.5538 5.19313H44.7721V3.6958H42.5723V3.69712Z" fill="var(--fill-0, white)"/>
<path id="Vector_4" d="M59.583 8.57202C59.5289 11.1943 59.1948 13.13 58.2454 14.2735C57.576 15.1186 56.521 15.5226 55.2719 15.5226C54.0228 15.5226 53.0021 15.1172 52.2984 14.2735C51.2605 13.0244 50.9608 10.8418 50.9608 7.8326C50.9608 4.82341 51.2605 2.65928 52.2984 1.41018C53.0021 0.546641 54.0413 0.125434 55.2719 0.125434C56.5025 0.125434 57.5773 0.547962 58.2454 1.41018C59.0905 2.42953 59.4602 4.08531 59.5473 6.30226H61.6415V0.108269H64.3166V16.3505H61.6415V8.57334H59.583V8.57202ZM53.6161 7.8326C53.6161 10.3849 53.7574 12.0566 54.2499 12.7775C54.4783 13.1116 54.8665 13.2872 55.2706 13.2872C55.6746 13.2872 56.0615 13.1116 56.3084 12.7775C56.8009 12.0566 56.9422 10.3849 56.9422 7.8326C56.9422 5.28027 56.8009 3.62713 56.3084 2.90619C56.0615 2.57081 55.6918 2.37803 55.2706 2.37803C54.8494 2.37803 54.4783 2.57081 54.2499 2.90619C53.7574 3.62713 53.6161 5.29876 53.6161 7.8326Z" fill="var(--fill-0, white)"/>
</g>
</svg>
