<svg viewBox="0 0 97.24 27.4153" fill="none" xmlns="http://www.w3.org/2000/svg">
  <svg x="0" y="0" width="28.9253" height="27.4153" viewBox="0 0 28.9253 27.4153">
    <path d="M28.9253 6.1635C28.9253 7.66215 28.0446 8.95482 26.7717 9.55032C26.2898 9.77743 25.751 9.9055 25.1833 9.9055C25.0103 9.9055 24.84 9.89362 24.6723 9.86985C22.8462 9.62162 21.4426 8.05827 21.4426 6.1635C21.4426 5.81755 21.4901 5.48349 21.5773 5.16659C21.7713 4.46018 22.1661 3.83959 22.6969 3.36953C23.3571 2.78195 24.2286 2.42281 25.1833 2.42281C27.2497 2.42281 28.9253 4.09707 28.9253 6.1635Z" fill="white"/>
    <path d="M27.152 11.0384C27.1295 11.0476 27.1058 11.0569 27.0807 11.0661C26.0032 11.4543 25.3206 12.5001 25.3272 13.6462C25.3285 13.8997 25.3219 14.1545 25.3061 14.412C24.968 20.1161 19.8594 25.1059 14.1487 25.3185C11.5713 25.4149 9.16814 24.6662 7.19679 23.3287C6.32665 22.7384 5.13961 23.0369 4.68143 23.9836L4.67087 24.0047C7.08456 26.1279 10.2482 27.4153 13.7077 27.4153C21.2643 27.4153 27.4147 21.2675 27.4147 13.7082C27.4147 12.7959 27.3249 11.9033 27.1533 11.0397L27.152 11.0384Z" fill="white"/>
    <path d="M10.0158 8.63397C10.1413 8.57851 10.2562 8.56795 10.3275 8.56795C10.4621 8.56795 10.8002 8.6102 10.9784 8.97727L15.0056 17.2865C16.1874 16.7135 16.6825 15.2901 16.1095 14.1083L13.1201 7.93944C12.8587 7.40072 12.4599 6.96234 11.9753 6.65865C11.4934 6.35628 10.9256 6.18859 10.3261 6.18859C9.12457 6.18859 8.05505 6.86067 7.53085 7.93944L2.79854 17.7104C2.33772 16.4613 2.08685 15.1132 2.08685 13.7069C2.08685 7.30037 7.29978 2.08743 13.7077 2.08743C15.345 2.08743 16.9044 2.4281 18.3185 3.04208C19.3959 3.5095 20.6332 3.27579 21.4677 2.44922C21.4743 2.44262 21.4809 2.43602 21.4875 2.42942C19.0487 0.739306 16.0342 -0.178371 12.8072 0.028932C5.9741 0.468625 0.462755 5.97997 0.028344 12.813C-0.140667 15.475 0.453512 17.9877 1.61414 20.1544C2.04855 20.9691 2.56483 21.735 3.15109 22.4414L4.17043 20.3353L9.67385 8.97859C9.76364 8.79506 9.8904 8.69207 10.0158 8.63529V8.63397Z" fill="white"/>
    <path d="M13.5664 6.16349C13.5664 7.47729 14.6319 8.54285 15.9457 8.54285H18.4862L19.9598 11.5837L16.0355 19.6857C15.856 20.0554 15.5193 20.0937 15.3819 20.0937C15.2446 20.0937 14.9079 20.0554 14.7283 19.6857L10.7024 11.3764C9.51936 11.9495 9.02553 13.3715 9.59859 14.5546L12.5866 20.7235C13.1108 21.8036 14.1817 22.4731 15.3819 22.4731C16.5822 22.4731 17.6543 21.8036 18.1772 20.7235L24.976 6.68769C25.0935 6.44474 24.9165 6.16217 24.6459 6.16217H13.5651L13.5664 6.16349Z" fill="white"/>
  </svg>
  <svg x="32.93" y="5.34" width="64.3166" height="16.7374" viewBox="0 0 64.3166 16.7374">
    <path d="M5.89426 12.1094H0V9.83961H14.4993V12.1094H8.56939V16.6146H5.89426V12.1094ZM0.790919 0.195419H3.48321V5.73845H13.777V8.02538H0.7896V0.195419H0.790919Z" fill="white"/>
    <path d="M20.3724 0.389523V3.32873H27.904V0.389523H30.5791V10.4021H25.4943V13.4113H31.3885V15.6811H16.8892V13.4113H22.8191V10.4021H17.6801V0.389523H20.3724ZM20.3724 8.13234H27.904V5.59717H20.3724V8.13234Z" fill="white"/>
    <path d="M33.9673 4.41805C33.9673 2.90488 34.4954 1.72576 35.3748 0.950687C36.1142 0.335381 37.0993 0 38.2969 0C39.4945 0 40.461 0.335381 41.2004 0.950687C41.3945 1.1263 41.5714 1.30323 41.7286 1.5145H44.7734V0.106952H47.4485V9.52139H44.7734V7.37443H41.6929C41.5516 7.5672 41.376 7.72697 41.2004 7.8841C40.4623 8.50073 39.476 8.83479 38.2969 8.83479C37.1177 8.83479 36.1156 8.50073 35.3748 7.8841C34.4954 7.12751 33.9673 5.93123 33.9673 4.41673V4.41805ZM34.918 13.1472C34.918 12.0209 35.4804 11.2115 36.3611 10.649C37.5931 9.83961 39.476 9.55705 41.376 9.55705C43.2761 9.55705 45.159 9.83961 46.3922 10.649C47.2544 11.2115 47.8169 12.0209 47.8169 13.1472C47.8169 14.2735 47.2544 15.0829 46.3922 15.6639C45.1603 16.4733 43.2589 16.7374 41.376 16.7374C39.4931 16.7374 37.5931 16.4733 36.3611 15.6639C35.4804 15.0829 34.918 14.2735 34.918 13.1472ZM36.5368 4.41805C36.5368 5.19313 36.748 5.79127 37.1349 6.16098C37.4161 6.46071 37.8043 6.61784 38.2969 6.61784C38.7894 6.61784 39.1591 6.45939 39.4403 6.16098C39.8285 5.79127 40.0213 5.19313 40.0213 4.41805C40.0213 3.64298 39.8285 3.06332 39.4403 2.67645C39.1591 2.37672 38.7722 2.23676 38.2969 2.23676C37.8215 2.23676 37.4161 2.37804 37.1349 2.67645C36.748 3.06332 36.5368 3.6443 36.5368 4.41805ZM37.5918 13.1472C37.5918 13.5169 37.7859 13.7453 38.1199 13.9566C38.8065 14.3791 40.0385 14.5019 41.3747 14.5019C42.7109 14.5019 43.9442 14.3778 44.6123 13.9566C44.9649 13.7453 45.1405 13.5169 45.1405 13.1472C45.1405 12.7775 44.9649 12.5491 44.6123 12.3378C43.9429 11.9324 42.6951 11.7925 41.3747 11.7925C40.0543 11.7925 38.8052 11.9338 38.1199 12.3378C37.7859 12.5491 37.5918 12.7947 37.5918 13.1472ZM42.5723 3.69712C42.5895 3.92555 42.608 4.17246 42.608 4.41805C42.608 4.68213 42.5895 4.94621 42.5538 5.19313H44.7721V3.6958H42.5723V3.69712Z" fill="white"/>
    <path d="M59.583 8.57202C59.5289 11.1943 59.1948 13.13 58.2454 14.2735C57.576 15.1186 56.521 15.5226 55.2719 15.5226C54.0228 15.5226 53.0021 15.1172 52.2984 14.2735C51.2605 13.0244 50.9608 10.8418 50.9608 7.8326C50.9608 4.82341 51.2605 2.65928 52.2984 1.41018C53.0021 0.546641 54.0413 0.125434 55.2719 0.125434C56.5025 0.125434 57.5773 0.547962 58.2454 1.41018C59.0905 2.42953 59.4602 4.08531 59.5473 6.30226H61.6415V0.108269H64.3166V16.3505H61.6415V8.57334H59.583V8.57202ZM53.6161 7.8326C53.6161 10.3849 53.7574 12.0566 54.2499 12.7775C54.4783 13.1116 54.8665 13.2872 55.2706 13.2872C55.6746 13.2872 56.0615 13.1116 56.3084 12.7775C56.8009 12.0566 56.9422 10.3849 56.9422 7.8326C56.9422 5.28027 56.8009 3.62713 56.3084 2.90619C56.0615 2.57081 55.6918 2.37803 55.2706 2.37803C54.8494 2.37803 54.4783 2.57081 54.2499 2.90619C53.7574 3.62713 53.6161 5.29876 53.6161 7.8326Z" fill="white"/>
  </svg>
</svg>
