<svg preserveAspectRatio="none" width="100%" height="100%" overflow="visible" style="display: block;" viewBox="0 0 28.9253 27.4153" fill="none" xmlns="http://www.w3.org/2000/svg">
<g id="Group">
<path id="Vector" d="M28.9253 6.1635C28.9253 7.66215 28.0446 8.95482 26.7717 9.55032C26.2898 9.77743 25.751 9.9055 25.1833 9.9055C25.0103 9.9055 24.84 9.89362 24.6723 9.86985C22.8462 9.62162 21.4426 8.05827 21.4426 6.1635C21.4426 5.81755 21.4901 5.48349 21.5773 5.16659C21.7713 4.46018 22.1661 3.83959 22.6969 3.36953C23.3571 2.78195 24.2286 2.42281 25.1833 2.42281C27.2497 2.42281 28.9253 4.09707 28.9253 6.1635Z" fill="var(--fill-0, white)"/>
<g id="Group_2">
<path id="Vector_2" d="M27.152 11.0384C27.1295 11.0476 27.1058 11.0569 27.0807 11.0661C26.0032 11.4543 25.3206 12.5001 25.3272 13.6462C25.3285 13.8997 25.3219 14.1545 25.3061 14.412C24.968 20.1161 19.8594 25.1059 14.1487 25.3185C11.5713 25.4149 9.16814 24.6662 7.19679 23.3287C6.32665 22.7384 5.13961 23.0369 4.68143 23.9836L4.67087 24.0047C7.08456 26.1279 10.2482 27.4153 13.7077 27.4153C21.2643 27.4153 27.4147 21.2675 27.4147 13.7082C27.4147 12.7959 27.3249 11.9033 27.1533 11.0397L27.152 11.0384Z" fill="var(--fill-0, white)"/>
<path id="Vector_3" d="M10.0158 8.63397C10.1413 8.57851 10.2562 8.56795 10.3275 8.56795C10.4621 8.56795 10.8002 8.6102 10.9784 8.97727L15.0056 17.2865C16.1874 16.7135 16.6825 15.2901 16.1095 14.1083L13.1201 7.93944C12.8587 7.40072 12.4599 6.96234 11.9753 6.65865C11.4934 6.35628 10.9256 6.18859 10.3261 6.18859C9.12457 6.18859 8.05505 6.86067 7.53085 7.93944L2.79854 17.7104C2.33772 16.4613 2.08685 15.1132 2.08685 13.7069C2.08685 7.30037 7.29978 2.08743 13.7077 2.08743C15.345 2.08743 16.9044 2.4281 18.3185 3.04208C19.3959 3.5095 20.6332 3.27579 21.4677 2.44922C21.4743 2.44262 21.4809 2.43602 21.4875 2.42942C19.0487 0.739306 16.0342 -0.178371 12.8072 0.028932C5.9741 0.468625 0.462755 5.97997 0.028344 12.813C-0.140667 15.475 0.453512 17.9877 1.61414 20.1544C2.04855 20.9691 2.56483 21.735 3.15109 22.4414L4.17043 20.3353L9.67385 8.97859C9.76364 8.79506 9.8904 8.69207 10.0158 8.63529V8.63397Z" fill="var(--fill-0, white)"/>
<path id="Vector_4" d="M13.5664 6.16349C13.5664 7.47729 14.6319 8.54285 15.9457 8.54285H18.4862L19.9598 11.5837L16.0355 19.6857C15.856 20.0554 15.5193 20.0937 15.3819 20.0937C15.2446 20.0937 14.9079 20.0554 14.7283 19.6857L10.7024 11.3764C9.51936 11.9495 9.02553 13.3715 9.59859 14.5546L12.5866 20.7235C13.1108 21.8036 14.1817 22.4731 15.3819 22.4731C16.5822 22.4731 17.6543 21.8036 18.1772 20.7235L24.976 6.68769C25.0935 6.44474 24.9165 6.16217 24.6459 6.16217H13.5651L13.5664 6.16349Z" fill="var(--fill-0, white)"/>
</g>
</g>
</svg>
