<svg preserveAspectRatio="none" width="100%" height="100%" overflow="visible" style="display: block;" viewBox="0 0 98.43 14.4596" fill="none" xmlns="http://www.w3.org/2000/svg">
<g id="Group">
<path id="Vector" d="M10.848 8.8591C10.6609 8.40864 10.3606 8.00032 9.94706 7.64733C9.53348 7.28907 8.99345 6.97295 8.3217 6.68318C7.6526 6.39868 6.8307 6.12998 5.86655 5.87446C5.31335 5.73484 4.86816 5.59522 4.52043 5.4556C4.16744 5.31599 3.8882 5.16583 3.67746 5.01041C3.46935 4.84972 3.32447 4.67322 3.2428 4.48619C3.15587 4.29388 3.11899 4.06734 3.11899 3.81181C3.11899 3.52204 3.19275 3.27442 3.3429 3.07685C3.49306 2.87927 3.69063 2.72385 3.92772 2.60531C4.17007 2.48676 4.43613 2.40774 4.73117 2.35769C5.03148 2.31554 5.32652 2.29973 5.61629 2.31027C6.33018 2.33134 7.03617 2.47623 7.75007 2.74492C8.45869 3.01362 9.09619 3.35081 9.65202 3.75912L10.6873 1.67804C9.84432 1.15382 9.00925 0.745502 8.16628 0.450463C7.32331 0.150154 6.44082 0 5.50829 0C4.82074 0 4.16744 0.0816627 3.55101 0.237086C2.93459 0.397777 2.38666 0.640131 1.90986 0.966783C1.43305 1.29343 1.05108 1.69648 0.774476 2.17855C0.495242 2.66063 0.350356 3.24017 0.350356 3.89874C0.350356 4.52043 0.468902 5.0631 0.703354 5.52936C0.935171 5.99563 1.27762 6.40395 1.73336 6.75167C2.18909 7.0994 2.75283 7.40498 3.42193 7.65787C4.09104 7.91603 4.86289 8.13994 5.73747 8.32171C6.60152 8.51928 7.24955 8.78271 7.69474 9.09882C8.13994 9.4202 8.35858 9.89701 8.35858 10.524C8.35858 11.0877 8.13467 11.4934 7.68421 11.7515C7.23901 12.0044 6.66474 12.1388 5.96402 12.1493C5.50829 12.1651 5.05783 12.1335 4.61263 12.0571C4.16217 11.9834 3.72751 11.8648 3.30866 11.7147C2.88454 11.5645 2.4894 11.3827 2.10743 11.172C1.73336 10.9639 1.383 10.7215 1.06688 10.4528L0 12.5339C0.803457 13.0977 1.69911 13.5534 2.68697 13.9169C3.66692 14.2752 4.69166 14.4596 5.75328 14.4596C6.49878 14.4596 7.20213 14.3727 7.8607 14.1962C8.51928 14.0197 9.08828 13.7668 9.56509 13.4243C10.0419 13.0924 10.4239 12.6735 10.7005 12.1757C10.9797 11.6831 11.1193 11.1088 11.1193 10.4555C11.1193 9.84959 11.0271 9.3201 10.8401 8.86437L10.848 8.8591Z" fill="var(--fill-0, white)"/>
<path id="Vector_2" d="M18.4347 6.94134L24.5357 0.352997H21.372L16.0744 6.05096V0.352997H13.3137V14.1092H16.0744V7.83173L21.4246 14.1092H24.5884L18.4347 6.94134Z" fill="var(--fill-0, white)"/>
<path id="Vector_3" d="M35.1835 0.350361L31.8433 5.67952L28.503 0.350361H25.5104L30.4576 8.28483V14.1066H33.2184V8.28483L38.1655 0.350361H35.1783H35.1835Z" fill="var(--fill-0, white)"/>
<path id="Vector_4" d="M56.4738 0.350361L51.7032 11.3617L46.9483 0.350361H44.1875V14.1066H46.9483V5.40029L50.7074 14.1066H52.7174L56.4765 5.40029V14.1066H59.2372V0.350361H56.4765H56.4738Z" fill="var(--fill-0, white)"/>
<path id="Vector_5" d="M69.1631 0.350361H66.1389L61.0732 14.1066H63.8181L67.6458 3.33501L71.4892 14.1066H74.2341L69.1631 0.350361Z" fill="var(--fill-0, white)"/>
<path id="Vector_6" d="M74.0576 0.350361V2.47886H78.657V14.1066H81.4178V2.47886H86.0172V0.350361H74.0549H74.0576Z" fill="var(--fill-0, white)"/>
<path id="Vector_7" d="M90.7036 11.9913V8.14785H97.9189V6.01408H90.7036V2.4815H98.2535V0.352997H87.9429V14.1092H98.43V11.9913H90.7036Z" fill="var(--fill-0, white)"/>
</g>
</svg>
