<svg preserveAspectRatio="none" width="100%" height="100%" overflow="visible" style="display: block;" viewBox="0 0 15.6111 21.5812" fill="none" xmlns="http://www.w3.org/2000/svg">
<g id="Group">
<path id="Vector" d="M14.949 10.0012L10.8172 0.6584L0.658576 10.5409L5.32156 20.9209L14.949 10.0012Z" fill="var(--fill-0, white)"/>
<path id="Vector_2" d="M5.32201 21.5812C5.28828 21.5812 5.25666 21.5791 5.22293 21.5728C5.00158 21.539 4.81186 21.3957 4.71911 21.1912L0.0582357 10.8133C-0.0555983 10.5604 0.00131869 10.2631 0.199474 10.0692L10.356 0.186725C10.512 0.0349462 10.7312 -0.0282949 10.942 0.0117578C11.1549 0.0539186 11.3341 0.195157 11.4206 0.393313L15.5544 9.73614C15.6598 9.97224 15.6156 10.2463 15.4448 10.4402L5.81529 21.3577C5.6888 21.5011 5.50751 21.5812 5.3199 21.5812H5.32201ZM1.45165 10.6932L5.5033 19.7156L14.1737 9.8837L10.5963 1.79727L1.45165 10.6932Z" fill="var(--fill-0, white)"/>
</g>
</svg>
