<svg viewBox="0 0 113 26" fill="none" xmlns="http://www.w3.org/2000/svg">
  <!-- 아이콘 (다이아몬드 형태) -->
  <svg x="0" y="0" width="15.6111" height="21.5812" viewBox="0 0 15.6111 21.5812">
    <path d="M14.949 10.0012L10.8172 0.6584L0.658576 10.5409L5.32156 20.9209L14.949 10.0012Z" fill="white"/>
    <path d="M5.32201 21.5812C5.28828 21.5812 5.25666 21.5791 5.22293 21.5728C5.00158 21.539 4.81186 21.3957 4.71911 21.1912L0.0582357 10.8133C-0.0555983 10.5604 0.00131869 10.2631 0.199474 10.0692L10.356 0.186725C10.512 0.0349462 10.7312 -0.0282949 10.942 0.0117578C11.1549 0.0539186 11.3341 0.195157 11.4206 0.393313L15.5544 9.73614C15.6598 9.97224 15.6156 10.2463 15.4448 10.4402L5.81529 21.3577C5.6888 21.5011 5.50751 21.5812 5.3199 21.5812H5.32201ZM1.45165 10.6932L5.5033 19.7156L14.1737 9.8837L10.5963 1.79727L1.45165 10.6932Z" fill="white"/>
  </svg>
  <!-- 메인 텍스트 (대치스터디벙커) -->
  <svg x="33.18" y="5.22" width="79.8221" height="11.3265" viewBox="0 0 79.8221 11.3265">
    <path d="M5.12901 0.502857V2.49193H2.31983V8.38667H3.67005C3.82863 8.38667 3.98722 8.38667 4.1458 8.37308C4.30438 8.36402 4.46296 8.34589 4.62154 8.3187C4.77107 8.30964 4.91152 8.29152 5.04745 8.26434C5.17885 8.23715 5.30118 8.20091 5.4054 8.16013V10.0541C5.30118 10.1265 5.18338 10.1809 5.05651 10.2217C4.92965 10.2625 4.78466 10.2897 4.62608 10.3078C4.44937 10.335 4.27719 10.3531 4.10955 10.3622C3.94191 10.3712 3.77879 10.3757 3.62021 10.3757H0V0.507392H5.12901V0.502857ZM8.78547 6.31604C8.67219 6.34322 8.54986 6.37041 8.42752 6.3976C8.30519 6.42478 8.17379 6.43837 8.04239 6.43837V10.9829H5.93551V0.267254H8.04239V4.1865H8.78547V0.267254H10.8788V10.9829H8.78547V6.32057V6.31604Z" fill="white"/>
    <path d="M17.9657 1.43177V2.58263C17.9476 2.99948 17.9023 3.3982 17.8343 3.78785C17.7618 4.17751 17.6712 4.55812 17.5579 4.92512C17.4763 5.16526 17.3903 5.39633 17.2996 5.62288C17.209 5.84943 17.1093 6.06691 17.0006 6.27986C17.132 6.38408 17.2634 6.49735 17.3903 6.61063C17.5171 6.7239 17.6485 6.83717 17.7799 6.94138C18.0291 7.19965 18.2693 7.46697 18.5094 7.75695C18.7495 8.0424 18.9716 8.3505 19.1845 8.67673L17.6485 10.3215C17.4084 9.95898 17.1728 9.63275 16.9326 9.33371C16.6925 9.0392 16.4569 8.7764 16.2168 8.54533L15.7818 8.18739C15.6776 8.31878 15.5643 8.45018 15.451 8.57252C15.3378 8.69485 15.2245 8.81719 15.1203 8.93046C14.8393 9.22044 14.5494 9.49229 14.2503 9.73696C13.9558 9.98616 13.6477 10.2127 13.3306 10.4257L11.7946 8.77187C12.3156 8.39128 12.7868 7.99709 13.2037 7.58024C13.6251 7.1634 13.9921 6.73296 14.3092 6.27986C14.6083 5.8449 14.8575 5.4054 15.0568 4.94778C15.2562 4.49469 15.3967 4.028 15.4737 3.55225H12.3202V1.43177H13.8018V0H16.253V1.43177H17.9612H17.9657ZM19.6059 10.9286V0.262795H22.0571V10.9286H19.6059Z" fill="white"/>
    <path d="M23.2759 10.7694V8.6489H34.2316V10.7694H23.2759ZM23.3846 5.69473C24.0461 5.37757 24.6397 5.02416 25.1653 4.6345C25.6908 4.24484 26.153 3.828 26.5517 3.3749C26.9414 2.9354 27.2404 2.45965 27.4534 1.95672C27.6663 1.45379 27.7841 0.923672 27.8113 0.366368H30.2897C30.2716 0.737904 30.2308 1.09584 30.1719 1.4402C30.1085 1.78455 30.0224 2.1153 29.9091 2.43247C30.3079 2.66355 30.693 2.89462 31.06 3.13023C31.4315 3.36584 31.7804 3.60597 32.1066 3.85064C32.4238 4.11344 32.7546 4.40342 33.0989 4.71152C33.4433 5.01963 33.7967 5.35945 34.1591 5.73098L32.596 7.50711C32.2879 7.16275 31.9707 6.83653 31.6445 6.52842C31.3183 6.22032 30.983 5.92581 30.6386 5.64037C30.3215 5.41835 30.0088 5.20992 29.7052 5.00603C29.4017 4.80214 29.0936 4.61184 28.7855 4.43514L28.6269 4.6345C28.3686 4.9426 28.0968 5.23711 27.8068 5.5135C27.5168 5.78989 27.2042 6.04815 26.878 6.28829C26.5336 6.54655 26.1847 6.77762 25.8268 6.98152C25.4688 7.18994 25.1064 7.37571 24.7348 7.54335L23.3982 5.69021L23.3846 5.69473Z" fill="white"/>
    <path d="M41.0813 2.4232H37.6922V4.34431H40.8865V6.39682H37.6922V8.30434H39.8263C40.012 8.30434 40.1933 8.30434 40.3745 8.29981C40.5558 8.29981 40.7325 8.28168 40.9092 8.2545C41.0677 8.24544 41.2082 8.23185 41.3351 8.20919C41.4574 8.18654 41.5662 8.15935 41.6522 8.1231V10.0986C41.5571 10.153 41.4393 10.1937 41.3079 10.23C41.1765 10.2662 41.027 10.2889 40.8593 10.298C40.6736 10.3251 40.4833 10.3433 40.2839 10.3523C40.0845 10.3614 39.8761 10.3659 39.6541 10.3659H35.4403V0.375217H41.0859V2.42773L41.0813 2.4232ZM43.1203 6.15668C43.0478 6.18387 42.9662 6.20199 42.8756 6.21105C42.785 6.22011 42.6808 6.22464 42.563 6.22464C42.4316 6.23371 42.3002 6.23824 42.1733 6.23824H41.5979V4.11777H43.1203V0.261944H45.4401V10.9413H43.1203V6.16121V6.15668Z" fill="white"/>
    <path d="M52.9895 0.502083V2.49116H49.4146V8.3859H51.4263C51.6121 8.3859 51.7978 8.3859 51.9836 8.37231C52.1694 8.36325 52.3551 8.34512 52.5409 8.31793C52.7267 8.30887 52.8988 8.29075 53.0529 8.26356C53.207 8.23638 53.3519 8.20013 53.4833 8.15935V10.0533C53.361 10.1258 53.2205 10.1801 53.0665 10.2209C52.9124 10.2617 52.7403 10.2889 52.5545 10.307C52.3506 10.3342 52.1512 10.3523 51.9564 10.3614C51.7616 10.3704 51.5668 10.375 51.3719 10.375H46.9588V0.506618H52.9849L52.9895 0.502083ZM54.2491 10.9277V0.261944H56.7003V10.9277H54.2491Z" fill="white"/>
    <path d="M62.6076 0.302728H64.7915V2.18306H65.4802C65.5437 2.18306 65.6071 2.18306 65.6796 2.16947C65.734 2.16947 65.7838 2.16947 65.8337 2.15588C65.8835 2.14681 65.9288 2.13322 65.9741 2.1151V0.261944H68.2939V6.25183H65.9741V4.17214C65.9197 4.19932 65.8608 4.22197 65.7974 4.2401C65.7294 4.25822 65.657 4.26729 65.5799 4.26729C65.4893 4.28541 65.4032 4.29447 65.3081 4.29447H64.7961V5.98904H58.2897V0.307256H60.4736V1.4853H62.6076V0.307256V0.302728ZM63.7993 11.3265C63.3416 11.3265 62.9203 11.3129 62.5397 11.2812C62.1591 11.2494 61.8238 11.2087 61.5338 11.1543C61.2257 11.0999 60.9493 11.032 60.7046 10.9504C60.46 10.8643 60.2561 10.7737 60.0884 10.665C59.9027 10.5607 59.7441 10.4429 59.6172 10.3206C59.4904 10.1983 59.3952 10.0578 59.3318 9.8947C59.2502 9.75424 59.1958 9.60018 59.1596 9.43707C59.1234 9.27396 59.1052 9.09725 59.1052 8.91602C59.1052 8.75743 59.1234 8.59885 59.1596 8.44027C59.1958 8.28169 59.2502 8.12763 59.3318 7.97811C59.4043 7.83765 59.4994 7.70173 59.6308 7.57486C59.7577 7.44799 59.9163 7.32566 60.102 7.21239C60.2787 7.10818 60.4872 7.01303 60.7228 6.92694C60.9629 6.84085 61.2348 6.76383 61.5429 6.69587C61.8328 6.64149 62.1681 6.60071 62.5487 6.56446C62.9293 6.52822 63.3416 6.5101 63.7947 6.5101C64.2478 6.5101 64.642 6.52822 65.0136 6.56446C65.3851 6.60071 65.7249 6.64603 66.033 6.69587C66.323 6.76836 66.5903 6.84538 66.835 6.92694C67.0797 7.01303 67.2926 7.10365 67.4784 7.21239C67.6551 7.32566 67.8091 7.44799 67.9405 7.57486C68.0719 7.70173 68.1807 7.83765 68.2577 7.97811C68.3302 8.12763 68.3846 8.28169 68.4253 8.44027C68.4661 8.59885 68.4842 8.75743 68.4842 8.91602C68.4842 9.10178 68.4661 9.27396 68.4253 9.43707C68.3846 9.60018 68.3302 9.75424 68.2577 9.8947C68.1761 10.0533 68.0719 10.1937 67.9451 10.3206C67.8182 10.4429 67.6641 10.5607 67.4874 10.665C67.3017 10.7692 67.0887 10.8643 66.8531 10.9504C66.613 11.0365 66.3502 11.1045 66.0602 11.1543C65.7521 11.2087 65.4077 11.2494 65.0317 11.2812C64.6556 11.3129 64.2433 11.3265 63.7947 11.3265H63.7993Z" fill="white"/>
    <path d="M75.7259 0.502083V1.65294C75.7078 2.09244 75.6806 2.51835 75.6399 2.92613C75.5991 3.33391 75.5538 3.71905 75.4994 4.09058H77.5021V0.261944H79.8219V10.9413H77.5021V6.06606C77.4296 6.08418 77.3525 6.09778 77.271 6.10684C77.1849 6.11591 77.0988 6.12044 76.9991 6.12044C76.8949 6.13856 76.7862 6.15215 76.6729 6.16121C76.5642 6.17027 76.4509 6.1748 76.3331 6.1748H75.6489H75.3046H74.9738L74.7744 6.72758C74.6159 7.09911 74.4346 7.46159 74.2398 7.815C74.0404 8.16841 73.8229 8.5037 73.5828 8.82086C73.3336 9.15615 73.0663 9.47785 72.7763 9.78595C72.4863 10.0941 72.1692 10.3931 71.8248 10.6876L69.8267 9.22865C70.1167 8.97945 70.3885 8.73478 70.6422 8.48558C70.896 8.23638 71.127 7.98718 71.34 7.72892C71.5258 7.51596 71.6979 7.29394 71.8565 7.0674C72.0151 6.83632 72.1601 6.60524 72.2915 6.3651H69.7995V4.24463H73.1116C73.166 3.99543 73.2067 3.73716 73.2385 3.46078C73.2702 3.18892 73.2928 2.90348 73.311 2.6135H69.5639V0.493026H75.735L75.7259 0.502083Z" fill="white"/>
  </svg>
  <!-- 서브 텍스트 (소스로에게 닿아보는 시간) -->
  <svg x="40.52" y="20.42" width="65.4352" height="4.65838" viewBox="0 0 65.4352 4.65838">
    <path d="M4.63982 3.92748V4.43495H0.000150493V3.92748H4.63982ZM1.28693 2.5682C0.906336 2.81287 0.512145 2.93068 0.0952995 2.93068V2.41868C0.421526 2.41868 0.738691 2.30994 1.04226 2.09699C1.34584 1.87951 1.60863 1.58953 1.82158 1.22705C2.03907 0.86458 2.18406 0.465856 2.26561 0.0354183L2.81839 0.135099C2.75495 0.502104 2.64621 0.837391 2.49216 1.14549L4.53561 2.5229L4.2411 2.95334L2.25655 1.57594C1.98923 1.99731 1.663 2.32807 1.28693 2.57274V2.5682Z" fill="white"/>
    <path d="M9.86808 3.92748V4.43495H5.22842V3.92748H9.86808ZM6.5152 2.5682C6.1346 2.81287 5.74041 2.93068 5.32356 2.93068V2.41868C5.64979 2.41868 5.96696 2.30994 6.27053 2.09699C6.5741 1.87951 6.83689 1.58953 7.04985 1.22705C7.26733 0.86458 7.41232 0.465856 7.49388 0.0354183L8.04665 0.135099C7.98322 0.502104 7.87448 0.837391 7.72042 1.14549L9.76387 2.5229L9.46936 2.95334L7.48482 1.57594C7.21749 1.99731 6.89127 2.32807 6.5152 2.57274V2.5682Z" fill="white"/>
  </svg>
</svg>
