<svg preserveAspectRatio="none" width="100%" height="100%" overflow="visible" style="display: block;" viewBox="0 0 65.4352 4.65838" fill="none" xmlns="http://www.w3.org/2000/svg">
<g id="Group">
<path id="Vector" d="M4.63982 3.92748V4.43495H0.000150493V3.92748H4.63982ZM1.28693 2.5682C0.906336 2.81287 0.512145 2.93068 0.0952995 2.93068V2.41868C0.421526 2.41868 0.738691 2.30994 1.04226 2.09699C1.34584 1.87951 1.60863 1.58953 1.82158 1.22705C2.03907 0.86458 2.18406 0.465856 2.26561 0.0354183L2.81839 0.135099C2.75495 0.502104 2.64621 0.837391 2.49216 1.14549L4.53561 2.5229L4.2411 2.95334L2.25655 1.57594C1.98923 1.99731 1.663 2.32807 1.28693 2.57274V2.5682Z" fill="var(--fill-0, white)"/>
<path id="Vector_2" d="M9.86808 3.92748V4.43495H5.22842V3.92748H9.86808ZM6.5152 2.5682C6.1346 2.81287 5.74041 2.93068 5.32356 2.93068V2.41868C5.64979 2.41868 5.96696 2.30994 6.27053 2.09699C6.5741 1.87951 6.83689 1.58953 7.04985 1.22705C7.26733 0.86458 7.41232 0.465856 7.49388 0.0354183L8.04665 0.135099C7.98322 0.502104 7.87448 0.837391 7.72042 1.14549L9.76387 2.5229L9.46936 2.95334L7.48482 1.57594C7.21749 1.99731 6.89127 2.32807 6.5152 2.57274V2.5682Z" fill="var(--fill-0, white)"/>
<path id="Vector_3" d="M15.0963 3.93768V4.43155H10.4567V3.93768H12.4911V3.06321H10.7693V1.38677H14.2581V0.657287H10.7693V0.17701H14.7928V1.84439H11.3085V2.5784H14.8653V3.05868H13.0438V3.93315H15.1009L15.0963 3.93768Z" fill="var(--fill-0, white)"/>
<path id="Vector_4" d="M18.5226 0.041364H19.03V4.57683H18.5226V2.46088H17.9064C17.8928 3.14052 17.7931 3.63892 17.6119 3.96062C17.4306 4.28232 17.1678 4.4409 16.828 4.4409C16.4701 4.4409 16.1982 4.26419 16.017 3.91531C15.8357 3.56643 15.7451 3.02271 15.7451 2.27964C15.7451 1.53657 15.8357 0.99739 16.017 0.643978C16.1982 0.295097 16.4701 0.118396 16.828 0.118396C17.1588 0.118396 17.4125 0.267915 17.5937 0.562425C17.775 0.856935 17.8747 1.31909 17.9018 1.94436H18.5226V0.0368356V0.041364ZM17.2584 3.53924C17.3491 3.26738 17.3989 2.84601 17.3989 2.27964C17.3989 1.71328 17.3536 1.2919 17.2584 1.02005C17.1678 0.74819 17.0228 0.612265 16.8325 0.612265C16.6422 0.612265 16.4973 0.74819 16.4021 1.02005C16.307 1.2919 16.2616 1.71328 16.2616 2.27964C16.2616 2.84601 16.307 3.26738 16.4021 3.53924C16.4973 3.8111 16.6377 3.94703 16.8325 3.94703C17.0274 3.94703 17.1678 3.8111 17.2584 3.53924ZM20.1537 0.0141796V4.65838H19.6417V0.0141796H20.1537Z" fill="var(--fill-0, white)"/>
<path id="Vector_5" d="M23.7098 0.041364H24.2218V4.57683H23.7098V2.39745H22.8761C22.7991 2.80523 22.6722 3.15411 22.5 3.44862C22.3278 3.74313 22.1104 3.96968 21.8566 4.12826C21.6029 4.28684 21.3265 4.3684 21.0229 4.3684V3.86094C21.3084 3.85188 21.5576 3.74766 21.7751 3.5483C21.988 3.34894 22.1557 3.06803 22.2689 2.71009C22.3867 2.35214 22.4411 1.93529 22.4411 1.45955V0.671169H21.0229V0.181829H22.9622V1.43236C22.9622 1.58641 22.9576 1.73593 22.9441 1.88545H23.7053V0.041364H23.7098ZM25.3862 0.0141796V4.65838H24.8697V0.0141796H25.3862Z" fill="var(--fill-0, white)"/>
<path id="Vector_6" d="M30.3897 2.25699C30.1269 2.29324 29.8324 2.31589 29.5062 2.31589H27.8388V0.131988H30.6706V0.589609H28.378V1.8628H29.5424C29.8596 1.8628 30.145 1.84468 30.3988 1.80843C30.6525 1.77218 30.8564 1.72234 31.0059 1.65438V2.112C30.8609 2.17543 30.657 2.22527 30.3942 2.26152L30.3897 2.25699ZM31.4046 2.96382C31.7671 3.11787 31.9529 3.36254 31.9529 3.6933C31.9529 4.02405 31.7716 4.26419 31.4046 4.42278C31.0422 4.57683 30.5574 4.65838 29.9593 4.65838C29.3612 4.65838 28.8809 4.58136 28.5139 4.42278C28.1514 4.26872 27.9657 4.02405 27.9657 3.6933C27.9657 3.36254 28.1469 3.1224 28.5139 2.96382C28.8764 2.80977 29.3612 2.72821 29.9593 2.72821C30.5574 2.72821 31.0376 2.80523 31.4046 2.96382ZM30.9833 4.07842C31.2461 3.99233 31.3729 3.86094 31.3729 3.6933C31.3729 3.52565 31.2415 3.39425 30.9833 3.30816C30.7205 3.22208 30.3806 3.17677 29.9593 3.17677C29.5379 3.17677 29.2026 3.22208 28.9398 3.30816C28.677 3.39425 28.5456 3.52565 28.5456 3.6933C28.5456 3.86094 28.677 3.99233 28.9353 4.07842C29.1981 4.16451 29.5379 4.20982 29.9593 4.20982C30.3806 4.20982 30.7205 4.16451 30.9833 4.07842ZM32.5328 0.965677V1.4822H31.8804V2.57869H31.3412V0.0141796H31.8804V0.965677H32.5328Z" fill="var(--fill-0, white)"/>
<path id="Vector_7" d="M35.6215 2.25699C35.3587 2.29324 35.0642 2.31589 34.738 2.31589H33.0706V0.131988H35.9024V0.589609H33.6098V1.8628H34.7742C35.0914 1.8628 35.3768 1.84468 35.6306 1.80843C35.8843 1.77218 36.0882 1.72234 36.2377 1.65438V2.112C36.0927 2.17543 35.8888 2.22527 35.626 2.26152L35.6215 2.25699ZM36.6319 2.96382C36.9944 3.11787 37.1802 3.36254 37.1802 3.6933C37.1802 4.02405 36.9989 4.26419 36.6319 4.42278C36.2694 4.57683 35.7846 4.65838 35.1865 4.65838C34.5885 4.65838 34.1082 4.58136 33.7412 4.42278C33.3787 4.26872 33.1929 4.02405 33.1929 3.6933C33.1929 3.36254 33.3742 3.1224 33.7412 2.96382C34.1037 2.80977 34.5885 2.72821 35.1865 2.72821C35.7846 2.72821 36.2649 2.80523 36.6319 2.96382ZM36.2105 4.07842C36.4733 3.99233 36.6002 3.86094 36.6002 3.6933C36.6002 3.52565 36.4688 3.39425 36.2105 3.30816C35.9523 3.22208 35.6079 3.17677 35.1865 3.17677C34.7652 3.17677 34.4299 3.22208 34.1671 3.30816C33.9043 3.39425 33.7729 3.52565 33.7729 3.6933C33.7729 3.86094 33.9043 3.99233 34.1626 4.07842C34.4253 4.16451 34.7652 4.20982 35.1865 4.20982C35.6079 4.20982 35.9477 4.16451 36.2105 4.07842ZM37.7601 0.965677V1.4822H37.1077V2.57869H36.5685V0.0141796H37.1077V0.965677H37.7601Z" fill="var(--fill-0, white)"/>
<path id="Vector_8" d="M39.5376 0.734035H40.5118V1.21884H38.0334V0.734035H39.0075V2.04324e-05H39.5422V0.734035H39.5376ZM39.8548 1.74896C40.0179 1.8577 40.1448 2.02082 40.2399 2.23377C40.3306 2.44672 40.3804 2.70499 40.3804 3.00403C40.3804 3.30307 40.3351 3.56133 40.2399 3.77428C40.1493 3.98724 40.0179 4.15035 39.8548 4.2591C39.6917 4.36784 39.5059 4.42674 39.293 4.42674C39.08 4.42674 38.8988 4.37237 38.7357 4.2591C38.5726 4.15035 38.4457 3.98724 38.3551 3.77428C38.2645 3.56133 38.2146 3.30307 38.2146 3.00403C38.2146 2.70499 38.2599 2.44672 38.3551 2.23377C38.4457 2.02082 38.5726 1.8577 38.7357 1.74896C38.8988 1.64022 39.0846 1.58132 39.293 1.58132C39.5014 1.58132 39.6872 1.63569 39.8548 1.74896ZM39.7189 3.70632C39.8276 3.53868 39.882 3.30307 39.882 3.00856C39.882 2.71405 39.8276 2.47844 39.7189 2.3108C39.6101 2.14315 39.4697 2.05706 39.293 2.05706C39.1163 2.05706 38.9849 2.14315 38.8761 2.3108C38.7674 2.47844 38.7176 2.71405 38.7176 3.00856C38.7176 3.30307 38.7719 3.53868 38.8761 3.70632C38.9849 3.87397 39.1208 3.96005 39.293 3.96005C39.4652 3.96005 39.6101 3.87397 39.7189 3.70632ZM42.6006 0.0136127V4.65781H42.1022V2.39235H41.3591V4.57626H40.8607V0.0407971H41.3591V1.88489H42.1022V0.0136127H42.6006Z" fill="var(--fill-0, white)"/>
<path id="Vector_9" d="M45.2058 2.14372L46.7237 4.01952L46.2978 4.34122L45.0473 2.74633C44.8887 3.23114 44.6712 3.61627 44.4039 3.89719C44.132 4.1781 43.8239 4.33669 43.4705 4.37746V3.84282C43.7424 3.79298 43.978 3.62533 44.1728 3.34441C44.3722 3.0635 44.5217 2.69196 44.6304 2.2298C44.7392 1.76765 44.7981 1.25113 44.8026 0.675698H43.5747V0.181829H46.5379V0.675698H45.3463C45.3463 1.19222 45.2919 1.68157 45.2013 2.14372H45.2058ZM47.6979 0.0141796V4.65838H47.1587V0.0141796H47.6979Z" fill="var(--fill-0, white)"/>
<path id="Vector_10" d="M48.5996 2.32495H53.2393V2.80523H48.5996V2.32495ZM48.9168 3.21301H49.4651V4.1192H52.9946V4.59948H48.9168V3.21301ZM48.9304 0.0141796H49.4741V1.33721H52.9493V1.81749H48.9304V0.0187149V0.0141796Z" fill="var(--fill-0, white)"/>
<path id="Vector_11" d="M57.2393 2.05763L58.739 4.0603L58.304 4.3684L57.0716 2.68289C56.8995 3.19942 56.6729 3.60721 56.392 3.90172C56.1111 4.19623 55.7939 4.35481 55.4314 4.38199V3.83828C55.7305 3.79297 55.9933 3.59814 56.2108 3.25832C56.4282 2.91851 56.5914 2.47901 56.7046 1.93529C56.8179 1.39158 56.8768 0.788972 56.8768 0.131988L57.425 0.154637C57.416 0.879585 57.3571 1.51392 57.2393 2.06216V2.05763ZM59.6814 0.0141796V4.65838H59.1423V0.0141796H59.6814Z" fill="var(--fill-0, white)"/>
<path id="Vector_12" d="M63.0429 1.8439C62.8209 2.13841 62.5128 2.36042 62.1095 2.50541C61.7108 2.6504 61.2396 2.72743 60.7004 2.72743V2.24261C61.3619 2.24261 61.8784 2.11575 62.259 1.86655C62.6396 1.62188 62.8299 1.26847 62.8299 0.815374V0.593356H60.7004V0.122143H63.3736V0.751942C63.3736 1.18238 63.2649 1.54486 63.0429 1.8439ZM61.4435 4.10482H64.9051V4.59417H60.8998V3.13068H61.4435V4.10482ZM65.4352 1.11442V1.63094H64.7828V3.45691H64.2436V0.0088699H64.7828V1.11442H65.4352Z" fill="var(--fill-0, white)"/>
</g>
</svg>
