<svg preserveAspectRatio="none" width="100%" height="100%" overflow="visible" style="display: block;" viewBox="0 0 23.1905 20.9657" fill="none" xmlns="http://www.w3.org/2000/svg">
<g id="Group">
<path id="Vector" d="M12.9791 15.4207C12.9201 15.4207 12.861 15.4123 12.8041 15.3975L1.28158 12.2165C1.06234 12.1553 0.88948 11.9867 0.82413 11.7675C0.758781 11.5482 0.811483 11.3121 0.961153 11.1414L10.5907 0.223855C10.753 0.0383478 11.006 -0.0396498 11.2463 0.0193752L22.6887 2.85469C22.91 2.9095 23.0892 3.07603 23.1588 3.29316C23.2284 3.51029 23.182 3.74849 23.0344 3.92346L13.485 15.1867C13.3585 15.3364 13.173 15.4207 12.9812 15.4207H12.9791ZM2.6518 11.2236L12.7472 14.0104L21.3353 3.8813L11.3158 1.39803L2.6518 11.2215V11.2236Z" fill="var(--fill-0, white)"/>
<path id="Vector_2" d="M13.2935 20.9656C13.2324 20.9656 13.1712 20.9571 13.1101 20.9403L1.97124 17.7361C1.94806 17.7297 1.92487 17.7213 1.90168 17.7108C1.81314 17.6749 -0.240087 16.7895 0.0234178 14.0681C0.217357 12.0633 1.21657 11.3044 1.3304 11.2243C1.62974 11.0135 2.04081 11.0852 2.25161 11.3824C2.46242 11.6797 2.39074 12.0928 2.09351 12.3036C2.08086 12.3142 1.47586 12.8011 1.34094 14.1946C1.18495 15.7967 2.17151 16.37 2.38653 16.4776L13.0658 19.549L21.0553 10.0691V7.36451C21.0553 6.99982 21.3504 6.70259 21.7151 6.70259C22.0798 6.70259 22.3749 6.99771 22.3749 7.36451V10.3094C22.3749 10.4654 22.3201 10.6151 22.2189 10.7353L13.7973 20.7274C13.6687 20.8791 13.4832 20.9614 13.2914 20.9614L13.2935 20.9656Z" fill="var(--fill-0, white)"/>
</g>
</svg>
