<svg preserveAspectRatio="none" width="100%" height="100%" overflow="visible" style="display: block;" viewBox="0 0 7.89613 16.6801" fill="none" xmlns="http://www.w3.org/2000/svg">
<g id="Group">
<path id="Vector" d="M0.659817 15.3526C0.295126 15.3526 0 15.0575 0 14.6907V1.31521C0 1.16765 0.0505925 1.02219 0.141238 0.906251L0.6556 0.25276C0.88116 -0.0339331 1.29644 -0.0845258 1.58314 0.141034C1.86983 0.366594 1.92042 0.781877 1.69486 1.06857L1.32174 1.54288V14.6886C1.32174 15.0533 1.02661 15.3505 0.661924 15.3505L0.659817 15.3526Z" fill="var(--fill-0, white)"/>
<path id="Vector_2" d="M6.71993 16.6801C6.35524 16.6801 6.06011 16.3849 6.06011 16.0181V2.64263C6.06011 2.49507 6.11071 2.34961 6.20135 2.23367L6.71571 1.58018C6.94127 1.29349 7.35656 1.24289 7.64325 1.46845C7.92994 1.69401 7.98054 2.1093 7.75498 2.39599L7.38185 2.8703V16.016C7.38185 16.3807 7.08673 16.6779 6.72204 16.6779L6.71993 16.6801Z" fill="var(--fill-0, white)"/>
<path id="Vector_3" d="M6.72299 5.53987C6.66818 5.53987 6.61126 5.53354 6.55434 5.51879L0.493737 3.91879C0.141694 3.82603 -0.0691103 3.46345 0.0236434 3.11141C0.116397 2.75937 0.47898 2.54856 0.831022 2.64132L6.89163 4.24132C7.24367 4.33407 7.45448 4.69665 7.36172 5.04869C7.28373 5.34593 7.016 5.54197 6.72299 5.54197V5.53987Z" fill="var(--fill-0, white)"/>
<path id="Vector_4" d="M6.72299 8.18763C6.66818 8.18763 6.61126 8.1813 6.55434 8.16655L0.493737 6.56655C0.141694 6.47379 -0.0691103 6.11121 0.0236434 5.75917C0.116397 5.40712 0.47898 5.19632 0.831022 5.28908L6.89163 6.88908C7.24367 6.98183 7.45448 7.34441 7.36172 7.69645C7.28373 7.99369 7.016 8.18973 6.72299 8.18973V8.18763Z" fill="var(--fill-0, white)"/>
<path id="Vector_5" d="M6.72299 10.8372C6.66818 10.8372 6.61126 10.8308 6.55434 10.8161L0.493737 9.21608C0.141694 9.12332 -0.0691103 8.76074 0.0236434 8.4087C0.116397 8.05665 0.47898 7.84585 0.831022 7.93861L6.89163 9.53861C7.24367 9.63136 7.45448 9.99394 7.36172 10.346C7.28373 10.6432 7.016 10.8393 6.72299 10.8393V10.8372Z" fill="var(--fill-0, white)"/>
<path id="Vector_6" d="M6.72299 13.4867C6.66818 13.4867 6.61126 13.4804 6.55434 13.4656L0.493737 11.8656C0.141694 11.7729 -0.0691103 11.4103 0.0236434 11.0582C0.116397 10.7062 0.47898 10.4954 0.831022 10.5881L6.89163 12.1881C7.24367 12.2809 7.45448 12.6435 7.36172 12.9955C7.28373 13.2927 7.016 13.4888 6.72299 13.4888V13.4867Z" fill="var(--fill-0, white)"/>
<path id="Vector_7" d="M6.72299 16.1344C6.66818 16.1344 6.61126 16.1281 6.55434 16.1134L0.493737 14.5134C0.141694 14.4206 -0.0691103 14.058 0.0236434 13.706C0.116397 13.3539 0.47898 13.1431 0.831022 13.2359L6.89163 14.8359C7.24367 14.9286 7.45448 15.2912 7.36172 15.6433C7.28373 15.9405 7.016 16.1366 6.72299 16.1366V16.1344Z" fill="var(--fill-0, white)"/>
</g>
</svg>
