<svg preserveAspectRatio="none" width="100%" height="100%" overflow="visible" style="display: block;" viewBox="0 0 107.002 20.2087" fill="none" xmlns="http://www.w3.org/2000/svg">
<g id="&#236;&#136;&#152;&#235;&#138;&#165;&#236;&#157;&#152; &#235;&#179;&#184;&#236;&#167;&#136;">
<path id="Vector" d="M101.497 0.569562C101.37 0.506277 101.834 0 101.961 0C103.079 0 106.18 0.632847 106.116 1.16022C106.074 1.47664 106.032 1.87745 106.032 2.32044V6.72927C106.032 8.85985 105.441 10.3154 105.125 10.9693C104.935 11.1803 104.492 11.2858 104.239 11.2225C104.07 10.6318 103.712 9.70364 103.712 6.72927V2.27825C103.712 1.77197 102.024 0.822701 101.497 0.569562ZM100.885 11.0326C99.8512 9.76693 98.6699 8.48014 97.5307 7.23554C95.2736 9.40832 92.5312 10.9904 90.042 11.9819C89.7889 11.9608 89.5569 11.5811 89.5569 11.349C92.8688 9.34503 95.7798 6.53941 97.3831 3.88146L94.5564 3.90255C93.6915 3.90255 93.1008 4.1346 92.8266 4.38773C92.1304 4.19788 90.8436 3.14314 90.7593 2.8689C90.7382 2.78452 90.8858 2.53139 90.9702 2.55248C91.371 2.65796 92.8477 2.74233 94.261 2.72124L97.2143 2.67905C97.9104 2.67905 98.2901 2.57358 98.5433 2.34153C98.8386 2.23606 100.8 2.78452 100.674 3.03766C100.02 4.32445 99.1761 5.48467 98.2058 6.53941C99.7668 7.31992 101.18 7.88949 101.644 8.31138C102.129 8.77547 101.307 11.5178 100.885 11.0326ZM105.399 17.3822C105.652 17.3822 107.002 18.6479 107.002 19.2385C107.002 19.344 106.918 19.4073 106.749 19.4073H97.4885C95.8642 19.4073 95.2947 18.8588 95.2525 17.6142L95.2103 16.011C95.2103 15.7579 94.5774 15.4415 94.1555 15.2938C94.1344 15.1672 94.4931 14.7453 94.704 14.7453C95.1681 14.7453 96.8768 14.8297 97.5307 15.0617H103.121L103.163 13.2054H98.1847C97.3198 13.2054 96.7291 13.4374 96.4549 13.6695C95.7588 13.4796 94.472 12.4249 94.3876 12.1717C94.3665 12.0874 94.5142 11.8342 94.5985 11.8553C94.9993 11.9608 96.476 12.0241 97.8893 12.0241H102.235C102.931 12.0241 103.311 11.8764 103.564 11.6022C103.859 11.5811 105.8 11.8764 105.737 12.1717L105.125 14.9563C105.589 15.2727 105.863 15.8633 105.863 16.011C105.863 16.1376 105.8 16.222 105.673 16.222H97.5307V17.2345C97.5307 18.0361 97.7628 18.226 98.8597 18.226H103.184C104.682 18.226 105.167 17.3822 105.399 17.3822Z" fill="var(--fill-0, white)"/>
<path id="Vector_2" d="M85.8029 10.927C86.056 10.927 87.4061 12.2137 87.4061 12.8044C87.4061 12.9099 87.3217 12.9732 87.153 12.9732L71.9225 12.9943C71.0576 12.9943 70.4669 13.2263 70.2138 13.4583C69.5177 13.2685 68.2098 12.2137 68.1465 11.9606C68.1254 11.8762 68.252 11.602 68.3574 11.6231C68.7582 11.7497 70.2349 11.8129 71.6482 11.8129L76.8587 11.7918L76.711 9.04951H74.3695C74.264 9.34484 74.1163 9.64017 74.0109 9.9355C73.821 10.1464 73.4202 10.2519 73.1249 10.1886C72.8928 9.61907 72.5342 8.05805 72.4288 6.13842L72.2811 3.45937C72.26 3.05857 71.4584 2.46791 70.931 2.21477C70.8045 2.15149 71.2685 1.6874 71.3951 1.6874C72.492 1.6874 74.7281 2.19368 74.6859 2.48901C74.6437 2.80543 74.6015 3.22733 74.6015 3.64923V4.1766L81.1198 4.11331V2.5101C81.1198 2.13039 80.2971 1.51864 79.7698 1.2655C79.6432 1.20222 80.1073 0.780322 80.2339 0.780322C81.3519 0.780322 83.609 1.2866 83.5669 1.58193C83.5247 1.89835 83.4614 2.32025 83.4614 2.74215L83.3981 5.63214C83.3348 8.14243 82.8496 9.45032 82.5754 9.9355C82.3855 10.1464 81.9425 10.2519 81.6894 10.1886C81.5628 9.85112 81.3941 9.47141 81.2886 9.02842H79.2213L79.0526 11.7918L83.5879 11.7708C85.0857 11.7708 85.5709 10.927 85.8029 10.927ZM81.1409 7.82601V5.33682L74.6015 5.35791V7.8682L81.1409 7.82601ZM83.377 17.4664C83.6512 17.4664 85.0013 18.7532 85.0013 19.3438C85.0013 19.4493 84.8958 19.5126 84.7271 19.5126L74.9601 19.5337C72.8928 19.5337 72.4709 18.8375 72.4709 17.4664V15.7788C72.4709 15.4202 71.6693 14.8506 71.2685 14.724C71.1209 14.6818 71.6061 14.1123 71.7959 14.1123C72.6397 14.1123 73.8843 14.3232 74.5382 14.5342C74.6648 14.5764 74.8758 14.6397 74.8125 14.935C74.7703 15.2303 74.7703 15.6733 74.7703 16.0741V17.4875C74.7703 18.2469 75.0445 18.3313 75.6985 18.3313L81.162 18.3102C82.6598 18.3102 83.166 17.4664 83.377 17.4664Z" fill="var(--fill-0, white)"/>
<path id="Vector_3" d="M55.1214 0C56.2394 0 59.3404 0.632847 59.2771 1.16022C59.2349 1.47664 59.1927 1.87744 59.1927 2.32044V13.1632C59.1927 16.6228 58.6021 19.1331 58.3067 19.8925C58.1169 20.1034 57.6739 20.2089 57.4208 20.1456C57.2309 19.555 56.8934 17.6775 56.8934 14.5555V2.27825C56.8934 1.77197 55.2058 0.822701 54.6784 0.569562C54.5518 0.506277 54.9948 0 55.1214 0ZM49.1094 10.9271C46.1983 10.9271 44.2786 9.36613 44.2786 7.06678C44.2786 4.87292 45.9873 3.37518 48.6242 3.22752C48.6453 3.14314 48.6664 3.07985 48.6664 2.99547C48.6664 2.78452 48.6031 2.55248 48.3078 2.34153C48.3078 1.83525 49.9321 2.34153 49.9321 2.59467C49.9321 2.70014 49.8055 2.99547 49.7211 3.22752C52.2736 3.43847 53.919 4.91511 53.919 7.06678C53.919 9.36613 51.9994 10.9271 49.1094 10.9271ZM49.0672 4.38773C47.6116 4.38773 46.6413 5.44248 46.6413 7.0035C46.6413 8.60671 47.5905 9.66145 49.025 9.66145C50.5438 9.66145 51.5564 8.60671 51.5564 7.0035C51.5564 5.44248 50.5649 4.38773 49.0672 4.38773ZM55.9652 12.235C56.1762 12.1717 56.1129 13.2265 55.7543 13.3531C53.4971 14.1969 48.7297 14.9985 46.3459 15.3571C45.3967 15.5047 44.9115 15.7368 44.4685 16.0321C43.7302 15.8212 42.3801 14.4078 42.2535 14.0281C42.2324 13.9648 42.3801 13.6906 42.4223 13.6906C43.2239 13.6906 44.5107 13.7328 45.924 13.6484C50.7126 13.3531 54.3198 12.6991 55.9652 12.235Z" fill="var(--fill-0, white)"/>
<path id="Vector_4" d="M23.206 1.5608C23.0794 1.51861 23.5646 0.949049 23.7545 0.949049C24.5982 0.949049 25.8428 1.16 26.4968 1.37095C26.6234 1.41314 26.8132 1.47642 26.771 1.75065C26.7288 2.06708 26.7288 2.51007 26.7288 2.88978V4.93598C26.7288 5.6954 27.0031 5.77978 27.657 5.77978L33.5003 5.75868C34.998 5.75868 35.4832 4.91489 35.7152 4.91489C35.9684 4.91489 37.3185 6.20167 37.3185 6.79233C37.3185 6.8978 37.2341 6.96109 37.0653 6.96109L26.9187 6.98218C24.8514 6.98218 24.4295 6.28605 24.4295 4.91489V2.61554C24.4295 2.25693 23.6279 1.68737 23.206 1.5608ZM38.542 8.69087C38.7951 8.69087 40.1452 9.97766 40.1452 10.5472C40.1452 10.6738 40.0608 10.7371 39.892 10.7371L24.6615 10.7582C23.7966 10.7582 23.206 10.9902 22.9528 11.2223C22.2567 11.0324 20.9488 9.97766 20.8855 9.72452C20.8645 9.64014 20.991 9.3659 21.0965 9.387C21.4973 9.49247 22.9739 9.57685 24.3873 9.57685L36.327 9.51357C37.8247 9.51357 38.3099 8.69087 38.542 8.69087ZM31.3908 13.2263C33.8167 13.4161 35.3777 14.7662 35.3777 16.7069C35.3777 18.8164 33.5425 20.2087 30.779 20.2087C27.9945 20.2087 26.1593 18.8164 26.1593 16.7069C26.1593 14.724 27.7836 13.3739 30.2939 13.2263C30.315 13.1419 30.3361 13.0786 30.3361 13.0153C30.3361 12.8044 30.2728 12.5512 29.9774 12.3403C29.9774 11.8551 31.6017 12.3403 31.6017 12.5934C31.6017 12.72 31.4752 12.9942 31.3908 13.2263ZM30.6947 18.943C32.1291 18.943 33.0784 18.0359 33.0784 16.6647C33.0784 15.2936 32.1502 14.3865 30.7369 14.3865C29.3657 14.3865 28.4586 15.2936 28.4586 16.6647C28.4586 18.0359 29.3446 18.943 30.6947 18.943Z" fill="var(--fill-0, white)"/>
<path id="Vector_5" d="M1.73225 9.97782C1.45802 9.95672 1.22598 9.59811 1.22598 9.34497C4.34802 7.91052 7.78648 5.02052 8.88342 2.6368C8.98889 2.40476 8.18729 1.75081 7.78648 1.51877C7.68101 1.45549 8.20838 1.05468 8.35604 1.05468C9.09437 1.05468 11.3515 1.94067 11.8367 2.29928C12.0898 2.48914 12.1742 2.6579 12.0055 2.93213C11.5836 3.62826 11.0562 4.26111 10.4866 4.87286C12.786 5.44242 15.4228 6.30731 16.4565 6.7714C17.1315 7.06672 17.026 9.80906 16.5198 9.47154C14.5368 8.18475 11.9211 6.7503 9.72721 5.61118C7.28021 7.82614 4.05269 9.36606 1.73225 9.97782ZM17.6589 10.1888C17.912 10.1888 19.2621 11.4756 19.2621 12.0662C19.2621 12.1717 19.1777 12.235 19.009 12.235H10.9085V14.4921C10.9085 17.0235 10.3179 19.1119 10.0014 19.8713C9.81159 20.0823 9.3686 20.1877 9.11546 20.1245C8.9467 19.5338 8.56699 18.0782 8.56699 15.3992V12.2561H3.79955C2.91357 12.2561 2.32291 12.4881 2.06977 12.7201C1.37364 12.5303 0.0657581 11.4756 0.00247349 11.2224C-0.0186214 11.138 0.107947 10.8849 0.213421 10.906C0.614224 11.0115 2.09087 11.0747 3.50422 11.0747L15.4439 11.0326C16.9417 11.0326 17.4268 10.1888 17.6589 10.1888Z" fill="var(--fill-0, white)"/>
</g>
</svg>
