<svg preserveAspectRatio="none" width="100%" height="100%" overflow="visible" style="display: block;" viewBox="0 0 27.8991 28" fill="none" xmlns="http://www.w3.org/2000/svg">
<path id="Rectangle 12644" d="M0.417308 0.77735C0.19579 0.445073 0.433986 4.78839e-07 0.833334 4.71748e-07L27.3991 0C27.6752 -4.90367e-09 27.8991 0.223858 27.8991 0.5V27.5C27.8991 27.7761 27.6752 28 27.3991 28H0.833334C0.433986 28 0.19579 27.5549 0.417308 27.2226L2.04751 24.7773C2.15947 24.6094 2.15947 24.3906 2.04751 24.2226L0.0839747 21.2773C-0.0279918 21.1094 -0.0279915 20.8906 0.083975 20.7226L2.04751 17.7773C2.15947 17.6094 2.15947 17.3906 2.04751 17.2226L0.0839747 14.2773C-0.0279917 14.1094 -0.0279914 13.8906 0.083975 13.7226L2.04751 10.7773C2.15947 10.6094 2.15947 10.3906 2.04751 10.2226L0.0839747 7.27735C-0.0279917 7.1094 -0.0279915 6.8906 0.083975 6.72265L2.04751 3.77735C2.15947 3.6094 2.15947 3.3906 2.04751 3.22265L0.417308 0.77735Z" fill="url(#paint0_linear_1362_6408)"/>
<defs>
<linearGradient id="paint0_linear_1362_6408" x1="0.398829" y1="28" x2="28.3988" y2="1.78669e-06" gradientUnits="userSpaceOnUse">
<stop stop-color="#0360EF"/>
<stop offset="1" stop-color="#3D82F5"/>
</linearGradient>
</defs>
</svg>
