<svg preserveAspectRatio="none" width="100%" height="100%" overflow="visible" style="display: block;" viewBox="0 0 28 28" fill="none" xmlns="http://www.w3.org/2000/svg">
<g id="Group 1272629334">
<path id="Rectangle 12644" d="M0.777352 27.4818C0.445074 27.7033 1.68825e-06 27.4651 1.66371e-06 27.0657L3.0734e-08 0.500001C1.37597e-08 0.223859 0.223858 1.19228e-06 0.5 1.18021e-06L27.5 0C27.7761 -1.20706e-08 28 0.223858 28 0.5L28 27.0657C28 27.4651 27.5549 27.7033 27.2226 27.4818L24.7773 25.8516C24.6094 25.7396 24.3906 25.7396 24.2226 25.8516L21.2774 27.8151C21.1094 27.9271 20.8906 27.9271 20.7227 27.8151L17.7773 25.8516C17.6094 25.7396 17.3906 25.7396 17.2227 25.8516L14.2773 27.8151C14.1094 27.9271 13.8906 27.9271 13.7227 27.8151L10.7774 25.8516C10.6094 25.7396 10.3906 25.7396 10.2227 25.8516L7.27735 27.8151C7.1094 27.9271 6.8906 27.9271 6.72265 27.8151L3.77735 25.8516C3.6094 25.7396 3.3906 25.7396 3.22265 25.8516L0.777352 27.4818Z" fill="var(--fill-0, #0360EF)"/>
<path id="Union" d="M19.583 8.67381L19.4756 8.791L13.1533 15.6621H20V19H8V16.3047L8.10742 16.1875L14.3896 9.35838H8.43652V5.99999H19.583V8.67381Z" fill="url(#paint0_linear_1362_6542)"/>
</g>
<defs>
<linearGradient id="paint0_linear_1362_6542" x1="14" y1="5.99999" x2="14" y2="19" gradientUnits="userSpaceOnUse">
<stop stop-color="white"/>
<stop offset="1" stop-color="white" stop-opacity="0.8"/>
</linearGradient>
</defs>
</svg>
