<svg preserveAspectRatio="none" width="100%" height="100%" overflow="visible" style="display: block;" viewBox="0 0 105.607 19.9998" fill="none" xmlns="http://www.w3.org/2000/svg">
<g id="Group 1272629335">
<path id="Vector" d="M23.3025 15.8866C23.4576 15.9355 23.6127 15.9692 23.7695 15.9878C23.9245 15.9979 24.0796 16.0029 24.2364 16.0029C24.6258 16.0029 25 15.949 25.3591 15.8428C25.7181 15.7366 26.0536 15.5849 26.3638 15.391C26.6841 15.1871 26.9656 14.9443 27.21 14.6628C27.4629 14.3712 27.6668 14.0509 27.8219 13.7003L30.7365 16.63C30.3673 17.1543 29.9392 17.6263 29.4537 18.0443C28.9783 18.4624 28.4574 18.8164 27.8944 19.108C27.3415 19.3997 26.7532 19.6188 26.1311 19.7638C25.5192 19.9189 24.8871 19.9964 24.2364 19.9964C23.139 19.9964 22.104 19.7924 21.133 19.3845C20.1705 18.9765 19.3259 18.4085 18.5977 17.6802C17.8779 16.952 17.3098 16.0872 16.8917 15.0859C16.4737 14.0762 16.2646 12.9687 16.2646 11.7634C16.2646 10.5581 16.4737 9.40169 16.8917 8.38183C17.3098 7.36197 17.8779 6.49214 18.5977 5.77234C19.3259 5.05423 20.1721 4.49457 21.133 4.09674C22.104 3.69891 23.139 3.5 24.2364 3.5C24.8871 3.5 25.5243 3.57754 26.1463 3.73263C26.7683 3.88771 27.3567 4.11191 27.9096 4.40354C28.4726 4.69517 28.9985 5.05423 29.484 5.4824C29.9695 5.90046 30.3977 6.37077 30.7669 6.89671L23.3059 15.8883L23.3025 15.8866ZM25.3439 7.68226C25.1585 7.61483 24.9747 7.571 24.7893 7.55077C24.614 7.53054 24.4303 7.52212 24.2347 7.52212C23.6902 7.52212 23.1761 7.62494 22.6906 7.82892C22.2152 8.02277 21.7972 8.30429 21.4381 8.67346C21.0875 9.04263 20.811 9.48934 20.6071 10.0136C20.4031 10.5277 20.3003 11.111 20.3003 11.7617C20.3003 11.9067 20.3053 12.0719 20.3154 12.2573C20.334 12.4427 20.3593 12.6315 20.3879 12.8254C20.4267 13.0108 20.4705 13.1895 20.5194 13.3648C20.5683 13.5401 20.6306 13.6952 20.7082 13.8317L25.3422 7.68226H25.3439Z" fill="var(--fill-0, #A9B1C1)"/>
<path id="Vector_2" d="M39.7283 4.2363C39.6946 4.2363 39.6626 4.23799 39.6289 4.23799V4.23462H38.4995C35.332 4.23462 32.7646 6.80196 32.7646 9.96942V19.814H36.7109V11.2152C36.7109 10.7971 36.7884 10.4043 36.9435 10.0352C37.0986 9.66599 37.3127 9.34571 37.5841 9.07262C37.8555 8.80122 38.1775 8.58713 38.5466 8.43205C38.9158 8.27696 39.3086 8.19942 39.7266 8.19942H43.2397V4.23462H39.7266L39.7283 4.2363Z" fill="var(--fill-0, #A9B1C1)"/>
<path id="Vector_3" d="M60.7065 11.7651C60.7065 12.9316 60.4974 14.0189 60.0794 15.0303C59.6613 16.0316 59.0932 16.9014 58.3751 17.6381C57.657 18.3663 56.8108 18.9445 55.8398 19.3727C54.8773 19.7907 53.8422 19.9998 52.7347 19.9998C51.6272 19.9998 50.6023 19.7907 49.6313 19.3727C48.6688 18.9445 47.8242 18.368 47.096 17.6381C46.3779 16.8997 45.8081 16.0299 45.3917 15.0303C44.9737 14.0205 44.7646 12.9316 44.7646 11.7651C44.7646 10.5985 44.9737 9.4826 45.3917 8.47117C45.8098 7.46143 46.3779 6.5916 47.096 5.86169C47.8242 5.12334 48.6704 4.54514 49.6313 4.12709C50.6023 3.70903 51.6373 3.5 52.7347 3.5C53.8321 3.5 54.8773 3.69891 55.8398 4.09674C56.8108 4.48614 57.657 5.04411 58.3751 5.77234C59.0932 6.49214 59.663 7.36029 60.0794 8.38183C60.4974 9.39157 60.7065 10.5193 60.7065 11.7634V11.7651ZM56.6995 11.7651C56.6995 11.1245 56.5933 10.5463 56.3792 10.0305C56.1753 9.5062 55.8937 9.05949 55.5347 8.69031C55.1756 8.31103 54.7525 8.02446 54.267 7.8306C53.7916 7.62663 53.2809 7.5238 52.7364 7.5238C52.1919 7.5238 51.6778 7.62663 51.1923 7.8306C50.7169 8.02446 50.2988 8.31103 49.9398 8.69031C49.5908 9.05949 49.3127 9.5062 49.1087 10.0305C48.9048 10.5446 48.8019 11.1228 48.8019 11.7651C48.8019 12.3669 48.9048 12.9265 49.1087 13.4407C49.3127 13.9548 49.5892 14.4032 49.9398 14.7808C50.2988 15.1601 50.7169 15.4618 51.1923 15.6843C51.6778 15.8984 52.1936 16.0046 52.7364 16.0046C53.2792 16.0046 53.79 15.9035 54.267 15.6995C54.7525 15.4955 55.1756 15.209 55.5347 14.8398C55.8937 14.4706 56.1753 14.0239 56.3792 13.4997C56.5933 12.9754 56.6995 12.3972 56.6995 11.7651Z" fill="var(--fill-0, #A9B1C1)"/>
<path id="Vector_4" d="M82.1424 15.8866C82.2974 15.9355 82.4525 15.9692 82.6093 15.9878C82.7644 15.9979 82.9195 16.0029 83.0762 16.0029C83.4656 16.0029 83.8399 15.949 84.1989 15.8428C84.558 15.7366 84.8934 15.5849 85.2036 15.391C85.5239 15.1871 85.8054 14.9443 86.0498 14.6628C86.3027 14.3712 86.5067 14.0509 86.6618 13.7003L89.5764 16.63C89.2072 17.1543 88.779 17.6263 88.2935 18.0443C87.8182 18.4624 87.2973 18.8164 86.7342 19.108C86.1813 19.3997 85.593 19.6188 84.971 19.7638C84.3591 19.9189 83.7269 19.9964 83.0762 19.9964C81.9788 19.9964 80.9438 19.7924 79.9728 19.3845C79.0103 18.9765 78.1658 18.4085 77.4375 17.6802C76.7177 16.952 76.1496 16.0872 75.7316 15.0859C75.3135 14.0762 75.1045 12.9687 75.1045 11.7634C75.1045 10.5581 75.3135 9.40169 75.7316 8.38183C76.1496 7.36197 76.7177 6.49214 77.4375 5.77234C78.1658 5.05423 79.012 4.49457 79.9728 4.09674C80.9438 3.69891 81.9788 3.5 83.0762 3.5C83.7269 3.5 84.3641 3.57754 84.9862 3.73263C85.6082 3.88771 86.1965 4.11191 86.7494 4.40354C87.3124 4.69517 87.8384 5.05423 88.3239 5.4824C88.8093 5.90046 89.2375 6.37077 89.6067 6.89671L82.1457 15.8883L82.1424 15.8866ZM84.1837 7.68226C83.9983 7.61483 83.8146 7.571 83.6292 7.55077C83.4538 7.53054 83.2701 7.52212 83.0746 7.52212C82.5301 7.52212 82.0159 7.62494 81.5304 7.82892C81.0551 8.02277 80.637 8.30429 80.278 8.67346C79.9273 9.04263 79.6509 9.48934 79.4469 10.0136C79.2429 10.5277 79.1401 11.111 79.1401 11.7617C79.1401 11.9067 79.1452 12.0719 79.1553 12.2573C79.1738 12.4427 79.1991 12.6315 79.2278 12.8254C79.2665 13.0108 79.3103 13.1895 79.3592 13.3648C79.4081 13.5401 79.4705 13.6952 79.548 13.8317L84.1821 7.68226H84.1837Z" fill="var(--fill-0, #A9B1C1)"/>
<path id="Vector_5" d="M98.1424 15.8866C98.2974 15.9355 98.4525 15.9692 98.6093 15.9878C98.7644 15.9979 98.9195 16.0029 99.0762 16.0029C99.4656 16.0029 99.8399 15.949 100.199 15.8428C100.558 15.7366 100.893 15.5849 101.204 15.391C101.524 15.1871 101.805 14.9443 102.05 14.6628C102.303 14.3712 102.507 14.0509 102.662 13.7003L105.576 16.63C105.207 17.1543 104.779 17.6263 104.294 18.0443C103.818 18.4624 103.297 18.8164 102.734 19.108C102.181 19.3997 101.593 19.6188 100.971 19.7638C100.359 19.9189 99.7269 19.9964 99.0762 19.9964C97.9788 19.9964 96.9438 19.7924 95.9728 19.3845C95.0103 18.9765 94.1658 18.4085 93.4375 17.6802C92.7177 16.952 92.1496 16.0872 91.7316 15.0859C91.3135 14.0762 91.1045 12.9687 91.1045 11.7634C91.1045 10.5581 91.3135 9.40169 91.7316 8.38183C92.1496 7.36197 92.7177 6.49214 93.4375 5.77234C94.1658 5.05423 95.012 4.49457 95.9728 4.09674C96.9438 3.69891 97.9788 3.5 99.0762 3.5C99.7269 3.5 100.364 3.57754 100.986 3.73263C101.608 3.88771 102.196 4.11191 102.749 4.40354C103.312 4.69517 103.838 5.05423 104.324 5.4824C104.809 5.90046 105.238 6.37077 105.607 6.89671L98.1457 15.8883L98.1424 15.8866ZM100.184 7.68226C99.9983 7.61483 99.8146 7.571 99.6292 7.55077C99.4538 7.53054 99.2701 7.52212 99.0746 7.52212C98.5301 7.52212 98.0159 7.62494 97.5304 7.82892C97.0551 8.02277 96.637 8.30429 96.278 8.67346C95.9273 9.04263 95.6509 9.48934 95.4469 10.0136C95.2429 10.5277 95.1401 11.111 95.1401 11.7617C95.1401 11.9067 95.1452 12.0719 95.1553 12.2573C95.1738 12.4427 95.1991 12.6315 95.2278 12.8254C95.2665 13.0108 95.3103 13.1895 95.3592 13.3648C95.4081 13.5401 95.4705 13.6952 95.548 13.8317L100.182 7.68226H100.184Z" fill="var(--fill-0, #A9B1C1)"/>
<path id="Union" d="M73.8682 3.92773H71.1357C70.7086 3.92778 70.4909 4.04008 70.3682 4.15918C70.2141 4.33174 70.124 4.55887 70.124 4.94043V5.13574H73.6279V9.06445H70.124V19.8877H65.332V9.06445H62.5V5.13574H65.332V4.05176C65.3321 3.44092 65.4385 2.86978 65.6592 2.3457L65.6631 2.33691L65.75 2.1543C65.9614 1.73751 66.2361 1.38062 66.5713 1.06934L66.5791 1.0625L66.5869 1.05664C66.9642 0.733222 67.4017 0.459491 67.9473 0.268555L67.9541 0.265625L68.3213 0.157227C68.6991 0.0603286 69.1097 2.20454e-05 69.5518 0H73.8682V3.92773Z" fill="var(--fill-0, #A9B1C1)"/>
<path id="Union_2" d="M14.4785 7.04102L14.3438 7.18555L6.44141 15.6426H15V19.75H0V16.4326L0.134766 16.2891L7.98633 7.88379H0.545898V3.75H14.4785V7.04102Z" fill="var(--fill-0, #A9B1C1)"/>
</g>
</svg>
