<svg preserveAspectRatio="none" width="100%" height="100%" overflow="visible" style="display: block;" viewBox="0 0 15.2866 14.4542" fill="none" xmlns="http://www.w3.org/2000/svg">
<path id="Icon" d="M11.9416 11.3963L11.5602 10.7505V10.7505L11.9416 11.3963ZM12.2693 10.8223H11.5193V10.8223H12.2693ZM6.95369 13.4961L6.55135 14.1291V14.1291L6.95369 13.4961ZM8.34691 13.519L8.72826 14.1648L8.34691 13.519ZM0.91269 4.65163L0.528744 4.00736L0.91269 4.65163ZM0.912691 5.22431L0.528745 5.86858H0.528745L0.912691 5.22431ZM7.98458 9.03195L8.36853 9.67623L7.98458 9.03195ZM7.30201 9.03195L7.68596 8.38768V8.38768L7.30201 9.03195ZM14.3739 4.65163L14.7578 4.00736L14.3739 4.65163ZM14.3739 5.22431L13.99 4.58004L14.3739 5.22431ZM3.65501 11.3993L4.05735 10.7663V10.7663L3.65501 11.3993ZM7.98458 0.843981L7.60064 1.48825V1.48825L7.98458 0.843981ZM7.30201 0.843981L7.68596 1.48825V1.48825L7.30201 0.843981ZM15.1933 4.92687C15.1933 4.51266 14.8575 4.17687 14.4433 4.17687C14.0291 4.17687 13.6933 4.51266 13.6933 4.92687H14.4433H15.1933ZM13.6933 8.52687C13.6933 8.94109 14.0291 9.27687 14.4433 9.27687C14.8575 9.27687 15.1933 8.94109 15.1933 8.52687H14.4433H13.6933ZM7.98458 0.843981L7.60064 1.48825L13.99 5.2959L14.3739 4.65163L14.7578 4.00736L8.36853 0.19971L7.98458 0.843981ZM14.3739 5.22431L13.99 4.58004L7.60064 8.38768L7.98458 9.03195L8.36853 9.67623L14.7578 5.86858L14.3739 5.22431ZM0.91269 4.65163L1.29664 5.2959L7.68596 1.48825L7.30201 0.843981L6.91807 0.19971L0.528744 4.00736L0.91269 4.65163ZM7.30201 9.03195L7.68596 8.38768L3.72993 6.03013L3.34598 6.67441L2.96204 7.31868L6.91807 9.67623L7.30201 9.03195ZM3.34598 6.67441L3.72993 6.03013L1.29664 4.58004L0.912691 5.22431L0.528745 5.86858L2.96204 7.31868L3.34598 6.67441ZM3.34598 6.67441H2.59598V10.8367H3.34598H4.09598V6.67441H3.34598ZM3.65501 11.3993L3.25268 12.0322L6.55135 14.1291L6.95369 13.4961L7.35603 12.8632L4.05735 10.7663L3.65501 11.3993ZM8.34691 13.519L8.72826 14.1648L12.3229 12.0422L11.9416 11.3963L11.5602 10.7505L7.96556 12.8732L8.34691 13.519ZM12.2693 10.8223L13.0193 10.8223L13.0193 6.67441H12.2693L11.5193 6.6744L11.5193 10.8223H12.2693ZM11.9416 11.3963L12.3229 12.0422C12.7545 11.7873 13.0193 11.3235 13.0193 10.8223H12.2693H11.5193C11.5193 10.7928 11.5348 10.7655 11.5602 10.7505L11.9416 11.3963ZM6.95369 13.4961L6.55135 14.1291C7.21255 14.5493 8.05364 14.5632 8.72826 14.1648L8.34691 13.519L7.96557 12.8732C7.77667 12.9847 7.54116 12.9808 7.35603 12.8632L6.95369 13.4961ZM0.91269 4.65163L0.528744 4.00736C-0.17625 4.42749 -0.176246 5.44845 0.528745 5.86858L0.912691 5.22431L1.29664 4.58004C1.56779 4.74163 1.56779 5.13431 1.29664 5.2959L0.91269 4.65163ZM7.98458 9.03195L7.60064 8.38768C7.62692 8.37202 7.65967 8.37202 7.68596 8.38768L7.30201 9.03195L6.91807 9.67623C7.36489 9.94251 7.9217 9.94251 8.36853 9.67623L7.98458 9.03195ZM14.3739 4.65163L13.99 5.2959C13.7188 5.13431 13.7188 4.74163 13.99 4.58004L14.3739 5.22431L14.7578 5.86858C15.4628 5.44845 15.4628 4.42749 14.7578 4.00736L14.3739 4.65163ZM3.34598 10.8367H2.59598C2.59598 11.3213 2.8437 11.7723 3.25268 12.0322L3.65501 11.3993L4.05735 10.7663C4.08141 10.7816 4.09598 10.8082 4.09598 10.8367H3.34598ZM7.98458 0.843981L8.36853 0.19971C7.9217 -0.0665694 7.36489 -0.0665707 6.91807 0.19971L7.30201 0.843981L7.68596 1.48825C7.65967 1.50392 7.62692 1.50392 7.60064 1.48825L7.98458 0.843981ZM14.4433 4.92687H13.6933V8.52687H14.4433H15.1933V4.92687H14.4433Z" fill="var(--stroke-0, #F8FAFF)"/>
</svg>
