<svg preserveAspectRatio="none" width="100%" height="100%" overflow="visible" style="display: block;" viewBox="0 0 49.5007 20.0448" fill="none" xmlns="http://www.w3.org/2000/svg">
<g id="Group 1707485480">
<path id="Vector" d="M7.03786 15.935C7.19294 15.9839 7.34803 16.0176 7.50481 16.0362C7.65989 16.0463 7.81498 16.0513 7.97175 16.0513C8.36115 16.0513 8.73538 15.9974 9.09443 15.8912C9.45349 15.785 9.78895 15.6333 10.0991 15.4394C10.4194 15.2355 10.7009 14.9927 10.9453 14.7112C11.1982 14.4196 11.4022 14.0993 11.5573 13.7487L14.4719 16.6784C14.1027 17.2027 13.6745 17.6747 13.189 18.0927C12.7137 18.5108 12.1928 18.8648 11.6297 19.1564C11.0768 19.4481 10.4885 19.6672 9.86649 19.8122C9.25458 19.9673 8.62244 20.0448 7.97175 20.0448C6.87435 20.0448 5.83932 19.8408 4.86834 19.4329C3.9058 19.0249 3.06126 18.4569 2.33303 17.7286C1.61323 17.0004 1.04514 16.1356 0.627086 15.1343C0.209029 14.1246 0 13.0171 0 11.8118C0 10.6065 0.209029 9.45009 0.627086 8.43023C1.04514 7.41037 1.61323 6.54054 2.33303 5.82074C3.06126 5.10263 3.90749 4.54297 4.86834 4.14514C5.83932 3.74732 6.87435 3.5484 7.97175 3.5484C8.62244 3.5484 9.25963 3.62594 9.88166 3.78103C10.5037 3.93611 11.092 4.16032 11.6449 4.45194C12.2079 4.74357 12.7339 5.10263 13.2194 5.5308C13.7049 5.94886 14.133 6.41917 14.5022 6.94512L7.04123 15.9367L7.03786 15.935ZM9.07926 7.73066C8.89383 7.66323 8.71009 7.6194 8.52466 7.59917C8.34935 7.57894 8.16561 7.57052 7.97006 7.57052C7.42558 7.57052 6.91143 7.67334 6.42594 7.87732C5.95057 8.07117 5.53252 8.35269 5.17346 8.72186C4.82283 9.09103 4.54637 9.53775 4.3424 10.062C4.13843 10.5761 4.0356 11.1594 4.0356 11.8101C4.0356 11.9551 4.04066 12.1203 4.05078 12.3057C4.06932 12.4911 4.0946 12.6799 4.12326 12.8738C4.16203 13.0592 4.20586 13.2379 4.25474 13.4132C4.30363 13.5885 4.366 13.7436 4.44354 13.8801L9.07758 7.73066H9.07926Z" fill="var(--fill-0, white)"/>
<path id="Vector_2" d="M27.9332 0V5.24254C27.7191 4.93237 27.4578 4.6694 27.1459 4.45532C26.8358 4.24123 26.5003 4.07097 26.1413 3.94454C25.7906 3.808 25.4265 3.71192 25.0489 3.65292C24.6797 3.59392 24.3207 3.56526 23.9701 3.56526C22.8727 3.56526 21.8376 3.77429 20.8667 4.19234C19.9041 4.6104 19.0596 5.1886 18.3313 5.92695C17.6132 6.66529 17.0435 7.54017 16.6271 8.54992C16.209 9.55966 16 10.6537 16 11.8286C16 13.0036 16.209 14.1111 16.6271 15.1225C17.0451 16.1238 17.6132 16.9937 18.3313 17.732C19.0596 18.4602 19.9058 19.0334 20.8667 19.4514C21.8376 19.8594 22.8541 20.0448 23.9515 20.0448C28.3647 20.0448 31.9418 16.4677 31.9418 12.0545V0H27.9332ZM22.4243 15.7344C21.9489 15.5102 21.5308 15.2051 21.1718 14.8157C20.8211 14.4263 20.5447 13.9745 20.3407 13.4604C20.1367 12.9463 20.0339 12.4018 20.0339 11.8286C20.0339 11.1678 20.1351 10.5761 20.3407 10.0502C20.5447 9.52595 20.8211 9.08429 21.1718 8.72355C21.5308 8.35437 21.9489 8.07286 22.4243 7.879C22.9097 7.68515 23.4256 7.58737 23.9684 7.58737C24.5112 7.58737 25.0219 7.70875 25.499 7.95149C25.9845 8.18412 26.4076 8.50103 26.7667 8.89886C27.1257 9.28826 27.4072 9.74003 27.6112 10.2542C27.8253 10.7599 27.9315 11.2841 27.9315 11.8286C27.9315 12.3731 27.8253 12.9024 27.6112 13.4166C27.4072 13.9223 27.1257 14.3741 26.7667 14.7719C26.4076 15.1613 25.9845 15.4765 25.499 15.7193C25.0236 15.9519 24.5129 16.0682 23.9684 16.0682C23.4239 16.0682 22.9097 15.9569 22.4243 15.7327V15.7344Z" fill="var(--fill-0, white)"/>
<path id="Vector 784 (Stroke)" d="M45.4705 3.8H49.4705L49.5007 19.7552H45.5007V19.1195C43.0144 20.433 39.9637 20.2559 37.6315 18.5843C35.6665 17.1758 34.5008 14.9063 34.5007 12.4886L34.4705 3.8H38.4705L38.5007 12.4886C38.5008 13.6168 39.0446 14.6761 39.9616 15.3333C41.1805 16.207 42.8208 16.207 44.0397 15.3333C44.8996 14.717 45.4318 13.7472 45.4948 12.6986L45.5007 12.4886L45.4705 3.8Z" fill="var(--fill-0, white)"/>
</g>
</svg>
