<svg preserveAspectRatio="none" width="100%" height="100%" overflow="visible" style="display: block;" viewBox="0 0 16 16" fill="none" xmlns="http://www.w3.org/2000/svg">
<g id="Group 1272629334">
<path id="Rectangle 12644" d="M0.777351 15.4818C0.445074 15.7033 1.4105e-06 15.4651 1.37286e-06 15.0657L0 0.500002C-2.60271e-08 0.22386 0.223858 2.37859e-06 0.5 2.3717e-06L15.5 1.99703e-06C15.7761 1.99013e-06 16 0.22386 16 0.500002L16 15.0657C16 15.4651 15.5549 15.7033 15.2226 15.4818L14.2774 14.8516C14.1094 14.7396 13.8906 14.7396 13.7227 14.8516L12.2774 15.8151C12.1094 15.9271 11.8906 15.9271 11.7227 15.8151L10.2774 14.8516C10.1094 14.7396 9.8906 14.7396 9.72265 14.8516L8.27735 15.8151C8.1094 15.9271 7.8906 15.9271 7.72265 15.8151L6.27735 14.8516C6.1094 14.7396 5.8906 14.7396 5.72265 14.8516L4.27735 15.8151C4.1094 15.9271 3.8906 15.9271 3.72265 15.8151L2.27735 14.8516C2.1094 14.7396 1.8906 14.7396 1.72265 14.8516L0.777351 15.4818Z" fill="var(--fill-0, #0360EF)"/>
<path id="Union" d="M11.1904 4.95593L11.1289 5.02332L7.51563 8.95007H11.4287V10.8573H4.57129V9.31628L4.63281 9.24988L8.22266 5.34753H4.82129V3.42859H11.1904V4.95593Z" fill="url(#paint0_linear_1362_6314)"/>
</g>
<defs>
<linearGradient id="paint0_linear_1362_6314" x1="8" y1="3.42859" x2="8" y2="10.8573" gradientUnits="userSpaceOnUse">
<stop stop-color="white"/>
<stop offset="1" stop-color="white" stop-opacity="0.8"/>
</linearGradient>
</defs>
</svg>
