<svg width="200" height="32" viewBox="0 0 200 32" fill="none" xmlns="http://www.w3.org/2000/svg">
<path d="M0.77735 31.4818C0.445073 31.7033 4.64336e-07 31.4651 4.39789e-07 31.0657L-1.19318e-06 4.5C-1.21016e-06 4.22386 0.223856 4 0.499999 4L27.5 4C27.7761 4 28 4.22386 28 4.5L28 31.0657C28 31.4651 27.5549 31.7033 27.2226 31.4818L24.7773 29.8516C24.6094 29.7396 24.3906 29.7396 24.2226 29.8516L21.2773 31.8151C21.1094 31.9271 20.8906 31.9271 20.7226 31.8151L17.7773 29.8516C17.6094 29.7396 17.3906 29.7396 17.2226 29.8516L14.2773 31.8151C14.1094 31.9271 13.8906 31.9271 13.7226 31.8151L10.7773 29.8516C10.6094 29.7396 10.3906 29.7396 10.2226 29.8516L7.27735 31.8151C7.1094 31.9271 6.8906 31.9271 6.72265 31.8151L3.77735 29.8516C3.6094 29.7396 3.3906 29.7396 3.22265 29.8516L0.77735 31.4818Z" fill="#0360EF"/>
<path d="M19.583 12.6738L19.4756 12.791L13.1533 19.6621H20V23H8V20.3047L8.10742 20.1875L14.3896 13.3584H8.43652V9.99998H19.583V12.6738Z" fill="url(#paint0_linear_1334_11323)"/>
<path d="M59.3025 22.9314C59.4576 22.9803 59.6127 23.014 59.7695 23.0326C59.9245 23.0427 60.0796 23.0477 60.2364 23.0477C60.6258 23.0477 61 22.9938 61.3591 22.8876C61.7181 22.7814 62.0536 22.6297 62.3638 22.4358C62.6841 22.2319 62.9656 21.9891 63.21 21.7076C63.4629 21.416 63.6668 21.0957 63.8219 20.7451L66.7365 23.6748C66.3673 24.1991 65.9392 24.6711 65.4537 25.0891C64.9783 25.5072 64.4574 25.8612 63.8944 26.1528C63.3415 26.4445 62.7532 26.6636 62.1311 26.8086C61.5192 26.9637 60.8871 27.0412 60.2364 27.0412C59.139 27.0412 58.104 26.8372 57.133 26.4293C56.1705 26.0213 55.3259 25.4533 54.5977 24.725C53.8779 23.9968 53.3098 23.132 52.8917 22.1307C52.4737 21.121 52.2646 20.0135 52.2646 18.8082C52.2646 17.6029 52.4737 16.4465 52.8917 15.4266C53.3098 14.4068 53.8779 13.5369 54.5977 12.8171C55.3259 12.099 56.1721 11.5394 57.133 11.1415C58.104 10.7437 59.139 10.5448 60.2364 10.5448C60.8871 10.5448 61.5243 10.6223 62.1463 10.7774C62.7683 10.9325 63.3567 11.1567 63.9096 11.4483C64.4726 11.74 64.9985 12.099 65.484 12.5272C65.9695 12.9453 66.3977 13.4156 66.7669 13.9415L59.3059 22.9331L59.3025 22.9314ZM61.3439 14.7271C61.1585 14.6596 60.9747 14.6158 60.7893 14.5956C60.614 14.5753 60.4303 14.5669 60.2347 14.5669C59.6902 14.5669 59.1761 14.6697 58.6906 14.8737C58.2152 15.0676 57.7972 15.3491 57.4381 15.7183C57.0875 16.0874 56.811 16.5341 56.6071 17.0584C56.4031 17.5725 56.3003 18.1558 56.3003 18.8065C56.3003 18.9515 56.3053 19.1167 56.3154 19.3021C56.334 19.4875 56.3593 19.6763 56.3879 19.8702C56.4267 20.0556 56.4705 20.2343 56.5194 20.4096C56.5683 20.5849 56.6306 20.74 56.7082 20.8765L61.3422 14.7271H61.3439Z" fill="white"/>
<path d="M75.7283 11.2811C75.6946 11.2811 75.6626 11.2828 75.6289 11.2828V11.2794H74.4995C71.332 11.2794 68.7646 13.8468 68.7646 17.0142V26.8588H72.7109V18.26C72.7109 17.8419 72.7884 17.4491 72.9435 17.08C73.0986 16.7108 73.3127 16.3905 73.5841 16.1174C73.8555 15.846 74.1775 15.6319 74.5466 15.4768C74.9158 15.3218 75.3086 15.2442 75.7266 15.2442H79.2397V11.2794H75.7266L75.7283 11.2811Z" fill="white"/>
<path d="M96.7065 18.8099C96.7065 19.9764 96.4974 21.0637 96.0794 22.0751C95.6613 23.0764 95.0932 23.9462 94.3751 24.6829C93.657 25.4111 92.8108 25.9893 91.8398 26.4175C90.8773 26.8355 89.8422 27.0446 88.7347 27.0446C87.6272 27.0446 86.6023 26.8355 85.6313 26.4175C84.6688 25.9893 83.8242 25.4128 83.096 24.6829C82.3779 23.9445 81.8081 23.0747 81.3917 22.0751C80.9737 21.0653 80.7646 19.9764 80.7646 18.8099C80.7646 17.6433 80.9737 16.5274 81.3917 15.516C81.8098 14.5062 82.3779 13.6364 83.096 12.9065C83.8242 12.1681 84.6704 11.5899 85.6313 11.1719C86.6023 10.7538 87.6373 10.5448 88.7347 10.5448C89.8321 10.5448 90.8773 10.7437 91.8398 11.1415C92.8108 11.5309 93.657 12.0889 94.3751 12.8171C95.0932 13.5369 95.663 14.4051 96.0794 15.4266C96.4974 16.4364 96.7065 17.5641 96.7065 18.8082V18.8099ZM92.6995 18.8099C92.6995 18.1693 92.5933 17.5911 92.3792 17.0753C92.1753 16.551 91.8937 16.1043 91.5347 15.7351C91.1756 15.3558 90.7525 15.0693 90.267 14.8754C89.7916 14.6714 89.2809 14.5686 88.7364 14.5686C88.1919 14.5686 87.6778 14.6714 87.1923 14.8754C86.7169 15.0693 86.2988 15.3558 85.9398 15.7351C85.5908 16.1043 85.3127 16.551 85.1087 17.0753C84.9048 17.5894 84.8019 18.1676 84.8019 18.8099C84.8019 19.4117 84.9048 19.9713 85.1087 20.4855C85.3127 20.9996 85.5892 21.448 85.9398 21.8256C86.2988 22.2049 86.7169 22.5066 87.1923 22.7291C87.6778 22.9432 88.1936 23.0494 88.7364 23.0494C89.2792 23.0494 89.79 22.9483 90.267 22.7443C90.7525 22.5403 91.1756 22.2538 91.5347 21.8846C91.8937 21.5154 92.1753 21.0687 92.3792 20.5445C92.5933 20.0202 92.6995 19.442 92.6995 18.8099Z" fill="white"/>
<path d="M118.142 22.9314C118.297 22.9803 118.453 23.014 118.609 23.0326C118.764 23.0427 118.919 23.0477 119.076 23.0477C119.466 23.0477 119.84 22.9938 120.199 22.8876C120.558 22.7814 120.893 22.6297 121.204 22.4358C121.524 22.2319 121.805 21.9891 122.05 21.7076C122.303 21.416 122.507 21.0957 122.662 20.7451L125.576 23.6748C125.207 24.1991 124.779 24.6711 124.294 25.0891C123.818 25.5072 123.297 25.8612 122.734 26.1528C122.181 26.4445 121.593 26.6636 120.971 26.8086C120.359 26.9637 119.727 27.0412 119.076 27.0412C117.979 27.0412 116.944 26.8372 115.973 26.4293C115.01 26.0213 114.166 25.4533 113.438 24.725C112.718 23.9968 112.15 23.132 111.732 22.1307C111.314 21.121 111.104 20.0135 111.104 18.8082C111.104 17.6029 111.314 16.4465 111.732 15.4266C112.15 14.4068 112.718 13.5369 113.438 12.8171C114.166 12.099 115.012 11.5394 115.973 11.1415C116.944 10.7437 117.979 10.5448 119.076 10.5448C119.727 10.5448 120.364 10.6223 120.986 10.7774C121.608 10.9325 122.196 11.1567 122.749 11.4483C123.312 11.74 123.838 12.099 124.324 12.5272C124.809 12.9453 125.238 13.4156 125.607 13.9415L118.146 22.9331L118.142 22.9314ZM120.184 14.7271C119.998 14.6596 119.815 14.6158 119.629 14.5956C119.454 14.5753 119.27 14.5669 119.075 14.5669C118.53 14.5669 118.016 14.6697 117.53 14.8737C117.055 15.0676 116.637 15.3491 116.278 15.7183C115.927 16.0874 115.651 16.5341 115.447 17.0584C115.243 17.5725 115.14 18.1558 115.14 18.8065C115.14 18.9515 115.145 19.1167 115.155 19.3021C115.174 19.4875 115.199 19.6763 115.228 19.8702C115.267 20.0556 115.31 20.2343 115.359 20.4096C115.408 20.5849 115.47 20.74 115.548 20.8765L120.182 14.7271H120.184Z" fill="white"/>
<path d="M134.142 22.9314C134.297 22.9803 134.453 23.014 134.609 23.0326C134.764 23.0427 134.919 23.0477 135.076 23.0477C135.466 23.0477 135.84 22.9938 136.199 22.8876C136.558 22.7814 136.893 22.6297 137.204 22.4358C137.524 22.2319 137.805 21.9891 138.05 21.7076C138.303 21.416 138.507 21.0957 138.662 20.7451L141.576 23.6748C141.207 24.1991 140.779 24.6711 140.294 25.0891C139.818 25.5072 139.297 25.8612 138.734 26.1528C138.181 26.4445 137.593 26.6636 136.971 26.8086C136.359 26.9637 135.727 27.0412 135.076 27.0412C133.979 27.0412 132.944 26.8372 131.973 26.4293C131.01 26.0213 130.166 25.4533 129.438 24.725C128.718 23.9968 128.15 23.132 127.732 22.1307C127.314 21.121 127.104 20.0135 127.104 18.8082C127.104 17.6029 127.314 16.4465 127.732 15.4266C128.15 14.4068 128.718 13.5369 129.438 12.8171C130.166 12.099 131.012 11.5394 131.973 11.1415C132.944 10.7437 133.979 10.5448 135.076 10.5448C135.727 10.5448 136.364 10.6223 136.986 10.7774C137.608 10.9325 138.196 11.1567 138.749 11.4483C139.312 11.74 139.838 12.099 140.324 12.5272C140.809 12.9453 141.238 13.4156 141.607 13.9415L134.146 22.9331L134.142 22.9314ZM136.184 14.7271C135.998 14.6596 135.815 14.6158 135.629 14.5956C135.454 14.5753 135.27 14.5669 135.075 14.5669C134.53 14.5669 134.016 14.6697 133.53 14.8737C133.055 15.0676 132.637 15.3491 132.278 15.7183C131.927 16.0874 131.651 16.5341 131.447 17.0584C131.243 17.5725 131.14 18.1558 131.14 18.8065C131.14 18.9515 131.145 19.1167 131.155 19.3021C131.174 19.4875 131.199 19.6763 131.228 19.8702C131.267 20.0556 131.31 20.2343 131.359 20.4096C131.408 20.5849 131.47 20.74 131.548 20.8765L136.182 14.7271H136.184Z" fill="white"/>
<path d="M109.868 10.9725H107.136C106.709 10.9726 106.491 11.0849 106.368 11.204C106.214 11.3765 106.124 11.6037 106.124 11.9852V12.1805H109.628V16.1093H106.124V26.9325H101.332V16.1093H98.5V12.1805H101.332V11.0966C101.332 10.4857 101.439 9.91458 101.659 9.3905L101.663 9.38171L101.75 9.1991C101.961 8.78231 102.236 8.42542 102.571 8.11414L102.579 8.1073L102.587 8.10144C102.964 7.77802 103.402 7.50429 103.947 7.31335L103.954 7.31042L104.321 7.20203C104.699 7.10513 105.11 7.04482 105.552 7.0448H109.868V10.9725Z" fill="white"/>
<path d="M50.4785 14.0858L50.3438 14.2303L42.4414 22.6874H51V26.7948H36V23.4774L36.1348 23.3339L43.9863 14.9286H36.5459V10.7948H50.4785V14.0858Z" fill="white"/>
<path d="M157.038 22.935C157.193 22.9839 157.348 23.0176 157.505 23.0362C157.66 23.0463 157.815 23.0513 157.972 23.0513C158.361 23.0513 158.735 22.9974 159.094 22.8912C159.453 22.785 159.789 22.6333 160.099 22.4394C160.419 22.2355 160.701 21.9927 160.945 21.7112C161.198 21.4196 161.402 21.0993 161.557 20.7487L164.472 23.6784C164.103 24.2027 163.675 24.6747 163.189 25.0927C162.714 25.5108 162.193 25.8648 161.63 26.1564C161.077 26.4481 160.489 26.6672 159.866 26.8122C159.255 26.9673 158.622 27.0448 157.972 27.0448C156.874 27.0448 155.839 26.8408 154.868 26.4329C153.906 26.0249 153.061 25.4569 152.333 24.7286C151.613 24.0004 151.045 23.1356 150.627 22.1343C150.209 21.1246 150 20.0171 150 18.8118C150 17.6065 150.209 16.4501 150.627 15.4302C151.045 14.4104 151.613 13.5405 152.333 12.8207C153.061 12.1026 153.907 11.543 154.868 11.1451C155.839 10.7473 156.874 10.5484 157.972 10.5484C158.622 10.5484 159.26 10.6259 159.882 10.781C160.504 10.9361 161.092 11.1603 161.645 11.4519C162.208 11.7436 162.734 12.1026 163.219 12.5308C163.705 12.9489 164.133 13.4192 164.502 13.9451L157.041 22.9367L157.038 22.935ZM159.079 14.7307C158.894 14.6632 158.71 14.6194 158.525 14.5992C158.349 14.5789 158.166 14.5705 157.97 14.5705C157.426 14.5705 156.911 14.6733 156.426 14.8773C155.951 15.0712 155.533 15.3527 155.173 15.7219C154.823 16.091 154.546 16.5377 154.342 17.062C154.138 17.5761 154.036 18.1594 154.036 18.8101C154.036 18.9551 154.041 19.1203 154.051 19.3057C154.069 19.4911 154.095 19.6799 154.123 19.8738C154.162 20.0592 154.206 20.2379 154.255 20.4132C154.304 20.5885 154.366 20.7436 154.444 20.8801L159.078 14.7307H159.079Z" fill="white"/>
<path d="M177.933 4.9552V12.2425C177.719 11.9324 177.458 11.6694 177.146 11.4553C176.836 11.2412 176.5 11.071 176.141 10.9445C175.791 10.808 175.427 10.7119 175.049 10.6529C174.68 10.5939 174.321 10.5653 173.97 10.5653C172.873 10.5653 171.838 10.7743 170.867 11.1923C169.904 11.6104 169.06 12.1886 168.331 12.9269C167.613 13.6653 167.043 14.5402 166.627 15.5499C166.209 16.5597 166 17.6537 166 18.8286C166 20.0036 166.209 21.1111 166.627 22.1225C167.045 23.1238 167.613 23.9937 168.331 24.732C169.06 25.4602 169.906 26.0334 170.867 26.4514C171.838 26.8594 172.854 27.0448 173.952 27.0448C178.365 27.0448 181.942 23.4677 181.942 19.0545V4.9552H177.933ZM172.424 22.7344C171.949 22.5102 171.531 22.2051 171.172 21.8157C170.821 21.4263 170.545 20.9745 170.341 20.4604C170.137 19.9463 170.034 19.4018 170.034 18.8286C170.034 18.1678 170.135 17.5761 170.341 17.0502C170.545 16.5259 170.821 16.0843 171.172 15.7235C171.531 15.3544 171.949 15.0729 172.424 14.879C172.91 14.6851 173.426 14.5874 173.968 14.5874C174.511 14.5874 175.022 14.7087 175.499 14.9515C175.984 15.1841 176.408 15.501 176.767 15.8989C177.126 16.2883 177.407 16.74 177.611 17.2542C177.825 17.7599 177.931 18.2841 177.931 18.8286C177.931 19.3731 177.825 19.9024 177.611 20.4166C177.407 20.9223 177.126 21.3741 176.767 21.7719C176.408 22.1613 175.984 22.4765 175.499 22.7193C175.024 22.9519 174.513 23.0682 173.968 23.0682C173.424 23.0682 172.91 22.9569 172.424 22.7327V22.7344Z" fill="white"/>
<path d="M195.5 11.7552H199.5V26.7552H195.5V26.1195C193.014 27.4329 189.963 27.2558 187.631 25.5843C185.666 24.1758 184.5 21.9063 184.5 19.4886V11.7552H188.5V19.4886C188.5 20.6168 189.044 21.6761 189.961 22.3333C191.18 23.2069 192.82 23.2069 194.039 22.3333C194.899 21.717 195.431 20.7472 195.494 19.6986L195.5 19.4886V11.7552Z" fill="white"/>
<defs>
<linearGradient id="paint0_linear_1334_11323" x1="14" y1="9.99998" x2="14" y2="23" gradientUnits="userSpaceOnUse">
<stop stop-color="white"/>
<stop offset="1" stop-color="white" stop-opacity="0.8"/>
</linearGradient>
</defs>
</svg>
