<svg preserveAspectRatio="none" width="100%" height="100%" overflow="visible" style="display: block;" viewBox="0 0 9.6 9.6" fill="none" xmlns="http://www.w3.org/2000/svg">
<path id="Icon" d="M4.2455 0.386062C4.43597 -0.128687 5.16403 -0.128688 5.3545 0.386061L6.30255 2.94813C6.36244 3.10997 6.49003 3.23756 6.65187 3.29745L9.21394 4.2455C9.72869 4.43597 9.72869 5.16403 9.21394 5.3545L6.65187 6.30255C6.49003 6.36244 6.36244 6.49003 6.30255 6.65187L5.3545 9.21394C5.16403 9.72869 4.43597 9.72869 4.2455 9.21394L3.29745 6.65187C3.23756 6.49003 3.10997 6.36244 2.94813 6.30255L0.386062 5.3545C-0.128687 5.16403 -0.128688 4.43597 0.386061 4.2455L2.94813 3.29745C3.10997 3.23756 3.23756 3.10997 3.29745 2.94813L4.2455 0.386062Z" fill="url(#paint0_linear_1491_4962)"/>
<defs>
<linearGradient id="paint0_linear_1491_4962" x1="-1.8625e-09" y1="4.8" x2="9.6" y2="4.8" gradientUnits="userSpaceOnUse">
<stop stop-color="#E043FF"/>
<stop offset="1" stop-color="#7C36FF"/>
</linearGradient>
</defs>
</svg>
